<?xml version="1.0" encoding="utf-8" standalone="no"?>
<!DOCTYPE svg PUBLIC "-//W3C//DTD SVG 1.1//EN"
  "http://www.w3.org/Graphics/SVG/1.1/DTD/svg11.dtd">
<!-- Created with matplotlib (https://matplotlib.org/) -->
<svg height="320.311353pt" version="1.1" viewBox="0 0 498.367091 320.311353" width="498.367091pt" xmlns="http://www.w3.org/2000/svg" xmlns:xlink="http://www.w3.org/1999/xlink">
 <metadata>
  <rdf:RDF xmlns:cc="http://creativecommons.org/ns#" xmlns:dc="http://purl.org/dc/elements/1.1/" xmlns:rdf="http://www.w3.org/1999/02/22-rdf-syntax-ns#">
   <cc:Work>
    <dc:type rdf:resource="http://purl.org/dc/dcmitype/StillImage"/>
    <dc:date>2020-10-19T17:07:57.653213</dc:date>
    <dc:format>image/svg+xml</dc:format>
    <dc:creator>
     <cc:Agent>
      <dc:title>Matplotlib v3.3.2, https://matplotlib.org/</dc:title>
     </cc:Agent>
    </dc:creator>
   </cc:Work>
  </rdf:RDF>
 </metadata>
 <defs>
  <style type="text/css">*{stroke-linecap:butt;stroke-linejoin:round;}</style>
 </defs>
 <g id="figure_1">
  <g id="patch_1">
   <path d="M 0 320.311353 
L 498.367091 320.311353 
L 498.367091 0 
L 0 0 
z
" style="fill:#ffffff;"/>
  </g>
  <g id="axes_1">
   <g id="patch_2">
    <path d="M 44.767091 284.4 
L 491.167091 284.4 
L 491.167091 7.2 
L 44.767091 7.2 
z
" style="fill:#ffffff;"/>
   </g>
   <g id="PathCollection_1">
    <defs>
     <path d="M -3.872983 3.872983 
L 3.872983 -3.872983 
M -3.872983 -3.872983 
L 3.872983 3.872983 
" id="m99a8065431" style="stroke:#000000;stroke-width:1.5;"/>
    </defs>
    <g clip-path="url(#p0bcb4835dc)">
     <use style="stroke:#000000;stroke-width:1.5;" x="65.058" xlink:href="#m99a8065431" y="269.633631"/>
     <use style="stroke:#000000;stroke-width:1.5;" x="65.894923" xlink:href="#m99a8065431" y="269.642987"/>
     <use style="stroke:#000000;stroke-width:1.5;" x="66.313385" xlink:href="#m99a8065431" y="269.646729"/>
     <use style="stroke:#000000;stroke-width:1.5;" x="67.180199" xlink:href="#m99a8065431" y="269.656085"/>
     <use style="stroke:#000000;stroke-width:1.5;" x="140.328799" xlink:href="#m99a8065431" y="270.279177"/>
     <use style="stroke:#000000;stroke-width:1.5;" x="140.754733" xlink:href="#m99a8065431" y="270.281048"/>
     <use style="stroke:#000000;stroke-width:1.5;" x="141.165722" xlink:href="#m99a8065431" y="270.282919"/>
     <use style="stroke:#000000;stroke-width:1.5;" x="143.706383" xlink:href="#m99a8065431" y="270.294146"/>
     <use style="stroke:#000000;stroke-width:1.5;" x="214.755202" xlink:href="#m99a8065431" y="270.584174"/>
     <use style="stroke:#000000;stroke-width:1.5;" x="215.196081" xlink:href="#m99a8065431" y="270.587916"/>
     <use style="stroke:#000000;stroke-width:1.5;" x="215.592125" xlink:href="#m99a8065431" y="270.591658"/>
     <use style="stroke:#000000;stroke-width:1.5;" x="215.60707" xlink:href="#m99a8065431" y="270.593529"/>
     <use style="stroke:#000000;stroke-width:1.5;" x="252.603568" xlink:href="#m99a8065431" y="271.439288"/>
     <use style="stroke:#000000;stroke-width:1.5;" x="253.858954" xlink:href="#m99a8065431" y="271.465484"/>
     <use style="stroke:#000000;stroke-width:1.5;" x="254.299833" xlink:href="#m99a8065431" y="271.472968"/>
     <use style="stroke:#000000;stroke-width:1.5;" x="254.710822" xlink:href="#m99a8065431" y="271.480453"/>
     <use style="stroke:#000000;stroke-width:1.5;" x="291.714793" xlink:href="#m99a8065431" y="271.798548"/>
     <use style="stroke:#000000;stroke-width:1.5;" x="304.769303" xlink:href="#m99a8065431" y="271.678794"/>
     <use style="stroke:#000000;stroke-width:1.5;" x="305.157875" xlink:href="#m99a8065431" y="271.67131"/>
     <use style="stroke:#000000;stroke-width:1.5;" x="305.165347" xlink:href="#m99a8065431" y="271.67131"/>
     <use style="stroke:#000000;stroke-width:1.5;" x="306.861612" xlink:href="#m99a8065431" y="271.630145"/>
     <use style="stroke:#000000;stroke-width:1.5;" x="326.61151" xlink:href="#m99a8065431" y="269.676668"/>
     <use style="stroke:#000000;stroke-width:1.5;" x="327.88184" xlink:href="#m99a8065431" y="269.487682"/>
     <use style="stroke:#000000;stroke-width:1.5;" x="329.570632" xlink:href="#m99a8065431" y="269.244433"/>
     <use style="stroke:#000000;stroke-width:1.5;" x="332.96316" xlink:href="#m99a8065431" y="268.769161"/>
     <use style="stroke:#000000;stroke-width:1.5;" x="350.172398" xlink:href="#m99a8065431" y="265.790296"/>
     <use style="stroke:#000000;stroke-width:1.5;" x="350.217233" xlink:href="#m99a8065431" y="265.78094"/>
     <use style="stroke:#000000;stroke-width:1.5;" x="351.846245" xlink:href="#m99a8065431" y="265.359932"/>
     <use style="stroke:#000000;stroke-width:1.5;" x="353.13152" xlink:href="#m99a8065431" y="264.989445"/>
     <use style="stroke:#000000;stroke-width:1.5;" x="362.800974" xlink:href="#m99a8065431" y="260.927186"/>
     <use style="stroke:#000000;stroke-width:1.5;" x="363.682733" xlink:href="#m99a8065431" y="260.502435"/>
     <use style="stroke:#000000;stroke-width:1.5;" x="366.156141" xlink:href="#m99a8065431" y="259.503243"/>
     <use style="stroke:#000000;stroke-width:1.5;" x="367.441416" xlink:href="#m99a8065431" y="259.151468"/>
     <use style="stroke:#000000;stroke-width:1.5;" x="379.681421" xlink:href="#m99a8065431" y="250.785571"/>
     <use style="stroke:#000000;stroke-width:1.5;" x="380.047575" xlink:href="#m99a8065431" y="250.330882"/>
     <use style="stroke:#000000;stroke-width:1.5;" x="380.488454" xlink:href="#m99a8065431" y="249.760182"/>
     <use style="stroke:#000000;stroke-width:1.5;" x="380.899443" xlink:href="#m99a8065431" y="249.226906"/>
     <use style="stroke:#000000;stroke-width:1.5;" x="383.836148" xlink:href="#m99a8065431" y="245.123481"/>
     <use style="stroke:#000000;stroke-width:1.5;" x="401.553517" xlink:href="#m99a8065431" y="215.740865"/>
     <use style="stroke:#000000;stroke-width:1.5;" x="401.568462" xlink:href="#m99a8065431" y="215.718411"/>
     <use style="stroke:#000000;stroke-width:1.5;" x="401.971979" xlink:href="#m99a8065431" y="215.001762"/>
     <use style="stroke:#000000;stroke-width:1.5;" x="402.009342" xlink:href="#m99a8065431" y="214.934401"/>
     <use style="stroke:#000000;stroke-width:1.5;" x="403.227364" xlink:href="#m99a8065431" y="212.767613"/>
     <use style="stroke:#000000;stroke-width:1.5;" x="416.311765" xlink:href="#m99a8065431" y="190.467287"/>
     <use style="stroke:#000000;stroke-width:1.5;" x="417.148688" xlink:href="#m99a8065431" y="189.181809"/>
     <use style="stroke:#000000;stroke-width:1.5;" x="417.582095" xlink:href="#m99a8065431" y="188.517552"/>
     <use style="stroke:#000000;stroke-width:1.5;" x="417.985612" xlink:href="#m99a8065431" y="187.911301"/>
     <use style="stroke:#000000;stroke-width:1.5;" x="418.441436" xlink:href="#m99a8065431" y="187.217105"/>
     <use style="stroke:#000000;stroke-width:1.5;" x="438.669576" xlink:href="#m99a8065431" y="157.873783"/>
     <use style="stroke:#000000;stroke-width:1.5;" x="439.058147" xlink:href="#m99a8065431" y="157.308697"/>
     <use style="stroke:#000000;stroke-width:1.5;" x="439.09551" xlink:href="#m99a8065431" y="157.245078"/>
     <use style="stroke:#000000;stroke-width:1.5;" x="442.002324" xlink:href="#m99a8065431" y="152.991962"/>
     <use style="stroke:#000000;stroke-width:1.5;" x="455.07178" xlink:href="#m99a8065431" y="133.55449"/>
     <use style="stroke:#000000;stroke-width:1.5;" x="455.505187" xlink:href="#m99a8065431" y="132.9183"/>
     <use style="stroke:#000000;stroke-width:1.5;" x="455.916176" xlink:href="#m99a8065431" y="132.315791"/>
     <use style="stroke:#000000;stroke-width:1.5;" x="463.10475" xlink:href="#m99a8065431" y="121.992675"/>
     <use style="stroke:#000000;stroke-width:1.5;" x="468.552225" xlink:href="#m99a8065431" y="114.330329"/>
     <use style="stroke:#000000;stroke-width:1.5;" x="469.411566" xlink:href="#m99a8065431" y="113.129053"/>
     <use style="stroke:#000000;stroke-width:1.5;" x="469.822555" xlink:href="#m99a8065431" y="112.55274"/>
     <use style="stroke:#000000;stroke-width:1.5;" x="469.852445" xlink:href="#m99a8065431" y="112.511575"/>
     <use style="stroke:#000000;stroke-width:1.5;" x="470.300797" xlink:href="#m99a8065431" y="111.88287"/>
    </g>
   </g>
   <g id="PathCollection_2">
    <defs>
     <path d="M -3.872983 -0 
L 3.872983 3.872983 
L 3.872983 -3.872983 
z
" id="m203b19aaed" style="stroke:#000000;"/>
    </defs>
    <g clip-path="url(#p0bcb4835dc)">
     <use style="stroke:#000000;" x="349.357892" xlink:href="#m203b19aaed" y="258.709877"/>
     <use style="stroke:#000000;" x="379.756146" xlink:href="#m203b19aaed" y="246.554908"/>
     <use style="stroke:#000000;" x="402.338133" xlink:href="#m203b19aaed" y="210.54282"/>
     <use style="stroke:#000000;" x="418.105172" xlink:href="#m203b19aaed" y="185.134519"/>
     <use style="stroke:#000000;" x="442.346061" xlink:href="#m203b19aaed" y="153.319412"/>
     <use style="stroke:#000000;" x="457.246286" xlink:href="#m203b19aaed" y="130.785193"/>
     <use style="stroke:#000000;" x="470.876182" xlink:href="#m203b19aaed" y="110.127734"/>
    </g>
   </g>
   <g id="PathCollection_3">
    <defs>
     <path d="M 3.872983 0 
L -3.872983 -3.872983 
L -3.872983 3.872983 
z
" id="m7669b25582" style="stroke:#000000;"/>
    </defs>
    <g clip-path="url(#p0bcb4835dc)">
     <use style="stroke:#000000;" x="65.058" xlink:href="#m7669b25582" y="266.329186"/>
     <use style="stroke:#000000;" x="65.894923" xlink:href="#m7669b25582" y="266.329186"/>
     <use style="stroke:#000000;" x="66.313385" xlink:href="#m7669b25582" y="266.329186"/>
     <use style="stroke:#000000;" x="67.180199" xlink:href="#m7669b25582" y="266.329186"/>
     <use style="stroke:#000000;" x="140.328799" xlink:href="#m7669b25582" y="266.196335"/>
     <use style="stroke:#000000;" x="140.754733" xlink:href="#m7669b25582" y="266.194464"/>
     <use style="stroke:#000000;" x="141.165722" xlink:href="#m7669b25582" y="266.192592"/>
     <use style="stroke:#000000;" x="143.706383" xlink:href="#m7669b25582" y="266.183237"/>
     <use style="stroke:#000000;" x="214.755202" xlink:href="#m7669b25582" y="266.173881"/>
     <use style="stroke:#000000;" x="215.196081" xlink:href="#m7669b25582" y="266.181366"/>
     <use style="stroke:#000000;" x="215.592125" xlink:href="#m7669b25582" y="266.18885"/>
     <use style="stroke:#000000;" x="215.60707" xlink:href="#m7669b25582" y="266.18885"/>
     <use style="stroke:#000000;" x="252.603568" xlink:href="#m7669b25582" y="267.599695"/>
     <use style="stroke:#000000;" x="253.858954" xlink:href="#m7669b25582" y="267.631504"/>
     <use style="stroke:#000000;" x="254.299833" xlink:href="#m7669b25582" y="267.64086"/>
     <use style="stroke:#000000;" x="254.710822" xlink:href="#m7669b25582" y="267.650216"/>
     <use style="stroke:#000000;" x="291.714793" xlink:href="#m7669b25582" y="267.790552"/>
     <use style="stroke:#000000;" x="304.769303" xlink:href="#m7669b25582" y="267.489297"/>
     <use style="stroke:#000000;" x="305.157875" xlink:href="#m7669b25582" y="267.474328"/>
     <use style="stroke:#000000;" x="305.165347" xlink:href="#m7669b25582" y="267.472457"/>
     <use style="stroke:#000000;" x="306.861612" xlink:href="#m7669b25582" y="267.403224"/>
     <use style="stroke:#000000;" x="326.61151" xlink:href="#m7669b25582" y="264.590891"/>
     <use style="stroke:#000000;" x="327.88184" xlink:href="#m7669b25582" y="264.26344"/>
     <use style="stroke:#000000;" x="329.570632" xlink:href="#m7669b25582" y="263.836819"/>
     <use style="stroke:#000000;" x="332.96316" xlink:href="#m7669b25582" y="263.004159"/>
     <use style="stroke:#000000;" x="350.172398" xlink:href="#m7669b25582" y="258.182214"/>
     <use style="stroke:#000000;" x="350.217233" xlink:href="#m7669b25582" y="258.167244"/>
     <use style="stroke:#000000;" x="351.846245" xlink:href="#m7669b25582" y="257.514214"/>
     <use style="stroke:#000000;" x="353.13152" xlink:href="#m7669b25582" y="256.937901"/>
     <use style="stroke:#000000;" x="362.800974" xlink:href="#m7669b25582" y="251.882063"/>
     <use style="stroke:#000000;" x="363.682733" xlink:href="#m7669b25582" y="251.560226"/>
     <use style="stroke:#000000;" x="366.156141" xlink:href="#m7669b25582" y="250.73505"/>
     <use style="stroke:#000000;" x="367.441416" xlink:href="#m7669b25582" y="250.284104"/>
     <use style="stroke:#000000;" x="379.681421" xlink:href="#m7669b25582" y="242.253142"/>
     <use style="stroke:#000000;" x="380.047575" xlink:href="#m7669b25582" y="241.871428"/>
     <use style="stroke:#000000;" x="380.488454" xlink:href="#m7669b25582" y="241.392415"/>
     <use style="stroke:#000000;" x="380.899443" xlink:href="#m7669b25582" y="240.941468"/>
     <use style="stroke:#000000;" x="383.836148" xlink:href="#m7669b25582" y="237.360094"/>
     <use style="stroke:#000000;" x="401.553517" xlink:href="#m7669b25582" y="207.797847"/>
     <use style="stroke:#000000;" x="401.568462" xlink:href="#m7669b25582" y="207.775394"/>
     <use style="stroke:#000000;" x="401.971979" xlink:href="#m7669b25582" y="206.974543"/>
     <use style="stroke:#000000;" x="402.009342" xlink:href="#m7669b25582" y="206.899697"/>
     <use style="stroke:#000000;" x="403.227364" xlink:href="#m7669b25582" y="204.454108"/>
     <use style="stroke:#000000;" x="416.311765" xlink:href="#m7669b25582" y="182.056483"/>
     <use style="stroke:#000000;" x="417.148688" xlink:href="#m7669b25582" y="180.797201"/>
     <use style="stroke:#000000;" x="417.582095" xlink:href="#m7669b25582" y="180.1423"/>
     <use style="stroke:#000000;" x="417.985612" xlink:href="#m7669b25582" y="179.541662"/>
     <use style="stroke:#000000;" x="418.441436" xlink:href="#m7669b25582" y="178.854951"/>
     <use style="stroke:#000000;" x="438.669576" xlink:href="#m7669b25582" y="149.215988"/>
     <use style="stroke:#000000;" x="439.058147" xlink:href="#m7669b25582" y="148.650901"/>
     <use style="stroke:#000000;" x="439.09551" xlink:href="#m7669b25582" y="148.589154"/>
     <use style="stroke:#000000;" x="442.002324" xlink:href="#m7669b25582" y="144.365976"/>
     <use style="stroke:#000000;" x="455.07178" xlink:href="#m7669b25582" y="125.353254"/>
     <use style="stroke:#000000;" x="455.505187" xlink:href="#m7669b25582" y="124.718936"/>
     <use style="stroke:#000000;" x="455.916176" xlink:href="#m7669b25582" y="124.114555"/>
     <use style="stroke:#000000;" x="463.10475" xlink:href="#m7669b25582" y="113.43405"/>
     <use style="stroke:#000000;" x="468.552225" xlink:href="#m7669b25582" y="104.787481"/>
     <use style="stroke:#000000;" x="469.411566" xlink:href="#m7669b25582" y="103.284951"/>
     <use style="stroke:#000000;" x="469.822555" xlink:href="#m7669b25582" y="102.734833"/>
     <use style="stroke:#000000;" x="469.852445" xlink:href="#m7669b25582" y="102.695539"/>
     <use style="stroke:#000000;" x="470.300797" xlink:href="#m7669b25582" y="102.074319"/>
    </g>
   </g>
   <g id="PathCollection_4">
    <defs>
     <path d="M -3.872983 0 
L 3.872983 0 
M 0 3.872983 
L 0 -3.872983 
" id="m9111d14f32" style="stroke:#000000;stroke-width:1.5;"/>
    </defs>
    <g clip-path="url(#p0bcb4835dc)">
     <use style="stroke:#000000;stroke-width:1.5;" x="65.058" xlink:href="#m9111d14f32" y="263.015385"/>
     <use style="stroke:#000000;stroke-width:1.5;" x="65.894923" xlink:href="#m9111d14f32" y="263.015385"/>
     <use style="stroke:#000000;stroke-width:1.5;" x="66.313385" xlink:href="#m9111d14f32" y="263.015385"/>
     <use style="stroke:#000000;stroke-width:1.5;" x="67.180199" xlink:href="#m9111d14f32" y="263.015385"/>
     <use style="stroke:#000000;stroke-width:1.5;" x="140.328799" xlink:href="#m9111d14f32" y="263.101458"/>
     <use style="stroke:#000000;stroke-width:1.5;" x="140.754733" xlink:href="#m9111d14f32" y="263.103329"/>
     <use style="stroke:#000000;stroke-width:1.5;" x="141.165722" xlink:href="#m9111d14f32" y="263.1052"/>
     <use style="stroke:#000000;stroke-width:1.5;" x="143.706383" xlink:href="#m9111d14f32" y="263.116427"/>
     <use style="stroke:#000000;stroke-width:1.5;" x="214.755202" xlink:href="#m9111d14f32" y="263.309155"/>
     <use style="stroke:#000000;stroke-width:1.5;" x="215.196081" xlink:href="#m9111d14f32" y="263.305413"/>
     <use style="stroke:#000000;stroke-width:1.5;" x="215.592125" xlink:href="#m9111d14f32" y="263.301671"/>
     <use style="stroke:#000000;stroke-width:1.5;" x="215.60707" xlink:href="#m9111d14f32" y="263.301671"/>
     <use style="stroke:#000000;stroke-width:1.5;" x="252.603568" xlink:href="#m9111d14f32" y="262.545728"/>
     <use style="stroke:#000000;stroke-width:1.5;" x="253.858954" xlink:href="#m9111d14f32" y="262.528887"/>
     <use style="stroke:#000000;stroke-width:1.5;" x="254.299833" xlink:href="#m9111d14f32" y="262.523274"/>
     <use style="stroke:#000000;stroke-width:1.5;" x="254.710822" xlink:href="#m9111d14f32" y="262.51766"/>
     <use style="stroke:#000000;stroke-width:1.5;" x="291.714793" xlink:href="#m9111d14f32" y="262.285638"/>
     <use style="stroke:#000000;stroke-width:1.5;" x="304.769303" xlink:href="#m9111d14f32" y="260.609091"/>
     <use style="stroke:#000000;stroke-width:1.5;" x="305.157875" xlink:href="#m9111d14f32" y="260.524889"/>
     <use style="stroke:#000000;stroke-width:1.5;" x="305.165347" xlink:href="#m9111d14f32" y="260.523018"/>
     <use style="stroke:#000000;stroke-width:1.5;" x="306.861612" xlink:href="#m9111d14f32" y="260.182469"/>
     <use style="stroke:#000000;stroke-width:1.5;" x="326.61151" xlink:href="#m9111d14f32" y="256.587997"/>
     <use style="stroke:#000000;stroke-width:1.5;" x="327.88184" xlink:href="#m9111d14f32" y="256.290484"/>
     <use style="stroke:#000000;stroke-width:1.5;" x="329.570632" xlink:href="#m9111d14f32" y="255.867605"/>
     <use style="stroke:#000000;stroke-width:1.5;" x="332.96316" xlink:href="#m9111d14f32" y="254.939516"/>
     <use style="stroke:#000000;stroke-width:1.5;" x="350.172398" xlink:href="#m9111d14f32" y="249.077214"/>
     <use style="stroke:#000000;stroke-width:1.5;" x="350.217233" xlink:href="#m9111d14f32" y="249.064116"/>
     <use style="stroke:#000000;stroke-width:1.5;" x="351.846245" xlink:href="#m9111d14f32" y="248.474705"/>
     <use style="stroke:#000000;stroke-width:1.5;" x="353.13152" xlink:href="#m9111d14f32" y="248.018145"/>
     <use style="stroke:#000000;stroke-width:1.5;" x="362.800974" xlink:href="#m9111d14f32" y="244.940109"/>
     <use style="stroke:#000000;stroke-width:1.5;" x="363.682733" xlink:href="#m9111d14f32" y="244.683762"/>
     <use style="stroke:#000000;stroke-width:1.5;" x="366.156141" xlink:href="#m9111d14f32" y="243.972726"/>
     <use style="stroke:#000000;stroke-width:1.5;" x="367.441416" xlink:href="#m9111d14f32" y="243.596625"/>
     <use style="stroke:#000000;stroke-width:1.5;" x="379.681421" xlink:href="#m9111d14f32" y="234.2858"/>
     <use style="stroke:#000000;stroke-width:1.5;" x="380.047575" xlink:href="#m9111d14f32" y="233.806786"/>
     <use style="stroke:#000000;stroke-width:1.5;" x="380.488454" xlink:href="#m9111d14f32" y="233.20989"/>
     <use style="stroke:#000000;stroke-width:1.5;" x="380.899443" xlink:href="#m9111d14f32" y="232.650417"/>
     <use style="stroke:#000000;stroke-width:1.5;" x="383.836148" xlink:href="#m9111d14f32" y="228.404786"/>
     <use style="stroke:#000000;stroke-width:1.5;" x="401.553517" xlink:href="#m9111d14f32" y="199.974583"/>
     <use style="stroke:#000000;stroke-width:1.5;" x="401.568462" xlink:href="#m9111d14f32" y="199.955872"/>
     <use style="stroke:#000000;stroke-width:1.5;" x="401.971979" xlink:href="#m9111d14f32" y="199.319682"/>
     <use style="stroke:#000000;stroke-width:1.5;" x="402.009342" xlink:href="#m9111d14f32" y="199.259805"/>
     <use style="stroke:#000000;stroke-width:1.5;" x="403.227364" xlink:href="#m9111d14f32" y="197.364334"/>
     <use style="stroke:#000000;stroke-width:1.5;" x="416.311765" xlink:href="#m9111d14f32" y="177.118527"/>
     <use style="stroke:#000000;stroke-width:1.5;" x="417.148688" xlink:href="#m9111d14f32" y="175.653419"/>
     <use style="stroke:#000000;stroke-width:1.5;" x="417.582095" xlink:href="#m9111d14f32" y="174.876893"/>
     <use style="stroke:#000000;stroke-width:1.5;" x="417.985612" xlink:href="#m9111d14f32" y="174.15463"/>
     <use style="stroke:#000000;stroke-width:1.5;" x="418.441436" xlink:href="#m9111d14f32" y="173.316357"/>
     <use style="stroke:#000000;stroke-width:1.5;" x="438.669576" xlink:href="#m9111d14f32" y="136.542711"/>
     <use style="stroke:#000000;stroke-width:1.5;" x="439.058147" xlink:href="#m9111d14f32" y="135.925233"/>
     <use style="stroke:#000000;stroke-width:1.5;" x="439.09551" xlink:href="#m9111d14f32" y="135.856001"/>
     <use style="stroke:#000000;stroke-width:1.5;" x="442.002324" xlink:href="#m9111d14f32" y="131.389573"/>
     <use style="stroke:#000000;stroke-width:1.5;" x="455.07178" xlink:href="#m9111d14f32" y="113.179574"/>
     <use style="stroke:#000000;stroke-width:1.5;" x="455.505187" xlink:href="#m9111d14f32" y="112.605132"/>
     <use style="stroke:#000000;stroke-width:1.5;" x="455.916176" xlink:href="#m9111d14f32" y="112.060628"/>
     <use style="stroke:#000000;stroke-width:1.5;" x="463.10475" xlink:href="#m9111d14f32" y="102.514038"/>
     <use style="stroke:#000000;stroke-width:1.5;" x="468.552225" xlink:href="#m9111d14f32" y="94.056455"/>
     <use style="stroke:#000000;stroke-width:1.5;" x="469.411566" xlink:href="#m9111d14f32" y="92.015034"/>
     <use style="stroke:#000000;stroke-width:1.5;" x="469.822555" xlink:href="#m9111d14f32" y="90.68652"/>
     <use style="stroke:#000000;stroke-width:1.5;" x="469.852445" xlink:href="#m9111d14f32" y="90.581736"/>
     <use style="stroke:#000000;stroke-width:1.5;" x="470.300797" xlink:href="#m9111d14f32" y="89.687328"/>
    </g>
   </g>
   <g id="PathCollection_5">
    <defs>
     <path d="M 0 3.872983 
C 1.027127 3.872983 2.012324 3.464901 2.738613 2.738613 
C 3.464901 2.012324 3.872983 1.027127 3.872983 0 
C 3.872983 -1.027127 3.464901 -2.012324 2.738613 -2.738613 
C 2.012324 -3.464901 1.027127 -3.872983 0 -3.872983 
C -1.027127 -3.872983 -2.012324 -3.464901 -2.738613 -2.738613 
C -3.464901 -2.012324 -3.872983 -1.027127 -3.872983 0 
C -3.872983 1.027127 -3.464901 2.012324 -2.738613 2.738613 
C -2.012324 3.464901 -1.027127 3.872983 0 3.872983 
z
" id="m55adeb1919" style="stroke:#000000;"/>
    </defs>
    <g clip-path="url(#p0bcb4835dc)">
     <use style="stroke:#000000;" x="65.058" xlink:href="#m55adeb1919" y="253.80373"/>
     <use style="stroke:#000000;" x="65.894923" xlink:href="#m55adeb1919" y="253.820571"/>
     <use style="stroke:#000000;" x="66.313385" xlink:href="#m55adeb1919" y="253.829926"/>
     <use style="stroke:#000000;" x="67.180199" xlink:href="#m55adeb1919" y="253.846767"/>
     <use style="stroke:#000000;" x="140.328799" xlink:href="#m55adeb1919" y="255.208962"/>
     <use style="stroke:#000000;" x="140.754733" xlink:href="#m55adeb1919" y="255.214575"/>
     <use style="stroke:#000000;" x="141.165722" xlink:href="#m55adeb1919" y="255.22206"/>
     <use style="stroke:#000000;" x="143.706383" xlink:href="#m55adeb1919" y="255.259482"/>
     <use style="stroke:#000000;" x="214.755202" xlink:href="#m55adeb1919" y="256.118339"/>
     <use style="stroke:#000000;" x="215.196081" xlink:href="#m55adeb1919" y="256.122081"/>
     <use style="stroke:#000000;" x="215.592125" xlink:href="#m55adeb1919" y="256.125823"/>
     <use style="stroke:#000000;" x="215.60707" xlink:href="#m55adeb1919" y="256.127695"/>
     <use style="stroke:#000000;" x="252.603568" xlink:href="#m55adeb1919" y="255.745981"/>
     <use style="stroke:#000000;" x="253.858954" xlink:href="#m55adeb1919" y="255.689846"/>
     <use style="stroke:#000000;" x="254.299833" xlink:href="#m55adeb1919" y="255.669264"/>
     <use style="stroke:#000000;" x="254.710822" xlink:href="#m55adeb1919" y="255.650552"/>
     <use style="stroke:#000000;" x="291.714793" xlink:href="#m55adeb1919" y="252.740919"/>
     <use style="stroke:#000000;" x="304.769303" xlink:href="#m55adeb1919" y="250.684529"/>
     <use style="stroke:#000000;" x="305.157875" xlink:href="#m55adeb1919" y="250.60407"/>
     <use style="stroke:#000000;" x="305.165347" xlink:href="#m55adeb1919" y="250.602198"/>
     <use style="stroke:#000000;" x="306.861612" xlink:href="#m55adeb1919" y="250.239196"/>
     <use style="stroke:#000000;" x="326.61151" xlink:href="#m55adeb1919" y="243.297242"/>
     <use style="stroke:#000000;" x="327.88184" xlink:href="#m55adeb1919" y="242.664794"/>
     <use style="stroke:#000000;" x="329.570632" xlink:href="#m55adeb1919" y="241.800325"/>
     <use style="stroke:#000000;" x="332.96316" xlink:href="#m55adeb1919" y="240.071385"/>
     <use style="stroke:#000000;" x="350.172398" xlink:href="#m55adeb1919" y="232.244379"/>
     <use style="stroke:#000000;" x="350.217233" xlink:href="#m55adeb1919" y="232.223796"/>
     <use style="stroke:#000000;" x="351.846245" xlink:href="#m55adeb1919" y="231.338744"/>
     <use style="stroke:#000000;" x="353.13152" xlink:href="#m55adeb1919" y="230.594027"/>
     <use style="stroke:#000000;" x="362.800974" xlink:href="#m55adeb1919" y="224.640039"/>
     <use style="stroke:#000000;" x="363.682733" xlink:href="#m55adeb1919" y="224.157283"/>
     <use style="stroke:#000000;" x="366.156141" xlink:href="#m55adeb1919" y="222.903614"/>
     <use style="stroke:#000000;" x="367.441416" xlink:href="#m55adeb1919" y="222.261811"/>
     <use style="stroke:#000000;" x="379.681421" xlink:href="#m55adeb1919" y="213.327086"/>
     <use style="stroke:#000000;" x="380.047575" xlink:href="#m55adeb1919" y="212.954728"/>
     <use style="stroke:#000000;" x="380.488454" xlink:href="#m55adeb1919" y="212.494426"/>
     <use style="stroke:#000000;" x="380.899443" xlink:href="#m55adeb1919" y="212.062191"/>
     <use style="stroke:#000000;" x="383.836148" xlink:href="#m55adeb1919" y="208.795169"/>
     <use style="stroke:#000000;" x="401.553517" xlink:href="#m55adeb1919" y="185.67528"/>
     <use style="stroke:#000000;" x="401.568462" xlink:href="#m55adeb1919" y="185.65844"/>
     <use style="stroke:#000000;" x="401.971979" xlink:href="#m55adeb1919" y="185.097096"/>
     <use style="stroke:#000000;" x="402.009342" xlink:href="#m55adeb1919" y="185.042833"/>
     <use style="stroke:#000000;" x="403.227364" xlink:href="#m55adeb1919" y="183.343832"/>
     <use style="stroke:#000000;" x="416.311765" xlink:href="#m55adeb1919" y="164.660432"/>
     <use style="stroke:#000000;" x="417.148688" xlink:href="#m55adeb1919" y="163.429218"/>
     <use style="stroke:#000000;" x="417.582095" xlink:href="#m55adeb1919" y="162.785543"/>
     <use style="stroke:#000000;" x="417.985612" xlink:href="#m55adeb1919" y="162.19239"/>
     <use style="stroke:#000000;" x="418.441436" xlink:href="#m55adeb1919" y="161.511292"/>
     <use style="stroke:#000000;" x="438.669576" xlink:href="#m55adeb1919" y="129.331312"/>
     <use style="stroke:#000000;" x="439.058147" xlink:href="#m55adeb1919" y="128.663313"/>
     <use style="stroke:#000000;" x="439.09551" xlink:href="#m55adeb1919" y="128.588467"/>
     <use style="stroke:#000000;" x="442.002324" xlink:href="#m55adeb1919" y="123.549469"/>
     <use style="stroke:#000000;" x="455.07178" xlink:href="#m55adeb1919" y="100.203172"/>
     <use style="stroke:#000000;" x="455.505187" xlink:href="#m55adeb1919" y="99.41729"/>
     <use style="stroke:#000000;" x="455.916176" xlink:href="#m55adeb1919" y="98.668832"/>
     <use style="stroke:#000000;" x="463.10475" xlink:href="#m55adeb1919" y="85.54648"/>
     <use style="stroke:#000000;" x="468.552225" xlink:href="#m55adeb1919" y="75.558299"/>
     <use style="stroke:#000000;" x="469.411566" xlink:href="#m55adeb1919" y="73.984665"/>
     <use style="stroke:#000000;" x="469.822555" xlink:href="#m55adeb1919" y="73.232464"/>
     <use style="stroke:#000000;" x="469.852445" xlink:href="#m55adeb1919" y="73.178201"/>
     <use style="stroke:#000000;" x="470.300797" xlink:href="#m55adeb1919" y="72.356767"/>
    </g>
   </g>
   <g id="PathCollection_6">
    <defs>
     <path d="M 0 -3.872983 
L -0.869539 -1.196818 
L -3.683426 -1.196818 
L -1.406944 0.457144 
L -2.276482 3.133309 
L -0 1.479348 
L 2.276482 3.133309 
L 1.406944 0.457144 
L 3.683426 -1.196818 
L 0.869539 -1.196818 
z
" id="m80ffc63ba4" style="stroke:#000000;"/>
    </defs>
    <g clip-path="url(#p0bcb4835dc)">
     <use style="stroke:#000000;" x="65.229868" xlink:href="#m80ffc63ba4" y="240.245402"/>
     <use style="stroke:#000000;" x="66.926133" xlink:href="#m80ffc63ba4" y="240.30715"/>
     <use style="stroke:#000000;" x="140.560447" xlink:href="#m80ffc63ba4" y="242.676021"/>
     <use style="stroke:#000000;" x="142.592976" xlink:href="#m80ffc63ba4" y="242.724671"/>
     <use style="stroke:#000000;" x="214.209707" xlink:href="#m80ffc63ba4" y="244.032603"/>
     <use style="stroke:#000000;" x="216.780258" xlink:href="#m80ffc63ba4" y="244.088737"/>
     <use style="stroke:#000000;" x="246.535874" xlink:href="#m80ffc63ba4" y="244.719313"/>
     <use style="stroke:#000000;" x="255.465548" xlink:href="#m80ffc63ba4" y="244.492905"/>
     <use style="stroke:#000000;" x="272.510389" xlink:href="#m80ffc63ba4" y="243.220525"/>
     <use style="stroke:#000000;" x="288.957429" xlink:href="#m80ffc63ba4" y="241.154779"/>
     <use style="stroke:#000000;" x="291.520507" xlink:href="#m80ffc63ba4" y="240.718802"/>
     <use style="stroke:#000000;" x="306.487985" xlink:href="#m80ffc63ba4" y="235.870661"/>
     <use style="stroke:#000000;" x="308.513041" xlink:href="#m80ffc63ba4" y="234.862113"/>
     <use style="stroke:#000000;" x="329.24184" xlink:href="#m80ffc63ba4" y="224.129215"/>
     <use style="stroke:#000000;" x="329.353928" xlink:href="#m80ffc63ba4" y="224.061854"/>
     <use style="stroke:#000000;" x="349.574596" xlink:href="#m80ffc63ba4" y="210.838461"/>
     <use style="stroke:#000000;" x="353.183828" xlink:href="#m80ffc63ba4" y="208.518239"/>
     <use style="stroke:#000000;" x="362.360095" xlink:href="#m80ffc63ba4" y="202.865505"/>
     <use style="stroke:#000000;" x="378.186915" xlink:href="#m80ffc63ba4" y="191.097863"/>
     <use style="stroke:#000000;" x="379.928014" xlink:href="#m80ffc63ba4" y="189.451254"/>
     <use style="stroke:#000000;" x="401.658133" xlink:href="#m80ffc63ba4" y="165.180611"/>
     <use style="stroke:#000000;" x="404.990881" xlink:href="#m80ffc63ba4" y="161.724603"/>
     <use style="stroke:#000000;" x="417.821216" xlink:href="#m80ffc63ba4" y="147.762107"/>
     <use style="stroke:#000000;" x="419.255942" xlink:href="#m80ffc63ba4" y="145.812372"/>
     <use style="stroke:#000000;" x="437.638367" xlink:href="#m80ffc63ba4" y="115.350104"/>
     <use style="stroke:#000000;" x="442.263863" xlink:href="#m80ffc63ba4" y="106.10664"/>
     <use style="stroke:#000000;" x="454.630901" xlink:href="#m80ffc63ba4" y="75.039992"/>
     <use style="stroke:#000000;" x="456.924968" xlink:href="#m80ffc63ba4" y="69.976669"/>
     <use style="stroke:#000000;" x="469.09772" xlink:href="#m80ffc63ba4" y="47.872813"/>
    </g>
   </g>
   <g id="PathCollection_7">
    <defs>
     <path d="M 0 -3.872983 
L -3.872983 3.872983 
L 3.872983 3.872983 
z
" id="m30635f671b" style="stroke:#000000;"/>
    </defs>
    <g clip-path="url(#p0bcb4835dc)">
     <use style="stroke:#000000;" x="65.229868" xlink:href="#m30635f671b" y="221.880097"/>
     <use style="stroke:#000000;" x="66.926133" xlink:href="#m30635f671b" y="221.997979"/>
     <use style="stroke:#000000;" x="140.560447" xlink:href="#m30635f671b" y="226.56732"/>
     <use style="stroke:#000000;" x="142.592976" xlink:href="#m30635f671b" y="226.66649"/>
     <use style="stroke:#000000;" x="214.209707" xlink:href="#m30635f671b" y="229.463855"/>
     <use style="stroke:#000000;" x="216.780258" xlink:href="#m30635f671b" y="229.544314"/>
     <use style="stroke:#000000;" x="246.535874" xlink:href="#m30635f671b" y="230.148694"/>
     <use style="stroke:#000000;" x="255.465548" xlink:href="#m30635f671b" y="230.103787"/>
     <use style="stroke:#000000;" x="272.510389" xlink:href="#m30635f671b" y="229.302936"/>
     <use style="stroke:#000000;" x="288.957429" xlink:href="#m30635f671b" y="225.674783"/>
     <use style="stroke:#000000;" x="291.520507" xlink:href="#m30635f671b" y="224.95252"/>
     <use style="stroke:#000000;" x="306.487985" xlink:href="#m30635f671b" y="219.262363"/>
     <use style="stroke:#000000;" x="308.513041" xlink:href="#m30635f671b" y="218.158386"/>
     <use style="stroke:#000000;" x="329.24184" xlink:href="#m30635f671b" y="204.7011"/>
     <use style="stroke:#000000;" x="329.353928" xlink:href="#m30635f671b" y="204.628125"/>
     <use style="stroke:#000000;" x="349.574596" xlink:href="#m30635f671b" y="190.830289"/>
     <use style="stroke:#000000;" x="353.183828" xlink:href="#m30635f671b" y="187.731671"/>
     <use style="stroke:#000000;" x="362.360095" xlink:href="#m30635f671b" y="179.124396"/>
     <use style="stroke:#000000;" x="378.186915" xlink:href="#m30635f671b" y="166.510996"/>
     <use style="stroke:#000000;" x="379.928014" xlink:href="#m30635f671b" y="164.911166"/>
     <use style="stroke:#000000;" x="401.658133" xlink:href="#m30635f671b" y="141.766953"/>
     <use style="stroke:#000000;" x="404.990881" xlink:href="#m30635f671b" y="137.740245"/>
     <use style="stroke:#000000;" x="417.821216" xlink:href="#m30635f671b" y="117.537475"/>
     <use style="stroke:#000000;" x="419.255942" xlink:href="#m30635f671b" y="114.955292"/>
     <use style="stroke:#000000;" x="437.638367" xlink:href="#m30635f671b" y="81.733083"/>
     <use style="stroke:#000000;" x="442.263863" xlink:href="#m30635f671b" y="72.970504"/>
     <use style="stroke:#000000;" x="454.630901" xlink:href="#m30635f671b" y="48.589463"/>
     <use style="stroke:#000000;" x="456.924968" xlink:href="#m30635f671b" y="43.977086"/>
     <use style="stroke:#000000;" x="469.09772" xlink:href="#m30635f671b" y="19.8"/>
    </g>
   </g>
   <g id="matplotlib.axis_1">
    <g id="xtick_1">
     <g id="line2d_1">
      <defs>
       <path d="M 0 0 
L 0 3.5 
" id="mcdc93f80bb" style="stroke:#000000;stroke-width:0.8;"/>
      </defs>
      <g>
       <use style="stroke:#000000;stroke-width:0.8;" x="64.930967" xlink:href="#mcdc93f80bb" y="284.4"/>
      </g>
     </g>
     <g id="text_1">
      <!-- $\mathdefault{0.4}$ -->
      <g transform="translate(58.565928 298.318498)scale(0.1 -0.1)">
       <defs>
        <path d="M 42 31.84375 
C 42 37.96875 41.90625 48.421875 37.703125 56.453125 
C 34 63.484375 28.09375 66 22.90625 66 
C 18.09375 66 12 63.78125 8.203125 56.5625 
C 4.203125 49.015625 3.796875 39.671875 3.796875 31.84375 
C 3.796875 26.109375 3.90625 17.375 7 9.734375 
C 11.296875 -0.609375 19 -2 22.90625 -2 
C 27.5 -2 34.5 -0.109375 38.59375 9.4375 
C 41.59375 16.375 42 24.5 42 31.84375 
z
M 22.90625 -0.40625 
C 16.5 -0.40625 12.703125 5.125 11.296875 12.75 
C 10.203125 18.6875 10.203125 27.328125 10.203125 32.953125 
C 10.203125 40.6875 10.203125 47.109375 11.5 53.234375 
C 13.40625 61.78125 19 64.390625 22.90625 64.390625 
C 27 64.390625 32.296875 61.671875 34.203125 53.4375 
C 35.5 47.71875 35.59375 40.984375 35.59375 32.953125 
C 35.59375 26.421875 35.59375 18.375 34.40625 12.453125 
C 32.296875 1.5 26.40625 -0.40625 22.90625 -0.40625 
z
" id="CMR17-48"/>
        <path d="M 18.40625 4.796875 
C 18.40625 7.6875 16 9.6875 13.59375 9.6875 
C 10.703125 9.6875 8.703125 7.296875 8.703125 4.890625 
C 8.703125 2 11.09375 0 13.5 0 
C 16.40625 0 18.40625 2.390625 18.40625 4.796875 
z
" id="CMMI12-58"/>
        <path d="M 33.59375 64.796875 
C 33.59375 66.890625 33.5 67 31.703125 67 
L 2 19.59375 
L 2 17 
L 27.796875 17 
L 27.796875 7.1875 
C 27.796875 3.59375 27.59375 2.59375 20.59375 2.59375 
L 18.703125 2.59375 
L 18.703125 0 
C 21.90625 0.1875 27.296875 0.1875 30.703125 0.1875 
C 34.09375 0.1875 39.5 0.1875 42.703125 0 
L 42.703125 2.59375 
L 40.796875 2.59375 
C 33.796875 2.59375 33.59375 3.59375 33.59375 7.1875 
L 33.59375 17 
L 43.796875 17 
L 43.796875 19.59375 
L 33.59375 19.59375 
z
M 28.09375 58.171875 
L 28.09375 19.59375 
L 4 19.59375 
z
" id="CMR17-52"/>
       </defs>
       <use transform="scale(0.996264)" xlink:href="#CMR17-48"/>
       <use transform="translate(45.690477 0)scale(0.996264)" xlink:href="#CMMI12-58"/>
       <use transform="translate(72.787654 0)scale(0.996264)" xlink:href="#CMR17-52"/>
      </g>
     </g>
    </g>
    <g id="xtick_2">
     <g id="line2d_2">
      <g>
       <use style="stroke:#000000;stroke-width:0.8;" x="139.656271" xlink:href="#mcdc93f80bb" y="284.4"/>
      </g>
     </g>
     <g id="text_2">
      <!-- $\mathdefault{0.5}$ -->
      <g transform="translate(133.291232 298.318498)scale(0.1 -0.1)">
       <defs>
        <path d="M 11.40625 58.59375 
C 12.40625 58.1875 16.5 56.890625 20.703125 56.890625 
C 30 56.890625 35.09375 61.890625 38 64.6875 
C 38 65.484375 38 66 37.40625 66 
C 37.296875 66 37.09375 66 36.296875 65.59375 
C 32.796875 64.09375 28.703125 63 23.703125 63 
C 20.703125 63 16.203125 63.359375 11.296875 65.484375 
C 10.203125 66 10 66 9.90625 66 
C 9.40625 66 9.296875 65.890625 9.296875 63.90625 
L 9.296875 34.859375 
C 9.296875 33.015625 9.296875 32.5 10.296875 32.5 
C 10.796875 32.5 11 32.703125 11.5 33.421875 
C 14.703125 38.046875 19.09375 40 24.09375 40 
C 27.59375 40 35.09375 37.734375 35.09375 20.203125 
C 35.09375 16.984375 35.09375 11.1875 32.09375 6.59375 
C 29.59375 2.484375 25.703125 0.390625 21.40625 0.390625 
C 14.796875 0.390625 8.09375 4.984375 6.296875 12.6875 
C 6.703125 12.59375 7.5 12.390625 7.90625 12.390625 
C 9.203125 12.390625 11.703125 13.09375 11.703125 16.1875 
C 11.703125 18.890625 9.796875 20 7.90625 20 
C 5.59375 20 4.09375 18.59375 4.09375 15.796875 
C 4.09375 7.09375 11 -2 21.59375 -2 
C 31.90625 -2 41.703125 6.890625 41.703125 19.796875 
C 41.703125 32.09375 33.90625 41.59375 24.203125 41.59375 
C 19.09375 41.59375 14.796875 39.6875 11.40625 36 
z
" id="CMR17-53"/>
       </defs>
       <use transform="scale(0.996264)" xlink:href="#CMR17-48"/>
       <use transform="translate(45.690477 0)scale(0.996264)" xlink:href="#CMMI12-58"/>
       <use transform="translate(72.787654 0)scale(0.996264)" xlink:href="#CMR17-53"/>
      </g>
     </g>
    </g>
    <g id="xtick_3">
     <g id="line2d_3">
      <g>
       <use style="stroke:#000000;stroke-width:0.8;" x="214.381575" xlink:href="#mcdc93f80bb" y="284.4"/>
      </g>
     </g>
     <g id="text_3">
      <!-- $\mathdefault{0.6}$ -->
      <g transform="translate(208.016536 298.318498)scale(0.1 -0.1)">
       <defs>
        <path d="M 10.59375 34.34375 
C 10.59375 58 21.796875 63.6875 28.296875 63.6875 
C 30.40625 63.6875 35.5 63.265625 37.5 59.09375 
C 35.90625 59.09375 32.90625 59.09375 32.90625 55.59375 
C 32.90625 52.890625 35.09375 52 36.5 52 
C 37.40625 52 40.09375 52.390625 40.09375 55.796875 
C 40.09375 62.296875 35.09375 66 28.203125 66 
C 16.296875 66 3.796875 53.296875 3.796875 31.421875 
C 3.796875 4.015625 15.09375 -2 23.09375 -2 
C 32.796875 -2 42 6.734375 42 20.234375 
C 42 32.828125 33.90625 42 23.703125 42 
C 17.59375 42 13.09375 37.96875 10.59375 30.921875 
z
M 23.09375 0.390625 
C 10.796875 0.390625 10.796875 18.9375 10.796875 22.65625 
C 10.796875 29.90625 14.203125 40.390625 23.5 40.390625 
C 25.203125 40.390625 30.09375 40.390625 33.40625 33.4375 
C 35.203125 29.515625 35.203125 25.375 35.203125 20.34375 
C 35.203125 14.90625 35.203125 10.875 33.09375 6.84375 
C 30.90625 2.703125 27.703125 0.390625 23.09375 0.390625 
z
" id="CMR17-54"/>
       </defs>
       <use transform="scale(0.996264)" xlink:href="#CMR17-48"/>
       <use transform="translate(45.690477 0)scale(0.996264)" xlink:href="#CMMI12-58"/>
       <use transform="translate(72.787654 0)scale(0.996264)" xlink:href="#CMR17-54"/>
      </g>
     </g>
    </g>
    <g id="xtick_4">
     <g id="line2d_4">
      <g>
       <use style="stroke:#000000;stroke-width:0.8;" x="289.106879" xlink:href="#mcdc93f80bb" y="284.4"/>
      </g>
     </g>
     <g id="text_4">
      <!-- $\mathdefault{0.7}$ -->
      <g transform="translate(282.74184 298.318498)scale(0.1 -0.1)">
       <defs>
        <path d="M 45.09375 61.796875 
L 45.09375 64 
L 21.59375 64 
C 9.90625 64 9.703125 65.09375 9.296875 67 
L 7.5 67 
L 4.59375 48.5 
L 6.40625 48.5 
C 6.703125 50.40625 7.40625 55.5 8.59375 57.390625 
C 9.203125 58.1875 16.59375 58.1875 18.296875 58.1875 
L 40.296875 58.1875 
L 29.203125 41.71875 
C 21.796875 30.640625 16.703125 15.671875 16.703125 2.59375 
C 16.703125 1.390625 16.703125 -2 20.296875 -2 
C 23.90625 -2 23.90625 1.390625 23.90625 2.6875 
L 23.90625 7.28125 
C 23.90625 23.65625 26.703125 34.4375 31.296875 41.3125 
z
" id="CMR17-55"/>
       </defs>
       <use transform="scale(0.996264)" xlink:href="#CMR17-48"/>
       <use transform="translate(45.690477 0)scale(0.996264)" xlink:href="#CMMI12-58"/>
       <use transform="translate(72.787654 0)scale(0.996264)" xlink:href="#CMR17-55"/>
      </g>
     </g>
    </g>
    <g id="xtick_5">
     <g id="line2d_5">
      <g>
       <use style="stroke:#000000;stroke-width:0.8;" x="363.832184" xlink:href="#mcdc93f80bb" y="284.4"/>
      </g>
     </g>
     <g id="text_5">
      <!-- $\mathdefault{0.8}$ -->
      <g transform="translate(357.467144 298.318498)scale(0.1 -0.1)">
       <defs>
        <path d="M 27.203125 35.765625 
C 33.5 38.96875 39.90625 43.796875 39.90625 51.53125 
C 39.90625 60.6875 31.09375 66 23 66 
C 13.90625 66 5.90625 59.375 5.90625 50.234375 
C 5.90625 47.71875 6.5 43.390625 10.40625 39.578125 
C 11.40625 38.578125 15.59375 35.5625 18.296875 33.65625 
C 13.796875 31.34375 3.296875 25.8125 3.296875 14.765625 
C 3.296875 4.40625 13.09375 -2 22.796875 -2 
C 33.5 -2 42.5 5.71875 42.5 15.96875 
C 42.5 25.109375 36.40625 29.328125 32.40625 32.046875 
z
M 14.09375 44.609375 
C 13.296875 45.109375 9.296875 48.21875 9.296875 52.9375 
C 9.296875 59.078125 15.59375 63.6875 22.796875 63.6875 
C 30.703125 63.6875 36.5 58.0625 36.5 51.53125 
C 36.5 42.1875 26.09375 36.859375 25.59375 36.859375 
C 25.5 36.859375 25.40625 36.859375 24.59375 37.46875 
z
M 32.5 24 
C 34 22.90625 38.796875 19.578125 38.796875 13.453125 
C 38.796875 6.015625 31.40625 0.390625 23 0.390625 
C 13.90625 0.390625 7 6.921875 7 14.859375 
C 7 22.796875 13.09375 29.4375 20 32.546875 
z
" id="CMR17-56"/>
       </defs>
       <use transform="scale(0.996264)" xlink:href="#CMR17-48"/>
       <use transform="translate(45.690477 0)scale(0.996264)" xlink:href="#CMMI12-58"/>
       <use transform="translate(72.787654 0)scale(0.996264)" xlink:href="#CMR17-56"/>
      </g>
     </g>
    </g>
    <g id="xtick_6">
     <g id="line2d_6">
      <g>
       <use style="stroke:#000000;stroke-width:0.8;" x="438.557488" xlink:href="#mcdc93f80bb" y="284.4"/>
      </g>
     </g>
     <g id="text_6">
      <!-- $\mathdefault{0.9}$ -->
      <g transform="translate(432.192448 298.318498)scale(0.1 -0.1)">
       <defs>
        <path d="M 35.203125 29.234375 
C 35.203125 7 26.09375 0.390625 18.59375 0.390625 
C 16.296875 0.390625 10.703125 0.671875 8.40625 4.390625 
C 11 4 12.90625 5.390625 12.90625 7.890625 
C 12.90625 10.59375 10.703125 11.5 9.296875 11.5 
C 8.40625 11.5 5.703125 11.09375 5.703125 7.6875 
C 5.703125 1.0625 11.59375 -2 18.796875 -2 
C 30.296875 -2 42 10.390625 42 32.65625 
C 42 60.265625 30.796875 66 23.203125 66 
C 13.296875 66 3.796875 57.25 3.796875 43.75 
C 3.796875 31.25 11.90625 22 22.09375 22 
C 30.5 22 34.203125 29.84375 35.203125 33.15625 
z
M 22.296875 23.59375 
C 19.59375 23.59375 15.796875 24.09375 12.703125 30.140625 
C 10.59375 34.078125 10.59375 38.703125 10.59375 43.640625 
C 10.59375 49.59375 10.59375 53.71875 13.40625 58.15625 
C 14.796875 60.265625 17.40625 63.6875 23.203125 63.6875 
C 35 63.6875 35 45.453125 35 41.421875 
C 35 34.265625 31.796875 23.59375 22.296875 23.59375 
z
" id="CMR17-57"/>
       </defs>
       <use transform="scale(0.996264)" xlink:href="#CMR17-48"/>
       <use transform="translate(45.690477 0)scale(0.996264)" xlink:href="#CMMI12-58"/>
       <use transform="translate(72.787654 0)scale(0.996264)" xlink:href="#CMR17-57"/>
      </g>
     </g>
    </g>
    <g id="text_7">
     <!-- $Ma$ -->
     <g transform="translate(259.958351 311.174175)scale(0.1 -0.1)">
      <defs>
       <path d="M 90.796875 60.71875 
C 91.703125 64.09375 91.90625 65.09375 99 65.09375 
C 100.90625 65.09375 101.796875 65.09375 101.796875 66.984375 
C 101.796875 68 101.09375 68 99.203125 68 
L 87.203125 68 
C 84.703125 68 84.59375 67.890625 83.5 66.296875 
L 47 8.859375 
L 39.5 65.796875 
C 39.203125 68 39.09375 68 36.5 68 
L 24.09375 68 
C 22.203125 68 21.296875 68 21.296875 66.09375 
C 21.296875 65.09375 22.203125 65.09375 23.703125 65.09375 
C 29.796875 65.09375 29.796875 64.296875 29.796875 63.203125 
C 29.796875 63 29.796875 62.40625 29.40625 60.90625 
L 16.59375 10.15625 
C 15.40625 5.375 13.09375 3.1875 6.40625 2.890625 
C 6.09375 2.890625 4.90625 2.796875 4.90625 1.09375 
C 4.90625 0 5.796875 0 6.203125 0 
C 8.203125 0 13.296875 0.1875 15.296875 0.1875 
L 20.09375 0.1875 
C 21.5 0.1875 23.203125 0 24.59375 0 
C 25.296875 0 26.40625 0 26.40625 1.890625 
C 26.40625 2.796875 25.40625 2.890625 25 2.890625 
C 21.703125 2.984375 18.5 3.59375 18.5 7.171875 
C 18.5 8.171875 18.5 8.265625 18.90625 9.65625 
L 32.703125 64.5 
L 32.796875 64.5 
L 41.09375 2.6875 
C 41.40625 0.296875 41.5 0 42.40625 0 
C 43.5 0 44 0.796875 44.5 1.6875 
L 84.703125 64.984375 
L 84.796875 64.984375 
L 70.296875 7.375 
C 69.40625 3.890625 69.203125 2.890625 62.203125 2.890625 
C 60.296875 2.890625 59.296875 2.890625 59.296875 1.09375 
C 59.296875 0 60.203125 0 60.796875 0 
C 62.5 0 64.5 0.1875 66.203125 0.1875 
L 78 0.1875 
C 79.703125 0.1875 81.796875 0 83.5 0 
C 84.296875 0 85.40625 0 85.40625 1.890625 
C 85.40625 2.890625 84.5 2.890625 83 2.890625 
C 76.90625 2.890625 76.90625 3.6875 76.90625 4.6875 
C 76.90625 4.78125 76.90625 5.484375 77.09375 6.28125 
z
" id="CMMI12-77"/>
       <path d="M 30.09375 11.859375 
C 29.59375 10.171875 29.59375 9.96875 28.203125 8.078125 
C 26 5.28125 21.59375 1 16.90625 1 
C 12.796875 1 10.5 4.6875 10.5 10.5625 
C 10.5 16.0625 13.59375 27.234375 15.5 31.421875 
C 18.90625 38.40625 23.59375 41.984375 27.5 41.984375 
C 34.09375 41.984375 35.40625 33.8125 35.40625 33.015625 
C 35.40625 32.921875 35.09375 31.625 35 31.421875 
z
M 36.5 37.40625 
C 35.40625 40 32.703125 44 27.5 44 
C 16.203125 44 4 29.421875 4 14.65625 
C 4 4.78125 9.796875 -1 16.59375 -1 
C 22.09375 -1 26.796875 3.28125 29.59375 6.578125 
C 30.59375 0.6875 35.296875 -1 38.296875 -1 
C 41.296875 -1 43.703125 0.796875 45.5 4.375 
C 47.09375 7.75 48.5 13.828125 48.5 14.21875 
C 48.5 14.71875 48.09375 15.125 47.5 15.125 
C 46.59375 15.125 46.5 14.625 46.09375 13.125 
C 44.59375 7.265625 42.703125 1 38.59375 1 
C 35.703125 1 35.5 3.578125 35.5 5.5625 
C 35.5 7.859375 35.796875 8.953125 36.703125 12.828125 
C 37.40625 15.3125 37.90625 17.5 38.703125 20.390625 
C 42.40625 35.3125 43.296875 38.890625 43.296875 39.5 
C 43.296875 40.890625 42.203125 42 40.703125 42 
C 37.5 42 36.703125 38.5 36.5 37.3125 
z
" id="CMMI12-97"/>
      </defs>
      <use transform="scale(0.996264)" xlink:href="#CMMI12-77"/>
      <use transform="translate(104.780079 0)scale(0.996264)" xlink:href="#CMMI12-97"/>
     </g>
    </g>
   </g>
   <g id="matplotlib.axis_2">
    <g id="ytick_1">
     <g id="line2d_7">
      <defs>
       <path d="M 0 0 
L -3.5 0 
" id="m3bff43ddbd" style="stroke:#000000;stroke-width:0.8;"/>
      </defs>
      <g>
       <use style="stroke:#000000;stroke-width:0.8;" x="44.767091" xlink:href="#m3bff43ddbd" y="255.725398"/>
      </g>
     </g>
     <g id="text_8">
      <!-- $\mathdefault{0.02}$ -->
      <g transform="translate(20.055677 259.184647)scale(0.1 -0.1)">
       <defs>
        <path d="M 41.703125 15.46875 
L 39.90625 15.46875 
C 38.90625 8.390625 38.09375 7.1875 37.703125 6.59375 
C 37.203125 5.796875 30 5.796875 28.59375 5.796875 
L 9.40625 5.796875 
C 13 9.6875 20 16.765625 28.5 24.9375 
C 34.59375 30.71875 41.703125 37.5 41.703125 47.390625 
C 41.703125 59.1875 32.296875 66 21.796875 66 
C 10.796875 66 4.09375 56.296875 4.09375 47.296875 
C 4.09375 43.390625 7 42.890625 8.203125 42.890625 
C 9.203125 42.890625 12.203125 43.484375 12.203125 46.984375 
C 12.203125 50.09375 9.59375 51 8.203125 51 
C 7.59375 51 7 50.890625 6.59375 50.6875 
C 8.5 59.1875 14.296875 63.390625 20.40625 63.390625 
C 29.09375 63.390625 34.796875 56.5 34.796875 47.390625 
C 34.796875 38.703125 29.703125 31.21875 24 24.734375 
L 4.09375 2.296875 
L 4.09375 0 
L 39.296875 0 
z
" id="CMR17-50"/>
       </defs>
       <use transform="scale(0.996264)" xlink:href="#CMR17-48"/>
       <use transform="translate(45.690477 0)scale(0.996264)" xlink:href="#CMMI12-58"/>
       <use transform="translate(72.787654 0)scale(0.996264)" xlink:href="#CMR17-48"/>
       <use transform="translate(118.478131 0)scale(0.996264)" xlink:href="#CMR17-50"/>
      </g>
     </g>
    </g>
    <g id="ytick_2">
     <g id="line2d_8">
      <g>
       <use style="stroke:#000000;stroke-width:0.8;" x="44.767091" xlink:href="#m3bff43ddbd" y="218.302465"/>
      </g>
     </g>
     <g id="text_9">
      <!-- $\mathdefault{0.04}$ -->
      <g transform="translate(20.055677 221.761714)scale(0.1 -0.1)">
       <use transform="scale(0.996264)" xlink:href="#CMR17-48"/>
       <use transform="translate(45.690477 0)scale(0.996264)" xlink:href="#CMMI12-58"/>
       <use transform="translate(72.787654 0)scale(0.996264)" xlink:href="#CMR17-48"/>
       <use transform="translate(118.478131 0)scale(0.996264)" xlink:href="#CMR17-52"/>
      </g>
     </g>
    </g>
    <g id="ytick_3">
     <g id="line2d_9">
      <g>
       <use style="stroke:#000000;stroke-width:0.8;" x="44.767091" xlink:href="#m3bff43ddbd" y="180.879532"/>
      </g>
     </g>
     <g id="text_10">
      <!-- $\mathdefault{0.06}$ -->
      <g transform="translate(20.055677 184.338781)scale(0.1 -0.1)">
       <use transform="scale(0.996264)" xlink:href="#CMR17-48"/>
       <use transform="translate(45.690477 0)scale(0.996264)" xlink:href="#CMMI12-58"/>
       <use transform="translate(72.787654 0)scale(0.996264)" xlink:href="#CMR17-48"/>
       <use transform="translate(118.478131 0)scale(0.996264)" xlink:href="#CMR17-54"/>
      </g>
     </g>
    </g>
    <g id="ytick_4">
     <g id="line2d_10">
      <g>
       <use style="stroke:#000000;stroke-width:0.8;" x="44.767091" xlink:href="#m3bff43ddbd" y="143.456598"/>
      </g>
     </g>
     <g id="text_11">
      <!-- $\mathdefault{0.08}$ -->
      <g transform="translate(20.055677 146.915847)scale(0.1 -0.1)">
       <use transform="scale(0.996264)" xlink:href="#CMR17-48"/>
       <use transform="translate(45.690477 0)scale(0.996264)" xlink:href="#CMMI12-58"/>
       <use transform="translate(72.787654 0)scale(0.996264)" xlink:href="#CMR17-48"/>
       <use transform="translate(118.478131 0)scale(0.996264)" xlink:href="#CMR17-56"/>
      </g>
     </g>
    </g>
    <g id="ytick_5">
     <g id="line2d_11">
      <g>
       <use style="stroke:#000000;stroke-width:0.8;" x="44.767091" xlink:href="#m3bff43ddbd" y="106.033665"/>
      </g>
     </g>
     <g id="text_12">
      <!-- $\mathdefault{0.10}$ -->
      <g transform="translate(20.055677 109.492914)scale(0.1 -0.1)">
       <defs>
        <path d="M 26.59375 63.796875 
C 26.59375 65.890625 26.5 66 25.09375 66 
C 21.203125 61.359375 15.296875 59.890625 9.703125 59.6875 
C 9.40625 59.6875 8.90625 59.6875 8.796875 59.5 
C 8.703125 59.296875 8.703125 59.09375 8.703125 57 
C 11.796875 57 17 57.59375 21 59.984375 
L 21 7.296875 
C 21 3.796875 20.796875 2.59375 12.203125 2.59375 
L 9.203125 2.59375 
L 9.203125 0 
C 14 0.09375 19 0.1875 23.796875 0.1875 
C 28.59375 0.1875 33.59375 0.09375 38.40625 0 
L 38.40625 2.59375 
L 35.40625 2.59375 
C 26.796875 2.59375 26.59375 3.6875 26.59375 7.296875 
z
" id="CMR17-49"/>
       </defs>
       <use transform="scale(0.996264)" xlink:href="#CMR17-48"/>
       <use transform="translate(45.690477 0)scale(0.996264)" xlink:href="#CMMI12-58"/>
       <use transform="translate(72.787654 0)scale(0.996264)" xlink:href="#CMR17-49"/>
       <use transform="translate(118.478131 0)scale(0.996264)" xlink:href="#CMR17-48"/>
      </g>
     </g>
    </g>
    <g id="ytick_6">
     <g id="line2d_12">
      <g>
       <use style="stroke:#000000;stroke-width:0.8;" x="44.767091" xlink:href="#m3bff43ddbd" y="68.610732"/>
      </g>
     </g>
     <g id="text_13">
      <!-- $\mathdefault{0.12}$ -->
      <g transform="translate(20.055677 72.069981)scale(0.1 -0.1)">
       <use transform="scale(0.996264)" xlink:href="#CMR17-48"/>
       <use transform="translate(45.690477 0)scale(0.996264)" xlink:href="#CMMI12-58"/>
       <use transform="translate(72.787654 0)scale(0.996264)" xlink:href="#CMR17-49"/>
       <use transform="translate(118.478131 0)scale(0.996264)" xlink:href="#CMR17-50"/>
      </g>
     </g>
    </g>
    <g id="ytick_7">
     <g id="line2d_13">
      <g>
       <use style="stroke:#000000;stroke-width:0.8;" x="44.767091" xlink:href="#m3bff43ddbd" y="31.187799"/>
      </g>
     </g>
     <g id="text_14">
      <!-- $\mathdefault{0.14}$ -->
      <g transform="translate(20.055677 34.647048)scale(0.1 -0.1)">
       <use transform="scale(0.996264)" xlink:href="#CMR17-48"/>
       <use transform="translate(45.690477 0)scale(0.996264)" xlink:href="#CMMI12-58"/>
       <use transform="translate(72.787654 0)scale(0.996264)" xlink:href="#CMR17-49"/>
       <use transform="translate(118.478131 0)scale(0.996264)" xlink:href="#CMR17-52"/>
      </g>
     </g>
    </g>
    <g id="text_15">
     <!-- $c_d$ -->
     <g transform="translate(14.118498 150.029356)rotate(-90)scale(0.1 -0.1)">
      <defs>
       <path d="M 39.09375 38 
C 37.203125 38 36.296875 38 34.90625 36.796875 
C 34.296875 36.296875 33.203125 34.796875 33.203125 33.1875 
C 33.203125 31.1875 34.703125 29.984375 36.59375 29.984375 
C 39 29.984375 41.703125 31.984375 41.703125 35.984375 
C 41.703125 40.484375 37.09375 44 30.203125 44 
C 17.09375 44 4 30.1875 4 15.796875 
C 4 6.96875 9.40625 -1 19.59375 -1 
C 33.203125 -1 41.796875 9.71875 41.796875 11.03125 
C 41.796875 11.640625 41.203125 12.140625 40.796875 12.140625 
C 40.5 12.140625 40.40625 12.046875 39.5 11.125 
C 33.09375 2.515625 23.59375 1 19.796875 1 
C 12.90625 1 10.703125 7.078125 10.703125 12.140625 
C 10.703125 15.6875 12.40625 25.53125 16 32.390625 
C 18.59375 37.09375 24 41.984375 30.296875 41.984375 
C 31.59375 41.984375 37.09375 41.8125 39.09375 38 
z
" id="CMMI12-99"/>
       <path d="M 50.296875 66.484375 
C 50.40625 66.890625 50.59375 67.484375 50.59375 67.984375 
C 50.59375 69 49.59375 69 49.40625 69 
C 49.296875 69 44.40625 68.59375 43.90625 68.484375 
C 42.203125 68.390625 40.703125 68.1875 38.90625 68.09375 
C 36.40625 67.890625 35.703125 67.796875 35.703125 65.984375 
C 35.703125 64.984375 36.5 64.984375 37.90625 64.984375 
C 42.796875 64.984375 42.90625 64.109375 42.90625 63.125 
C 42.90625 62.53125 42.703125 61.734375 42.59375 61.4375 
L 36.5 37.40625 
C 35.40625 40 32.703125 44 27.5 44 
C 16.203125 44 4 29.421875 4 14.65625 
C 4 4.78125 9.796875 -1 16.59375 -1 
C 22.09375 -1 26.796875 3.28125 29.59375 6.578125 
C 30.59375 0.6875 35.296875 -1 38.296875 -1 
C 41.296875 -1 43.703125 0.796875 45.5 4.390625 
C 47.09375 7.78125 48.5 13.859375 48.5 14.265625 
C 48.5 14.765625 48.09375 15.15625 47.5 15.15625 
C 46.59375 15.15625 46.5 14.65625 46.09375 13.15625 
C 44.59375 7.28125 42.703125 1 38.59375 1 
C 35.703125 1 35.5 3.59375 35.5 5.578125 
C 35.5 5.984375 35.5 8.078125 36.203125 10.875 
z
M 30.09375 11.859375 
C 29.59375 10.171875 29.59375 9.96875 28.203125 8.078125 
C 26 5.28125 21.59375 1 16.90625 1 
C 12.796875 1 10.5 4.6875 10.5 10.5625 
C 10.5 16.0625 13.59375 27.234375 15.5 31.421875 
C 18.90625 38.40625 23.59375 41.984375 27.5 41.984375 
C 34.09375 41.984375 35.40625 33.8125 35.40625 33.015625 
C 35.40625 32.921875 35.09375 31.625 35 31.421875 
z
" id="CMMI12-100"/>
      </defs>
      <use transform="scale(0.996264)" xlink:href="#CMMI12-99"/>
      <use transform="translate(41.983234 -14.943915)scale(0.697382)" xlink:href="#CMMI12-100"/>
     </g>
    </g>
   </g>
   <g id="line2d_14">
    <path clip-path="url(#p0bcb4835dc)" d="M 65.058 269.633631 
L 69.151362 269.678547 
L 73.244723 269.724568 
L 77.338085 269.769671 
L 81.431446 269.813762 
L 85.524808 269.856745 
L 89.61817 269.898528 
L 93.711531 269.939017 
L 97.804893 269.978116 
L 101.898254 270.015733 
L 105.991616 270.051772 
L 110.084977 270.086141 
L 114.178339 270.118745 
L 118.271701 270.14949 
L 122.365062 270.178282 
L 126.458424 270.205027 
L 130.551785 270.229631 
L 134.645147 270.252 
L 138.738509 270.27204 
L 142.83187 270.290489 
L 146.925232 270.304075 
L 151.018593 270.309417 
L 155.111955 270.30815 
L 159.205316 270.301941 
L 163.298678 270.292456 
L 167.39204 270.281361 
L 171.485401 270.270324 
L 175.578763 270.26101 
L 179.672124 270.255086 
L 183.765486 270.254218 
L 187.858848 270.260073 
L 191.952209 270.274317 
L 196.045571 270.298617 
L 200.138932 270.334639 
L 204.232294 270.38405 
L 208.325656 270.448516 
L 212.419017 270.529703 
L 216.512379 270.70444 
L 220.60574 271.100422 
L 224.699102 271.346425 
L 228.792463 271.473249 
L 232.885825 271.511695 
L 236.979187 271.492564 
L 241.072548 271.446659 
L 245.16591 271.404781 
L 249.259271 271.39773 
L 253.352633 271.455427 
L 257.445995 271.528811 
L 261.539356 271.592147 
L 265.632718 271.645356 
L 269.726079 271.689231 
L 273.819441 271.724566 
L 277.912802 271.752154 
L 282.006164 271.772788 
L 286.099526 271.787263 
L 290.192887 271.79637 
L 294.286249 271.8 
L 298.37961 271.785908 
L 302.472972 271.733179 
L 306.566334 271.6414 
L 310.659695 271.430869 
L 314.753057 271.111993 
L 318.846418 270.69566 
L 322.93978 270.19268 
L 327.033142 269.613944 
L 331.126503 269.026765 
L 335.219865 268.440139 
L 339.313226 267.799623 
L 343.406588 267.098108 
L 347.499949 266.330141 
L 351.593311 265.431108 
L 355.686673 264.110867 
L 359.780034 262.366078 
L 363.873396 260.412958 
L 367.966757 259.001842 
L 372.060119 257.310465 
L 376.153481 254.448732 
L 380.246842 250.074626 
L 384.340204 244.367187 
L 388.433565 237.790153 
L 392.526927 230.747701 
L 396.620288 223.677446 
L 400.71365 217.017002 
L 404.807012 209.966406 
L 408.900373 202.751792 
L 412.993735 195.781634 
L 417.087096 189.276525 
L 421.180458 183.045782 
L 425.27382 176.900551 
L 429.367181 170.887905 
L 433.460543 165.037477 
L 437.553904 159.3789 
L 441.647266 153.475993 
L 445.740627 147.647286 
L 449.833989 141.46412 
L 453.927351 135.252068 
L 458.020712 129.255074 
L 462.114074 123.397812 
L 466.207435 117.612651 
L 470.300797 111.88287 
" style="fill:none;stroke:#000000;stroke-dasharray:1.5,2.475;stroke-dashoffset:0;stroke-width:1.5;"/>
   </g>
   <g id="line2d_15">
    <path clip-path="url(#p0bcb4835dc)" d="M 349.357892 258.709877 
L 350.58535 259.635041 
L 351.812807 260.413396 
L 353.040265 261.048582 
L 354.267722 261.544245 
L 355.49518 261.904028 
L 356.722637 262.131573 
L 357.950095 262.230525 
L 359.177552 262.204526 
L 360.405009 262.057219 
L 361.632467 261.792249 
L 362.859924 261.413259 
L 364.087382 260.923891 
L 365.314839 260.327789 
L 366.542297 259.628597 
L 367.769754 258.829957 
L 368.997212 257.935514 
L 370.224669 256.94891 
L 371.452127 255.873789 
L 372.679584 254.713794 
L 373.907042 253.472568 
L 375.134499 252.153756 
L 376.361957 250.760999 
L 377.589414 249.297942 
L 378.816872 247.768227 
L 380.044329 246.175499 
L 381.271786 244.5234 
L 382.499244 242.815574 
L 383.726701 241.055664 
L 384.954159 239.247313 
L 386.181616 237.394165 
L 387.409074 235.499863 
L 388.636531 233.568051 
L 389.863989 231.602371 
L 391.091446 229.606467 
L 392.318904 227.583983 
L 393.546361 225.538562 
L 394.773819 223.473846 
L 396.001276 221.39348 
L 397.228734 219.301107 
L 398.456191 217.20037 
L 399.683649 215.094912 
L 400.911106 212.988377 
L 402.138563 210.884408 
L 403.366021 208.786572 
L 404.593478 206.697934 
L 405.820936 204.621356 
L 407.048393 202.5597 
L 408.275851 200.515828 
L 409.503308 198.492602 
L 410.730766 196.492884 
L 411.958223 194.519535 
L 413.185681 192.575419 
L 414.413138 190.663396 
L 415.640596 188.786328 
L 416.868053 186.947078 
L 418.095511 185.148507 
L 419.322968 183.39235 
L 420.550426 181.675724 
L 421.777883 179.994564 
L 423.00534 178.344806 
L 424.232798 176.722384 
L 425.460255 175.123236 
L 426.687713 173.543294 
L 427.91517 171.978496 
L 429.142628 170.424775 
L 430.370085 168.878069 
L 431.597543 167.334311 
L 432.825 165.789437 
L 434.052458 164.239383 
L 435.279915 162.680083 
L 436.507373 161.107474 
L 437.73483 159.517489 
L 438.962288 157.906066 
L 440.189745 156.269139 
L 441.417203 154.602642 
L 442.64466 152.90253 
L 443.872117 151.166975 
L 445.099575 149.398544 
L 446.327032 147.60032 
L 447.55449 145.775387 
L 448.781947 143.926828 
L 450.009405 142.057727 
L 451.236862 140.171166 
L 452.46432 138.27023 
L 453.691777 136.358001 
L 454.919235 134.437563 
L 456.146692 132.511998 
L 457.37415 130.584391 
L 458.601607 128.657825 
L 459.829065 126.735383 
L 461.056522 124.820148 
L 462.28398 122.915204 
L 463.511437 121.023634 
L 464.738894 119.148521 
L 465.966352 117.292949 
L 467.193809 115.460001 
L 468.421267 113.65276 
L 469.648724 111.87431 
L 470.876182 110.127734 
" style="fill:none;stroke:#000000;stroke-dasharray:1.5,2.475;stroke-dashoffset:0;stroke-width:1.5;"/>
   </g>
   <g id="line2d_16">
    <path clip-path="url(#p0bcb4835dc)" d="M 65.058 266.329186 
L 69.151362 266.329112 
L 73.244723 266.328554 
L 77.338085 266.327409 
L 81.431446 266.325621 
L 85.524808 266.323138 
L 89.61817 266.319905 
L 93.711531 266.315869 
L 97.804893 266.310976 
L 101.898254 266.305173 
L 105.991616 266.298405 
L 110.084977 266.290619 
L 114.178339 266.281762 
L 118.271701 266.271779 
L 122.365062 266.260617 
L 126.458424 266.248221 
L 130.551785 266.234539 
L 134.645147 266.219517 
L 138.738509 266.2031 
L 142.83187 266.186203 
L 146.925232 266.171257 
L 151.018593 266.153656 
L 155.111955 266.134195 
L 159.205316 266.113728 
L 163.298678 266.093107 
L 167.39204 266.073184 
L 171.485401 266.054811 
L 175.578763 266.038842 
L 179.672124 266.026129 
L 183.765486 266.017524 
L 187.858848 266.013879 
L 191.952209 266.016047 
L 196.045571 266.02488 
L 200.138932 266.041231 
L 204.232294 266.065952 
L 208.325656 266.099896 
L 212.419017 266.143915 
L 216.512379 266.190413 
L 220.60574 266.241326 
L 224.699102 266.353249 
L 228.792463 266.511597 
L 232.885825 266.701785 
L 236.979187 266.90923 
L 241.072548 267.119345 
L 245.16591 267.317545 
L 249.259271 267.489247 
L 253.352633 267.619665 
L 257.445995 267.716676 
L 261.539356 267.82087 
L 265.632718 267.921426 
L 269.726079 268.007874 
L 273.819441 268.069746 
L 277.912802 268.096572 
L 282.006164 268.077882 
L 286.099526 268.003208 
L 290.192887 267.86208 
L 294.286249 267.65035 
L 298.37961 267.44864 
L 302.472972 267.398147 
L 306.566334 267.3875 
L 310.659695 267.413536 
L 314.753057 267.052051 
L 318.846418 266.386588 
L 322.93978 265.501742 
L 327.033142 264.482176 
L 331.126503 263.453309 
L 335.219865 262.44474 
L 339.313226 261.390872 
L 343.406588 260.265447 
L 347.499949 259.043681 
L 351.593311 257.624036 
L 355.686673 255.607201 
L 359.780034 253.303226 
L 363.873396 251.494358 
L 367.966757 250.085619 
L 372.060119 248.167656 
L 376.153481 245.433848 
L 380.246842 241.656598 
L 384.340204 236.670621 
L 388.433565 230.349226 
L 392.526927 223.205845 
L 396.620288 215.896418 
L 400.71365 209.076883 
L 404.807012 201.365147 
L 408.900373 193.932358 
L 412.993735 187.172817 
L 417.087096 180.890334 
L 421.180458 174.710822 
L 425.27382 168.545935 
L 429.367181 162.461954 
L 433.460543 156.511631 
L 437.553904 150.74772 
L 441.647266 144.850835 
L 445.740627 139.099084 
L 449.833989 133.097822 
L 453.927351 127.034175 
L 458.020712 120.993072 
L 462.114074 114.89513 
L 466.207435 108.782925 
L 470.300797 102.074319 
" style="fill:none;stroke:#000000;stroke-dasharray:1.5,2.475;stroke-dashoffset:0;stroke-width:1.5;"/>
   </g>
   <g id="line2d_17">
    <path clip-path="url(#p0bcb4835dc)" d="M 65.058 263.015385 
L 69.151362 263.015336 
L 73.244723 263.015039 
L 77.338085 263.014604 
L 81.431446 263.014184 
L 85.524808 263.01393 
L 89.61817 263.013993 
L 93.711531 263.014526 
L 97.804893 263.01568 
L 101.898254 263.017607 
L 105.991616 263.020458 
L 110.084977 263.024385 
L 114.178339 263.02954 
L 118.271701 263.036075 
L 122.365062 263.04414 
L 126.458424 263.053889 
L 130.551785 263.065471 
L 134.645147 263.07904 
L 138.738509 263.094747 
L 142.83187 263.112577 
L 146.925232 263.131596 
L 151.018593 263.152936 
L 155.111955 263.175982 
L 159.205316 263.200102 
L 163.298678 263.224664 
L 167.39204 263.249035 
L 171.485401 263.272584 
L 175.578763 263.294678 
L 179.672124 263.314684 
L 183.765486 263.33197 
L 187.858848 263.345905 
L 191.952209 263.355855 
L 196.045571 263.361188 
L 200.138932 263.361272 
L 204.232294 263.355474 
L 208.325656 263.343163 
L 212.419017 263.323706 
L 216.512379 263.300806 
L 220.60574 263.273103 
L 224.699102 263.212364 
L 228.792463 263.126605 
L 232.885825 263.023841 
L 236.979187 262.912085 
L 241.072548 262.799353 
L 245.16591 262.693661 
L 249.259271 262.603021 
L 253.352633 262.535407 
L 257.445995 262.49565 
L 261.539356 262.507561 
L 265.632718 262.554408 
L 269.726079 262.615019 
L 273.819441 262.668216 
L 277.912802 262.692825 
L 282.006164 262.667671 
L 286.099526 262.571579 
L 290.192887 262.383373 
L 294.286249 262.081593 
L 298.37961 261.640957 
L 302.472972 261.033451 
L 306.566334 260.234362 
L 310.659695 259.536699 
L 314.753057 258.854218 
L 318.846418 258.146164 
L 322.93978 257.371992 
L 327.033142 256.49112 
L 331.126503 255.457748 
L 335.219865 254.235157 
L 339.313226 252.817776 
L 343.406588 251.332003 
L 347.499949 249.909302 
L 351.593311 248.571103 
L 355.686673 247.157676 
L 359.780034 245.848632 
L 363.873396 244.628488 
L 367.966757 243.42202 
L 372.060119 241.449119 
L 376.153481 238.230945 
L 380.246842 233.538613 
L 384.340204 227.62751 
L 388.433565 220.903829 
L 392.526927 213.852002 
L 396.620288 207.043881 
L 400.71365 201.051319 
L 404.807012 194.970258 
L 408.900373 188.862345 
L 412.993735 182.588602 
L 417.087096 175.763102 
L 421.180458 168.147092 
L 425.27382 160.253536 
L 429.367181 152.431135 
L 433.460543 144.98651 
L 437.553904 138.226283 
L 441.647266 131.881018 
L 445.740627 126.149336 
L 449.833989 120.36718 
L 453.927351 114.713068 
L 458.020712 109.263148 
L 462.114074 103.821335 
L 466.207435 98.206998 
L 470.300797 89.687328 
" style="fill:none;stroke:#000000;stroke-dasharray:1.5,2.475;stroke-dashoffset:0;stroke-width:1.5;"/>
   </g>
   <g id="line2d_18">
    <path clip-path="url(#p0bcb4835dc)" d="M 65.058 253.80373 
L 69.151362 253.88353 
L 73.244723 253.962017 
L 77.338085 254.042956 
L 81.431446 254.125817 
L 85.524808 254.210065 
L 89.61817 254.295171 
L 93.711531 254.380601 
L 97.804893 254.465825 
L 101.898254 254.550309 
L 105.991616 254.633522 
L 110.084977 254.714932 
L 114.178339 254.794006 
L 118.271701 254.870214 
L 122.365062 254.943023 
L 126.458424 255.011901 
L 130.551785 255.076316 
L 134.645147 255.135736 
L 138.738509 255.189629 
L 142.83187 255.248292 
L 146.925232 255.297594 
L 151.018593 255.341281 
L 155.111955 255.380597 
L 159.205316 255.416596 
L 163.298678 255.450333 
L 167.39204 255.482862 
L 171.485401 255.515239 
L 175.578763 255.548516 
L 179.672124 255.58375 
L 183.765486 255.621994 
L 187.858848 255.664303 
L 191.952209 255.711731 
L 196.045571 255.765333 
L 200.138932 255.826164 
L 204.232294 255.895277 
L 208.325656 255.973728 
L 212.419017 256.062571 
L 216.512379 256.237849 
L 220.60574 256.611785 
L 224.699102 256.80537 
L 228.792463 256.849588 
L 232.885825 256.775422 
L 236.979187 256.613856 
L 241.072548 256.395874 
L 245.16591 256.15246 
L 249.259271 255.914599 
L 253.352633 255.712723 
L 257.445995 255.523614 
L 261.539356 255.319071 
L 265.632718 255.091977 
L 269.726079 254.83662 
L 273.819441 254.547285 
L 277.912802 254.21826 
L 282.006164 253.843831 
L 286.099526 253.418286 
L 290.192887 252.93591 
L 294.286249 252.391097 
L 298.37961 251.779661 
L 302.472972 251.098429 
L 306.566334 250.298521 
L 310.659695 249.354967 
L 314.753057 248.151361 
L 318.846418 246.698541 
L 322.93978 245.007568 
L 327.033142 243.08952 
L 331.126503 241.000367 
L 335.219865 238.972167 
L 339.313226 237.07848 
L 343.406588 235.259303 
L 347.499949 233.450426 
L 351.593311 231.485404 
L 355.686673 229.033263 
L 359.780034 226.440332 
L 363.873396 224.056107 
L 367.966757 221.989716 
L 372.060119 219.581074 
L 376.153481 216.552307 
L 380.246842 212.747746 
L 384.340204 208.195664 
L 388.433565 202.956183 
L 392.526927 197.344638 
L 396.620288 191.7688 
L 400.71365 186.636438 
L 404.807012 181.162178 
L 408.900373 175.394447 
L 412.993735 169.499482 
L 417.087096 163.520582 
L 421.180458 157.330214 
L 425.27382 150.898575 
L 429.367181 144.325873 
L 433.460543 137.700256 
L 437.553904 131.109872 
L 441.647266 124.125164 
L 445.740627 117.19624 
L 449.833989 109.810944 
L 453.927351 102.287763 
L 458.020712 94.832088 
L 462.114074 87.359667 
L 466.207435 79.855948 
L 470.300797 72.356767 
" style="fill:none;stroke:#000000;stroke-dasharray:1.5,2.475;stroke-dashoffset:0;stroke-width:1.5;"/>
   </g>
   <g id="line2d_19">
    <path clip-path="url(#p0bcb4835dc)" d="M 65.229868 240.245402 
L 69.309341 240.393827 
L 73.388815 240.541845 
L 77.468288 240.689179 
L 81.547761 240.835553 
L 85.627234 240.980691 
L 89.706708 241.124317 
L 93.786181 241.266154 
L 97.865654 241.405926 
L 101.945127 241.543358 
L 106.024601 241.678172 
L 110.104074 241.810094 
L 114.183547 241.938846 
L 118.26302 242.064153 
L 122.342494 242.185737 
L 126.421967 242.303324 
L 130.50144 242.416637 
L 134.580913 242.5254 
L 138.660387 242.629337 
L 142.73986 242.72813 
L 146.819333 242.821135 
L 150.898806 242.908637 
L 154.97828 242.991266 
L 159.057753 243.06965 
L 163.137226 243.144421 
L 167.216699 243.216207 
L 171.296173 243.285639 
L 175.375646 243.353346 
L 179.455119 243.419958 
L 183.534592 243.486105 
L 187.614066 243.552417 
L 191.693539 243.619524 
L 195.773012 243.688054 
L 199.852485 243.758639 
L 203.931959 243.831907 
L 208.011432 243.908489 
L 212.090905 243.989015 
L 216.170378 244.074765 
L 220.249852 244.178543 
L 224.329325 244.299324 
L 228.408798 244.424815 
L 232.488271 244.542693 
L 236.567745 244.640636 
L 240.647218 244.706324 
L 244.726691 244.727433 
L 248.806164 244.691872 
L 252.885638 244.591663 
L 256.965111 244.422478 
L 261.044584 244.185057 
L 265.124057 243.887139 
L 269.203531 243.536995 
L 273.283004 243.142873 
L 277.362477 242.707595 
L 281.44195 242.221511 
L 285.521424 241.673222 
L 289.600897 241.051155 
L 293.68037 240.280478 
L 297.759843 239.233217 
L 301.839317 237.866564 
L 305.91879 236.141937 
L 309.998263 234.120453 
L 314.077736 232.115642 
L 318.157209 230.107816 
L 322.236683 228.03303 
L 326.316156 225.827341 
L 330.395629 223.429673 
L 334.475102 220.86234 
L 338.554576 218.188206 
L 342.634049 215.459338 
L 346.713522 212.727801 
L 350.792995 210.045689 
L 354.872469 207.465028 
L 358.951942 204.967618 
L 363.031415 202.443418 
L 367.110888 199.78192 
L 371.190362 196.885823 
L 375.269835 193.659829 
L 379.349308 190.00879 
L 383.428781 185.874423 
L 387.508255 181.366029 
L 391.587728 176.64997 
L 395.667201 171.892713 
L 399.746674 167.260726 
L 403.826148 162.911255 
L 407.905621 158.806582 
L 411.985094 154.629768 
L 416.064567 149.995193 
L 420.144041 144.564262 
L 424.223514 138.497604 
L 428.302987 131.929568 
L 432.38246 124.922839 
L 436.461934 117.540098 
L 440.541407 109.742908 
L 444.62088 100.584305 
L 448.700353 90.083621 
L 452.779827 79.509797 
L 456.8593 70.11468 
L 460.938773 62.144856 
L 465.018246 54.955968 
L 469.09772 47.872813 
" style="fill:none;stroke:#000000;stroke-dasharray:1.5,2.475;stroke-dashoffset:0;stroke-width:1.5;"/>
   </g>
   <g id="line2d_20">
    <path clip-path="url(#p0bcb4835dc)" d="M 65.229868 221.880097 
L 69.309341 222.163334 
L 73.388815 222.445439 
L 77.468288 222.726007 
L 81.547761 223.00463 
L 85.627234 223.280899 
L 89.706708 223.554408 
L 93.786181 223.824749 
L 97.865654 224.091514 
L 101.945127 224.354297 
L 106.024601 224.61269 
L 110.104074 224.866285 
L 114.183547 225.114675 
L 118.26302 225.357452 
L 122.342494 225.594209 
L 126.421967 225.824538 
L 130.50144 226.048032 
L 134.580913 226.264284 
L 138.660387 226.472886 
L 142.73986 226.673598 
L 146.819333 226.868353 
L 150.898806 227.05808 
L 154.97828 227.242922 
L 159.057753 227.423019 
L 163.137226 227.598513 
L 167.216699 227.769545 
L 171.296173 227.936257 
L 175.375646 228.098788 
L 179.455119 228.257281 
L 183.534592 228.411876 
L 187.614066 228.562716 
L 191.693539 228.70994 
L 195.773012 228.85369 
L 199.852485 228.994108 
L 203.931959 229.131335 
L 208.011432 229.265511 
L 212.090905 229.396778 
L 216.170378 229.525302 
L 220.249852 229.65128 
L 224.329325 229.771868 
L 228.408798 229.882814 
L 232.488271 229.979864 
L 236.567745 230.058765 
L 240.647218 230.115262 
L 244.726691 230.145102 
L 248.806164 230.144672 
L 252.885638 230.121812 
L 256.965111 230.093594 
L 261.044584 230.046244 
L 265.124057 229.921887 
L 269.203531 229.659308 
L 273.283004 229.197415 
L 277.362477 228.505862 
L 281.44195 227.624968 
L 285.521424 226.604946 
L 289.600897 225.495926 
L 293.68037 224.315363 
L 297.759843 222.992145 
L 301.839317 221.435798 
L 305.91879 219.555592 
L 309.998263 217.302581 
L 314.077736 214.799918 
L 318.157209 212.135828 
L 322.236683 209.3883 
L 326.316156 206.635321 
L 330.395629 203.95375 
L 334.475102 201.352136 
L 338.554576 198.738019 
L 342.634049 196.011375 
L 346.713522 193.072184 
L 350.792995 189.820512 
L 354.872469 186.169662 
L 358.951942 182.267579 
L 363.031415 178.541696 
L 367.110888 175.245219 
L 371.190362 172.158235 
L 375.269835 168.989185 
L 379.349308 165.450778 
L 383.428781 161.546155 
L 387.508255 157.425235 
L 391.587728 153.110244 
L 395.667201 148.623035 
L 399.746674 143.98546 
L 403.826148 139.19244 
L 407.905621 133.77846 
L 411.985094 127.532138 
L 416.064567 120.648266 
L 420.144041 113.356736 
L 424.223514 106.049321 
L 428.302987 98.751535 
L 432.38246 91.397451 
L 436.461934 83.92114 
L 440.541407 76.26222 
L 444.62088 68.415723 
L 448.700353 60.414974 
L 452.779827 52.299265 
L 456.8593 44.109234 
L 460.938773 35.907647 
L 465.018246 27.776884 
L 469.09772 19.8 
" style="fill:none;stroke:#000000;stroke-dasharray:1.5,2.475;stroke-dashoffset:0;stroke-width:1.5;"/>
   </g>
   <g id="patch_3">
    <path d="M 44.767091 284.4 
L 44.767091 7.2 
" style="fill:none;stroke:#000000;stroke-linecap:square;stroke-linejoin:miter;stroke-width:0.8;"/>
   </g>
   <g id="patch_4">
    <path d="M 491.167091 284.4 
L 491.167091 7.2 
" style="fill:none;stroke:#000000;stroke-linecap:square;stroke-linejoin:miter;stroke-width:0.8;"/>
   </g>
   <g id="patch_5">
    <path d="M 44.767091 284.4 
L 491.167091 284.4 
" style="fill:none;stroke:#000000;stroke-linecap:square;stroke-linejoin:miter;stroke-width:0.8;"/>
   </g>
   <g id="patch_6">
    <path d="M 44.767091 7.2 
L 491.167091 7.2 
" style="fill:none;stroke:#000000;stroke-linecap:square;stroke-linejoin:miter;stroke-width:0.8;"/>
   </g>
   <g id="legend_1">
    <g id="patch_7">
     <path d="M 51.767091 132.482491 
L 131.919846 132.482491 
Q 133.919846 132.482491 133.919846 130.482491 
L 133.919846 14.2 
Q 133.919846 12.2 131.919846 12.2 
L 51.767091 12.2 
Q 49.767091 12.2 49.767091 14.2 
L 49.767091 130.482491 
Q 49.767091 132.482491 51.767091 132.482491 
z
" style="fill:#ffffff;opacity:0.8;stroke:#cccccc;stroke-linejoin:miter;"/>
    </g>
    <g id="line2d_21">
     <path d="M 53.767091 20.298437 
L 73.767091 20.298437 
" style="fill:none;stroke:#000000;stroke-dasharray:1.5,2.475;stroke-dashoffset:0;stroke-width:1.5;"/>
    </g>
    <g id="line2d_22"/>
    <g id="text_16">
     <!-- cubic spline -->
     <g transform="translate(81.767091 23.798437)scale(0.1 -0.1)">
      <defs>
       <path d="M 38.5 39.6875 
C 38.5 40.390625 33.90625 42.390625 32.703125 42.796875 
C 29.40625 44 25.203125 44 24.09375 44 
C 11.09375 44 3.296875 32.6875 3.296875 21.296875 
C 3.296875 9.296875 12 -1 23.703125 -1 
C 30.40625 -1 35.203125 1.1875 39.09375 3.796875 
L 38.5 10.390625 
C 34.203125 7.09375 29.203125 5.296875 23.796875 5.296875 
C 16 5.296875 10.90625 12.09375 10.90625 21.390625 
C 10.90625 28.59375 14.203125 37.6875 24.203125 37.6875 
C 29.703125 37.6875 32.796875 36.59375 37.40625 33.484375 
z
" id="CMSS17-99"/>
       <path d="M 40.90625 43 
L 33.296875 43 
L 33.296875 15.25 
C 33.296875 7.8125 27.90625 4.796875 22.203125 4.796875 
C 15.59375 4.796875 15 7 15 11.125 
L 15 43 
L 7.40625 43 
L 7.40625 10.625 
C 7.40625 2.796875 10.09375 -1 17 -1 
C 20.40625 -1 28.09375 -0.203125 33.5 4.796875 
L 33.5 -0.203125 
L 40.90625 -0.203125 
z
" id="CMSS17-117"/>
       <path d="M 14.90625 69 
L 7.5 69 
L 7.5 -0.203125 
L 15.09375 -0.203125 
L 15.09375 4.296875 
C 18.90625 0.59375 23.5 -1 27.59375 -1 
C 37.203125 -1 45 8.734375 45 21.59375 
C 45 33.328125 39 44 30.09375 44 
C 23.796875 44 18.203125 41.390625 14.90625 38.6875 
z
M 15.09375 32.734375 
C 17.296875 35.5625 20.40625 37.890625 24.796875 37.890625 
C 30.703125 37.890625 37.40625 33.53125 37.40625 21.59375 
C 37.40625 8.84375 29.40625 5.09375 23.90625 5.09375 
C 21.90625 5.09375 19.796875 5.59375 17.796875 7.3125 
C 15.09375 9.75 15.09375 11.265625 15.09375 12.6875 
z
" id="CMSS17-98"/>
       <path d="M 15.296875 66 
L 6.90625 66 
L 6.90625 57.59375 
L 15.296875 57.59375 
z
M 14.796875 43 
L 7.40625 43 
L 7.40625 0 
L 14.796875 0 
z
" id="CMSS17-105"/>
       <path d="M 32.203125 40.984375 
C 26.296875 43.796875 21.703125 44 18.703125 44 
C 11.59375 44 3.09375 41.484375 3.09375 31.390625 
C 3.09375 21.296875 14.09375 19.09375 17.09375 18.484375 
C 21.703125 17.59375 26.796875 16.59375 26.796875 11.59375 
C 26.796875 5.296875 19.59375 5.296875 18.296875 5.296875 
C 14.296875 5.296875 8.796875 6.390625 3.796875 9.984375 
L 2.59375 3.296875 
C 8.296875 0 13.796875 -1 18.40625 -1 
C 30.703125 -1 33.796875 6.5 33.796875 12.1875 
C 33.796875 17.09375 31 20.390625 29.09375 21.890625 
C 25.796875 24.484375 24.59375 24.796875 16.40625 26.484375 
C 15 26.6875 10.09375 27.796875 10.09375 32.296875 
C 10.09375 37.984375 16.40625 37.984375 17.796875 37.984375 
C 24.296875 37.984375 28.296875 35.984375 31 34.484375 
z
" id="CMSS17-115"/>
       <path d="M 15.09375 4.296875 
C 18.40625 1.09375 22.90625 -1 27.703125 -1 
C 37 -1 45 8.640625 45 21.59375 
C 45 33.546875 39 44 30.40625 44 
C 25.40625 44 19.40625 42.1875 14.90625 38.59375 
L 14.90625 43.1875 
L 7.5 43.1875 
L 7.5 -20 
L 15.09375 -20 
z
M 15.09375 32.625 
C 15.90625 33.84375 19.296875 37.6875 24.796875 37.6875 
C 31.796875 37.6875 37.40625 30.40625 37.40625 21.59375 
C 37.40625 11.578125 30.59375 5.09375 23.90625 5.09375 
C 21.90625 5.09375 19.796875 5.59375 17.796875 7.3125 
C 15.09375 9.75 15.09375 11.265625 15.09375 12.6875 
z
" id="CMSS17-112"/>
       <path d="M 14.796875 69 
L 7.40625 69 
L 7.40625 0 
L 14.796875 0 
z
" id="CMSS17-108"/>
       <path d="M 40.90625 29.34375 
C 40.90625 35.671875 39.40625 44 28.09375 44 
C 21.703125 44 17.5 40.6875 14.703125 37.28125 
L 14.703125 43.484375 
L 7.40625 43.484375 
L 7.40625 0 
L 15 0 
L 15 24.3125 
C 15 30.65625 17.40625 37.890625 24.203125 37.890625 
C 33 37.890625 33.296875 31.953125 33.296875 28.53125 
L 33.296875 0 
L 40.90625 0 
z
" id="CMSS17-110"/>
       <path d="M 39.09375 21.484375 
C 39.09375 24.796875 38.90625 31.265625 35.703125 36.671875 
C 32.203125 42.390625 26.5 44 22.203125 44 
C 11.796875 44 3 34.125 3 21.296875 
C 3 9.046875 12.09375 -1 23.59375 -1 
C 28.09375 -1 33.59375 0.296875 38.59375 3.890625 
C 38.59375 4.296875 38.40625 6.46875 38.296875 6.578125 
C 38.296875 6.765625 38 9.828125 38 10.234375 
C 33.203125 6.375 27.703125 5.09375 23.703125 5.09375 
C 17.296875 5.09375 10.40625 10.421875 10.09375 21.484375 
z
M 10.90625 27 
C 12.203125 32.59375 16.59375 37.890625 22.203125 37.890625 
C 23.703125 37.890625 30.703125 37.6875 32.5 27 
z
" id="CMSS17-101"/>
      </defs>
      <use transform="scale(0.996264)" xlink:href="#CMSS17-99"/>
      <use transform="translate(41.638822 0)scale(0.996264)" xlink:href="#CMSS17-117"/>
      <use transform="translate(89.843765 0)scale(0.996264)" xlink:href="#CMSS17-98"/>
      <use transform="translate(138.048708 0)scale(0.996264)" xlink:href="#CMSS17-105"/>
      <use transform="translate(160.229431 0)scale(0.996264)" xlink:href="#CMSS17-99"/>
      <use transform="translate(233.097366 0)scale(0.996264)" xlink:href="#CMSS17-115"/>
      <use transform="translate(269.010908 0)scale(0.996264)" xlink:href="#CMSS17-112"/>
      <use transform="translate(317.215851 0)scale(0.996264)" xlink:href="#CMSS17-108"/>
      <use transform="translate(339.396574 0)scale(0.996264)" xlink:href="#CMSS17-105"/>
      <use transform="translate(361.577297 0)scale(0.996264)" xlink:href="#CMSS17-110"/>
      <use transform="translate(409.782241 0)scale(0.996264)" xlink:href="#CMSS17-101"/>
     </g>
    </g>
    <g id="PathCollection_8">
     <g>
      <use style="stroke:#000000;stroke-width:1.5;" x="63.767091" xlink:href="#m99a8065431" y="35.851562"/>
     </g>
    </g>
    <g id="text_17">
     <!-- $\alpha=0^\circ$ -->
     <g transform="translate(81.767091 38.476562)scale(0.1 -0.1)">
      <defs>
       <path d="M 46.296875 25.234375 
C 46.296875 34.90625 40.796875 44 30.203125 44 
C 17.09375 44 4 29.71875 4 15.5625 
C 4 6.875 9.40625 -1 19.59375 -1 
C 25.796875 -1 33.203125 1.390625 40.296875 7.375 
C 41.703125 1.796875 44.796875 -1 49.09375 -1 
C 54.5 -1 57.203125 4.578125 57.203125 5.875 
C 57.203125 6.78125 56.5 6.78125 56.203125 6.78125 
C 55.40625 6.78125 55.296875 6.484375 55 5.6875 
C 54.09375 3.1875 51.796875 1 49.40625 1 
C 46.296875 1 46.296875 7.375 46.296875 13.46875 
C 56.5 25.640625 58.90625 38.203125 58.90625 38.296875 
C 58.90625 39.203125 58.09375 39.203125 57.796875 39.203125 
C 56.90625 39.203125 56.796875 38.90625 56.40625 37.109375 
C 55.09375 32.71875 52.5 24.9375 46.296875 16.75 
z
M 40 9.765625 
C 31.203125 1.890625 23.296875 1 19.796875 1 
C 12.703125 1 10.703125 7.28125 10.703125 11.96875 
C 10.703125 16.25 12.90625 26.4375 16 31.921875 
C 20.09375 38.90625 25.703125 41.984375 30.203125 41.984375 
C 39.90625 41.984375 39.90625 29.328125 39.90625 20.9375 
C 39.90625 18.453125 39.796875 15.859375 39.796875 13.359375 
C 39.796875 11.375 39.90625 10.875 40 9.765625 
z
" id="CMMI12-11"/>
       <path d="M 64.296875 32 
C 65.796875 32 67.296875 32 67.296875 33.6875 
C 67.296875 35.5 65.59375 35.5 63.90625 35.5 
L 8 35.5 
C 6.296875 35.5 4.59375 35.5 4.59375 33.6875 
C 4.59375 32 6.09375 32 7.59375 32 
z
M 63.90625 14.484375 
C 65.59375 14.484375 67.296875 14.484375 67.296875 16.296875 
C 67.296875 18 65.796875 18 64.296875 18 
L 7.59375 18 
C 6.09375 18 4.59375 18 4.59375 16.296875 
C 4.59375 14.484375 6.296875 14.484375 8 14.484375 
z
" id="CMR17-61"/>
       <path d="M 44.40625 24.984375 
C 44.40625 35.40625 35.5 44 25 44 
C 14.203125 44 5.5 35.21875 5.5 24.984375 
C 5.5 14.671875 14.203125 5.984375 25 5.984375 
C 35.5 5.984375 44.40625 14.5625 44.40625 24.984375 
z
M 25 10 
C 16.296875 10 9.5 16.8125 9.5 24.984375 
C 9.5 33.171875 16.40625 40 25 40 
C 33.296875 40 40.40625 33.375 40.40625 24.984375 
C 40.40625 16.609375 33.296875 10 25 10 
z
" id="CMSY10-14"/>
      </defs>
      <use transform="scale(0.996264)" xlink:href="#CMMI12-11"/>
      <use transform="translate(90.355032 0)scale(0.996264)" xlink:href="#CMR17-61"/>
      <use transform="translate(189.743829 0)scale(0.996264)" xlink:href="#CMR17-48"/>
      <use transform="translate(235.434306 36.153639)scale(0.697382)" xlink:href="#CMSY10-14"/>
     </g>
    </g>
    <g id="PathCollection_9">
     <g>
      <use style="stroke:#000000;" x="63.767091" xlink:href="#m203b19aaed" y="50.529687"/>
     </g>
    </g>
    <g id="text_18">
     <!-- $\alpha=1^\circ$ -->
     <g transform="translate(81.767091 53.154687)scale(0.1 -0.1)">
      <use transform="scale(0.996264)" xlink:href="#CMMI12-11"/>
      <use transform="translate(90.355032 0)scale(0.996264)" xlink:href="#CMR17-61"/>
      <use transform="translate(189.743829 0)scale(0.996264)" xlink:href="#CMR17-49"/>
      <use transform="translate(235.434306 36.153639)scale(0.697382)" xlink:href="#CMSY10-14"/>
     </g>
    </g>
    <g id="PathCollection_10">
     <g>
      <use style="stroke:#000000;" x="63.767091" xlink:href="#m7669b25582" y="65.207812"/>
     </g>
    </g>
    <g id="text_19">
     <!-- $\alpha=2^\circ$ -->
     <g transform="translate(81.767091 67.832812)scale(0.1 -0.1)">
      <use transform="scale(0.996264)" xlink:href="#CMMI12-11"/>
      <use transform="translate(90.355032 0)scale(0.996264)" xlink:href="#CMR17-61"/>
      <use transform="translate(189.743829 0)scale(0.996264)" xlink:href="#CMR17-50"/>
      <use transform="translate(235.434306 36.153639)scale(0.697382)" xlink:href="#CMSY10-14"/>
     </g>
    </g>
    <g id="PathCollection_11">
     <g>
      <use style="stroke:#000000;stroke-width:1.5;" x="63.767091" xlink:href="#m9111d14f32" y="79.885937"/>
     </g>
    </g>
    <g id="text_20">
     <!-- $\alpha=3^\circ$ -->
     <g transform="translate(81.767091 82.510937)scale(0.1 -0.1)">
      <defs>
       <path d="M 22.09375 34 
C 31 34 34.90625 26.140625 34.90625 17.09375 
C 34.90625 5.03125 28.5 0.390625 22.703125 0.390625 
C 17.40625 0.390625 8.796875 3.015625 6.09375 10.796875 
C 6.59375 10.59375 7.09375 10.59375 7.59375 10.59375 
C 10 10.59375 11.796875 12.1875 11.796875 14.796875 
C 11.796875 17.6875 9.59375 19 7.59375 19 
C 5.90625 19 3.296875 18.1875 3.296875 14.484375 
C 3.296875 5.234375 12.296875 -2 22.90625 -2 
C 34 -2 42.5 6.75 42.5 16.984375 
C 42.5 26.84375 34.5 34 25 35.09375 
C 32.59375 36.671875 39.90625 43.375 39.90625 52.390625 
C 39.90625 60.25 32 66 23 66 
C 13.90625 66 5.90625 60.34375 5.90625 52.296875 
C 5.90625 48.796875 8.5 48.1875 9.796875 48.1875 
C 11.90625 48.1875 13.703125 49.484375 13.703125 52.09375 
C 13.703125 54.6875 11.90625 56 9.796875 56 
C 9.40625 56 8.90625 56 8.5 55.796875 
C 11.40625 62.484375 19.296875 63.6875 22.796875 63.6875 
C 26.296875 63.6875 32.90625 61.96875 32.90625 52.296875 
C 32.90625 49.484375 32.5 44.546875 29.09375 40.21875 
C 26.09375 36.390625 22.703125 36.1875 19.40625 35.890625 
C 18.90625 35.890625 16.59375 35.6875 16.203125 35.6875 
C 15.5 35.59375 15.09375 35.5 15.09375 34.796875 
C 15.09375 34.09375 15.203125 34 17.203125 34 
z
" id="CMR17-51"/>
      </defs>
      <use transform="scale(0.996264)" xlink:href="#CMMI12-11"/>
      <use transform="translate(90.355032 0)scale(0.996264)" xlink:href="#CMR17-61"/>
      <use transform="translate(189.743829 0)scale(0.996264)" xlink:href="#CMR17-51"/>
      <use transform="translate(235.434306 36.153639)scale(0.697382)" xlink:href="#CMSY10-14"/>
     </g>
    </g>
    <g id="PathCollection_12">
     <g>
      <use style="stroke:#000000;" x="63.767091" xlink:href="#m55adeb1919" y="94.564062"/>
     </g>
    </g>
    <g id="text_21">
     <!-- $\alpha=4^\circ$ -->
     <g transform="translate(81.767091 97.189062)scale(0.1 -0.1)">
      <use transform="scale(0.996264)" xlink:href="#CMMI12-11"/>
      <use transform="translate(90.355032 0)scale(0.996264)" xlink:href="#CMR17-61"/>
      <use transform="translate(189.743829 0)scale(0.996264)" xlink:href="#CMR17-52"/>
      <use transform="translate(235.434306 36.153639)scale(0.697382)" xlink:href="#CMSY10-14"/>
     </g>
    </g>
    <g id="PathCollection_13">
     <g>
      <use style="stroke:#000000;" x="63.767091" xlink:href="#m80ffc63ba4" y="109.242187"/>
     </g>
    </g>
    <g id="text_22">
     <!-- $\alpha=5^\circ$ -->
     <g transform="translate(81.767091 111.867187)scale(0.1 -0.1)">
      <use transform="scale(0.996264)" xlink:href="#CMMI12-11"/>
      <use transform="translate(90.355032 0)scale(0.996264)" xlink:href="#CMR17-61"/>
      <use transform="translate(189.743829 0)scale(0.996264)" xlink:href="#CMR17-53"/>
      <use transform="translate(235.434306 36.153639)scale(0.697382)" xlink:href="#CMSY10-14"/>
     </g>
    </g>
    <g id="PathCollection_14">
     <g>
      <use style="stroke:#000000;" x="63.767091" xlink:href="#m30635f671b" y="123.920312"/>
     </g>
    </g>
    <g id="text_23">
     <!-- $\alpha=6^\circ$ -->
     <g transform="translate(81.767091 126.545312)scale(0.1 -0.1)">
      <use transform="scale(0.996264)" xlink:href="#CMMI12-11"/>
      <use transform="translate(90.355032 0)scale(0.996264)" xlink:href="#CMR17-61"/>
      <use transform="translate(189.743829 0)scale(0.996264)" xlink:href="#CMR17-54"/>
      <use transform="translate(235.434306 36.153639)scale(0.697382)" xlink:href="#CMSY10-14"/>
     </g>
    </g>
   </g>
  </g>
 </g>
 <defs>
  <clipPath id="p0bcb4835dc">
   <rect height="277.2" width="446.4" x="44.767091" y="7.2"/>
  </clipPath>
 </defs>
</svg>
