<?xml version="1.0" encoding="utf-8" standalone="no"?>
<!DOCTYPE svg PUBLIC "-//W3C//DTD SVG 1.1//EN"
  "http://www.w3.org/Graphics/SVG/1.1/DTD/svg11.dtd">
<!-- Created with matplotlib (https://matplotlib.org/) -->
<svg height="341.116871pt" version="1.1" viewBox="0 0 509.880936 341.116871" width="509.880936pt" xmlns="http://www.w3.org/2000/svg" xmlns:xlink="http://www.w3.org/1999/xlink">
 <defs>
  <style type="text/css">
*{stroke-linecap:butt;stroke-linejoin:round;}
  </style>
 </defs>
 <g id="figure_1">
  <g id="patch_1">
   <path d="M 0 341.116871 
L 509.880936 341.116871 
L 509.880936 0 
L 0 0 
z
" style="fill:#ffffff;"/>
  </g>
  <g id="axes_1">
   <g id="patch_2">
    <path d="M 56.280936 300.777725 
L 502.680936 300.777725 
L 502.680936 23.577725 
L 56.280936 23.577725 
z
" style="fill:#ffffff;"/>
   </g>
   <g id="PathCollection_1">
    <defs>
     <path d="M -3.872983 3.872983 
L 3.872983 -3.872983 
M -3.872983 -3.872983 
L 3.872983 3.872983 
" id="m9ec7428845" style="stroke:#000000;stroke-width:1.5;"/>
    </defs>
    <g clip-path="url(#p5868373b53)">
     <use style="stroke:#000000;stroke-width:1.5;" x="80.613155" xlink:href="#m9ec7428845" y="274.474972"/>
     <use style="stroke:#000000;stroke-width:1.5;" x="154.153552" xlink:href="#m9ec7428845" y="274.733913"/>
     <use style="stroke:#000000;stroke-width:1.5;" x="228.107388" xlink:href="#m9ec7428845" y="274.992855"/>
     <use style="stroke:#000000;stroke-width:1.5;" x="264.667175" xlink:href="#m9ec7428845" y="275.588603"/>
     <use style="stroke:#000000;stroke-width:1.5;" x="316.590638" xlink:href="#m9ec7428845" y="276.792773"/>
     <use style="stroke:#000000;stroke-width:1.5;" x="338.621011" xlink:href="#m9ec7428845" y="274.500322"/>
     <use style="stroke:#000000;stroke-width:1.5;" x="361.485644" xlink:href="#m9ec7428845" y="270.138148"/>
     <use style="stroke:#000000;stroke-width:1.5;" x="376.04459" xlink:href="#m9ec7428845" y="264.953877"/>
     <use style="stroke:#000000;stroke-width:1.5;" x="390.197481" xlink:href="#m9ec7428845" y="256.146232"/>
     <use style="stroke:#000000;stroke-width:1.5;" x="411.910392" xlink:href="#m9ec7428845" y="221.15105"/>
     <use style="stroke:#000000;stroke-width:1.5;" x="427.355278" xlink:href="#m9ec7428845" y="197.853523"/>
     <use style="stroke:#000000;stroke-width:1.5;" x="448.639985" xlink:href="#m9ec7428845" y="169.170729"/>
     <use style="stroke:#000000;stroke-width:1.5;" x="456.982586" xlink:href="#m9ec7428845" y="158.505221"/>
     <use style="stroke:#000000;stroke-width:1.5;" x="464.911748" xlink:href="#m9ec7428845" y="147.012184"/>
     <use style="stroke:#000000;stroke-width:1.5;" x="479.507609" xlink:href="#m9ec7428845" y="128.58023"/>
    </g>
   </g>
   <g id="PathCollection_2">
    <defs>
     <path d="M -3.872983 -0 
L 3.872983 3.872983 
L 3.872983 -3.872983 
z
" id="m2f85ca5bbd" style="stroke:#000000;"/>
    </defs>
    <g clip-path="url(#p5868373b53)">
     <use style="stroke:#000000;" x="390.300841" xlink:href="#m2f85ca5bbd" y="253.292438"/>
     <use style="stroke:#000000;" x="412.080197" xlink:href="#m2f85ca5bbd" y="219.816503"/>
     <use style="stroke:#000000;" x="429.068095" xlink:href="#m2f85ca5bbd" y="195.329292"/>
     <use style="stroke:#000000;" x="452.397847" xlink:href="#m2f85ca5bbd" y="165.500273"/>
     <use style="stroke:#000000;" x="466.727925" xlink:href="#m2f85ca5bbd" y="144.527791"/>
     <use style="stroke:#000000;" x="480.009641" xlink:href="#m2f85ca5bbd" y="124.859072"/>
    </g>
   </g>
   <g id="PathCollection_3">
    <defs>
     <path d="M 3.872983 0 
L -3.872983 -3.872983 
L -3.872983 3.872983 
z
" id="me7f59b66bd" style="stroke:#000000;"/>
    </defs>
    <g clip-path="url(#p5868373b53)">
     <use style="stroke:#000000;" x="80.487646" xlink:href="#me7f59b66bd" y="270.900487"/>
     <use style="stroke:#000000;" x="155.231445" xlink:href="#me7f59b66bd" y="270.940324"/>
     <use style="stroke:#000000;" x="228.727545" xlink:href="#me7f59b66bd" y="271.085187"/>
     <use style="stroke:#000000;" x="265.678623" xlink:href="#me7f59b66bd" y="271.364047"/>
     <use style="stroke:#000000;" x="303.04314" xlink:href="#me7f59b66bd" y="273.506203"/>
     <use style="stroke:#000000;" x="317.159116" xlink:href="#me7f59b66bd" y="273.080669"/>
     <use style="stroke:#000000;" x="340.016367" xlink:href="#me7f59b66bd" y="268.919491"/>
     <use style="stroke:#000000;" x="360.799041" xlink:href="#me7f59b66bd" y="263.724356"/>
     <use style="stroke:#000000;" x="376.192247" xlink:href="#me7f59b66bd" y="258.223199"/>
     <use style="stroke:#000000;" x="392.013658" xlink:href="#me7f59b66bd" y="247.338586"/>
     <use style="stroke:#000000;" x="412.92184" xlink:href="#me7f59b66bd" y="216.258316"/>
     <use style="stroke:#000000;" x="427.547232" xlink:href="#me7f59b66bd" y="195.019649"/>
     <use style="stroke:#000000;" x="450.109169" xlink:href="#me7f59b66bd" y="164.870121"/>
     <use style="stroke:#000000;" x="465.17753" xlink:href="#me7f59b66bd" y="138.247997"/>
     <use style="stroke:#000000;" x="479.802922" xlink:href="#me7f59b66bd" y="118.457956"/>
    </g>
   </g>
   <g id="PathCollection_4">
    <defs>
     <path d="M -3.872983 0 
L 3.872983 0 
M 0 3.872983 
L 0 -3.872983 
" id="mdb4aa644ef" style="stroke:#000000;stroke-width:1.5;"/>
    </defs>
    <g clip-path="url(#p5868373b53)">
     <use style="stroke:#000000;stroke-width:1.5;" x="78.309711" xlink:href="#mdb4aa644ef" y="268.039451"/>
     <use style="stroke:#000000;stroke-width:1.5;" x="153.090424" xlink:href="#mdb4aa644ef" y="268.104639"/>
     <use style="stroke:#000000;stroke-width:1.5;" x="226.903986" xlink:href="#mdb4aa644ef" y="266.366288"/>
     <use style="stroke:#000000;stroke-width:1.5;" x="264.777918" xlink:href="#mdb4aa644ef" y="267.916318"/>
     <use style="stroke:#000000;stroke-width:1.5;" x="301.677316" xlink:href="#mdb4aa644ef" y="267.662808"/>
     <use style="stroke:#000000;stroke-width:1.5;" x="315.859738" xlink:href="#mdb4aa644ef" y="265.444599"/>
     <use style="stroke:#000000;stroke-width:1.5;" x="339.278083" xlink:href="#mdb4aa644ef" y="261.913574"/>
     <use style="stroke:#000000;stroke-width:1.5;" x="362.393733" xlink:href="#mdb4aa644ef" y="254.529203"/>
     <use style="stroke:#000000;stroke-width:1.5;" x="375.933848" xlink:href="#mdb4aa644ef" y="250.344485"/>
     <use style="stroke:#000000;stroke-width:1.5;" x="378.599051" xlink:href="#mdb4aa644ef" y="245.669044"/>
     <use style="stroke:#000000;stroke-width:1.5;" x="390.832404" xlink:href="#mdb4aa644ef" y="240.582556"/>
     <use style="stroke:#000000;stroke-width:1.5;" x="410.832498" xlink:href="#mdb4aa644ef" y="209.254209"/>
     <use style="stroke:#000000;stroke-width:1.5;" x="419.499944" xlink:href="#mdb4aa644ef" y="195.722232"/>
     <use style="stroke:#000000;stroke-width:1.5;" x="428.137858" xlink:href="#mdb4aa644ef" y="185.634363"/>
     <use style="stroke:#000000;stroke-width:1.5;" x="479.470695" xlink:href="#mdb4aa644ef" y="106.903353"/>
    </g>
   </g>
   <g id="PathCollection_5">
    <defs>
     <path d="M 0 3.872983 
C 1.027127 3.872983 2.012324 3.464901 2.738613 2.738613 
C 3.464901 2.012324 3.872983 1.027127 3.872983 0 
C 3.872983 -1.027127 3.464901 -2.012324 2.738613 -2.738613 
C 2.012324 -3.464901 1.027127 -3.872983 0 -3.872983 
C -1.027127 -3.872983 -2.012324 -3.464901 -2.738613 -2.738613 
C -3.464901 -2.012324 -3.872983 -1.027127 -3.872983 0 
C -3.872983 1.027127 -3.464901 2.012324 -2.738613 2.738613 
C -2.012324 3.464901 -1.027127 3.872983 0 3.872983 
z
" id="m7b9e5a1d95" style="stroke:#000000;"/>
    </defs>
    <g clip-path="url(#p5868373b53)">
     <use style="stroke:#000000;" x="81.07089" xlink:href="#m7b9e5a1d95" y="259.718905"/>
     <use style="stroke:#000000;" x="154.67035" xlink:href="#m7b9e5a1d95" y="259.874633"/>
     <use style="stroke:#000000;" x="229.259109" xlink:href="#m7b9e5a1d95" y="259.948875"/>
     <use style="stroke:#000000;" x="266.874642" xlink:href="#m7b9e5a1d95" y="261.748793"/>
     <use style="stroke:#000000;" x="301.86927" xlink:href="#m7b9e5a1d95" y="259.121347"/>
     <use style="stroke:#000000;" x="316.066457" xlink:href="#m7b9e5a1d95" y="256.332742"/>
     <use style="stroke:#000000;" x="339.86871" xlink:href="#m7b9e5a1d95" y="246.739217"/>
     <use style="stroke:#000000;" x="362.666897" xlink:href="#m7b9e5a1d95" y="239.276982"/>
     <use style="stroke:#000000;" x="377.875533" xlink:href="#m7b9e5a1d95" y="231.733263"/>
     <use style="stroke:#000000;" x="391.112952" xlink:href="#m7b9e5a1d95" y="221.813796"/>
     <use style="stroke:#000000;" x="413.660123" xlink:href="#m7b9e5a1d95" y="195.495884"/>
     <use style="stroke:#000000;" x="427.931139" xlink:href="#m7b9e5a1d95" y="173.279395"/>
     <use style="stroke:#000000;" x="449.496394" xlink:href="#m7b9e5a1d95" y="142.784007"/>
     <use style="stroke:#000000;" x="465.443312" xlink:href="#m7b9e5a1d95" y="115.401355"/>
     <use style="stroke:#000000;" x="479.404249" xlink:href="#m7b9e5a1d95" y="89.988834"/>
    </g>
   </g>
   <g id="PathCollection_6">
    <defs>
     <path d="M 0 -3.872983 
L -0.869539 -1.196818 
L -3.683426 -1.196818 
L -1.406944 0.457144 
L -2.276482 3.133309 
L -0 1.479348 
L 2.276482 3.133309 
L 1.406944 0.457144 
L 3.683426 -1.196818 
L 0.869539 -1.196818 
z
" id="m9249bc9f85" style="stroke:#000000;"/>
    </defs>
    <g clip-path="url(#p5868373b53)">
     <use style="stroke:#000000;" x="80.78296" xlink:href="#m9249bc9f85" y="247.016267"/>
     <use style="stroke:#000000;" x="154.271677" xlink:href="#m9249bc9f85" y="249.283366"/>
     <use style="stroke:#000000;" x="230.071221" xlink:href="#m9249bc9f85" y="250.561779"/>
     <use style="stroke:#000000;" x="267.635074" xlink:href="#m9249bc9f85" y="251.612032"/>
     <use style="stroke:#000000;" x="303.582087" xlink:href="#m9249bc9f85" y="247.573988"/>
     <use style="stroke:#000000;" x="316.797358" xlink:href="#m9249bc9f85" y="241.741457"/>
     <use style="stroke:#000000;" x="340.577462" xlink:href="#m9249bc9f85" y="231.470699"/>
     <use style="stroke:#000000;" x="363.390415" xlink:href="#m9249bc9f85" y="217.096708"/>
     <use style="stroke:#000000;" x="376.93053" xlink:href="#m9249bc9f85" y="212.412214"/>
     <use style="stroke:#000000;" x="391.821704" xlink:href="#m9249bc9f85" y="200.423023"/>
     <use style="stroke:#000000;" x="411.718438" xlink:href="#m9249bc9f85" y="176.940797"/>
     <use style="stroke:#000000;" x="427.96067" xlink:href="#m9249bc9f85" y="158.465383"/>
     <use style="stroke:#000000;" x="449.895067" xlink:href="#m9249bc9f85" y="121.275534"/>
     <use style="stroke:#000000;" x="464.874834" xlink:href="#m9249bc9f85" y="92.542038"/>
     <use style="stroke:#000000;" x="478.843154" xlink:href="#m9249bc9f85" y="67.256272"/>
    </g>
   </g>
   <g id="PathCollection_7">
    <defs>
     <path d="M 0 -3.872983 
L -3.872983 3.872983 
L 3.872983 3.872983 
z
" id="m704a040613" style="stroke:#000000;"/>
    </defs>
    <g clip-path="url(#p5868373b53)">
     <use style="stroke:#000000;" x="80.901085" xlink:href="#m704a040613" y="229.808401"/>
     <use style="stroke:#000000;" x="154.028044" xlink:href="#m704a040613" y="234.119874"/>
     <use style="stroke:#000000;" x="229.790673" xlink:href="#m704a040613" y="235.883576"/>
     <use style="stroke:#000000;" x="266.357844" xlink:href="#m704a040613" y="237.99857"/>
     <use style="stroke:#000000;" x="302.932398" xlink:href="#m704a040613" y="233.708826"/>
     <use style="stroke:#000000;" x="317.114819" xlink:href="#m704a040613" y="227.132064"/>
     <use style="stroke:#000000;" x="340.540548" xlink:href="#m704a040613" y="212.915612"/>
     <use style="stroke:#000000;" x="360.998377" xlink:href="#m704a040613" y="200.589615"/>
     <use style="stroke:#000000;" x="377.174164" xlink:href="#m704a040613" y="189.659733"/>
     <use style="stroke:#000000;" x="392.360651" xlink:href="#m704a040613" y="175.776464"/>
     <use style="stroke:#000000;" x="411.533868" xlink:href="#m704a040613" y="150.231756"/>
     <use style="stroke:#000000;" x="426.73512" xlink:href="#m704a040613" y="131.832395"/>
     <use style="stroke:#000000;" x="447.569474" xlink:href="#m704a040613" y="98.651618"/>
     <use style="stroke:#000000;" x="465.118468" xlink:href="#m704a040613" y="63.337738"/>
     <use style="stroke:#000000;" x="479.352569" xlink:href="#m704a040613" y="37.715167"/>
    </g>
   </g>
   <g id="matplotlib.axis_1">
    <g id="xtick_1">
     <g id="line2d_1">
      <defs>
       <path d="M 0 0 
L 0 3.5 
" id="m67e1108b1f" style="stroke:#000000;stroke-width:0.8;"/>
      </defs>
      <g>
       <use style="stroke:#000000;stroke-width:0.8;" x="79.217799" xlink:href="#m67e1108b1f" y="300.777725"/>
      </g>
     </g>
     <g id="text_1">
      <!-- $0.4$ -->
      <defs>
       <path d="M 42 31.84375 
C 42 37.96875 41.90625 48.421875 37.703125 56.453125 
C 34 63.484375 28.09375 66 22.90625 66 
C 18.09375 66 12 63.78125 8.203125 56.5625 
C 4.203125 49.015625 3.796875 39.671875 3.796875 31.84375 
C 3.796875 26.109375 3.90625 17.375 7 9.734375 
C 11.296875 -0.609375 19 -2 22.90625 -2 
C 27.5 -2 34.5 -0.109375 38.59375 9.4375 
C 41.59375 16.375 42 24.5 42 31.84375 
z
M 22.90625 -0.40625 
C 16.5 -0.40625 12.703125 5.125 11.296875 12.75 
C 10.203125 18.6875 10.203125 27.328125 10.203125 32.953125 
C 10.203125 40.6875 10.203125 47.109375 11.5 53.234375 
C 13.40625 61.78125 19 64.390625 22.90625 64.390625 
C 27 64.390625 32.296875 61.671875 34.203125 53.4375 
C 35.5 47.71875 35.59375 40.984375 35.59375 32.953125 
C 35.59375 26.421875 35.59375 18.375 34.40625 12.453125 
C 32.296875 1.5 26.40625 -0.40625 22.90625 -0.40625 
z
" id="CMR17-48"/>
       <path d="M 18.40625 4.796875 
C 18.40625 7.6875 16 9.6875 13.59375 9.6875 
C 10.703125 9.6875 8.703125 7.296875 8.703125 4.890625 
C 8.703125 2 11.09375 0 13.5 0 
C 16.40625 0 18.40625 2.390625 18.40625 4.796875 
z
" id="CMMI12-58"/>
       <path d="M 33.59375 64.796875 
C 33.59375 66.890625 33.5 67 31.703125 67 
L 2 19.59375 
L 2 17 
L 27.796875 17 
L 27.796875 7.1875 
C 27.796875 3.59375 27.59375 2.59375 20.59375 2.59375 
L 18.703125 2.59375 
L 18.703125 0 
C 21.90625 0.1875 27.296875 0.1875 30.703125 0.1875 
C 34.09375 0.1875 39.5 0.1875 42.703125 0 
L 42.703125 2.59375 
L 40.796875 2.59375 
C 33.796875 2.59375 33.59375 3.59375 33.59375 7.1875 
L 33.59375 17 
L 43.796875 17 
L 43.796875 19.59375 
L 33.59375 19.59375 
z
M 28.09375 58.171875 
L 28.09375 19.59375 
L 4 19.59375 
z
" id="CMR17-52"/>
      </defs>
      <g transform="translate(72.85276 314.696223)scale(0.1 -0.1)">
       <use transform="scale(0.996264)" xlink:href="#CMR17-48"/>
       <use transform="translate(45.690477 0)scale(0.996264)" xlink:href="#CMMI12-58"/>
       <use transform="translate(72.787654 0)scale(0.996264)" xlink:href="#CMR17-52"/>
      </g>
     </g>
    </g>
    <g id="xtick_2">
     <g id="line2d_2">
      <g>
       <use style="stroke:#000000;stroke-width:0.8;" x="153.046127" xlink:href="#m67e1108b1f" y="300.777725"/>
      </g>
     </g>
     <g id="text_2">
      <!-- $0.5$ -->
      <defs>
       <path d="M 11.40625 58.59375 
C 12.40625 58.1875 16.5 56.890625 20.703125 56.890625 
C 30 56.890625 35.09375 61.890625 38 64.6875 
C 38 65.484375 38 66 37.40625 66 
C 37.296875 66 37.09375 66 36.296875 65.59375 
C 32.796875 64.09375 28.703125 63 23.703125 63 
C 20.703125 63 16.203125 63.359375 11.296875 65.484375 
C 10.203125 66 10 66 9.90625 66 
C 9.40625 66 9.296875 65.890625 9.296875 63.90625 
L 9.296875 34.859375 
C 9.296875 33.015625 9.296875 32.5 10.296875 32.5 
C 10.796875 32.5 11 32.703125 11.5 33.421875 
C 14.703125 38.046875 19.09375 40 24.09375 40 
C 27.59375 40 35.09375 37.734375 35.09375 20.203125 
C 35.09375 16.984375 35.09375 11.1875 32.09375 6.59375 
C 29.59375 2.484375 25.703125 0.390625 21.40625 0.390625 
C 14.796875 0.390625 8.09375 4.984375 6.296875 12.6875 
C 6.703125 12.59375 7.5 12.390625 7.90625 12.390625 
C 9.203125 12.390625 11.703125 13.09375 11.703125 16.1875 
C 11.703125 18.890625 9.796875 20 7.90625 20 
C 5.59375 20 4.09375 18.59375 4.09375 15.796875 
C 4.09375 7.09375 11 -2 21.59375 -2 
C 31.90625 -2 41.703125 6.890625 41.703125 19.796875 
C 41.703125 32.09375 33.90625 41.59375 24.203125 41.59375 
C 19.09375 41.59375 14.796875 39.6875 11.40625 36 
z
" id="CMR17-53"/>
      </defs>
      <g transform="translate(146.681087 314.696223)scale(0.1 -0.1)">
       <use transform="scale(0.996264)" xlink:href="#CMR17-48"/>
       <use transform="translate(45.690477 0)scale(0.996264)" xlink:href="#CMMI12-58"/>
       <use transform="translate(72.787654 0)scale(0.996264)" xlink:href="#CMR17-53"/>
      </g>
     </g>
    </g>
    <g id="xtick_3">
     <g id="line2d_3">
      <g>
       <use style="stroke:#000000;stroke-width:0.8;" x="226.874454" xlink:href="#m67e1108b1f" y="300.777725"/>
      </g>
     </g>
     <g id="text_3">
      <!-- $0.6$ -->
      <defs>
       <path d="M 10.59375 34.34375 
C 10.59375 58 21.796875 63.6875 28.296875 63.6875 
C 30.40625 63.6875 35.5 63.265625 37.5 59.09375 
C 35.90625 59.09375 32.90625 59.09375 32.90625 55.59375 
C 32.90625 52.890625 35.09375 52 36.5 52 
C 37.40625 52 40.09375 52.390625 40.09375 55.796875 
C 40.09375 62.296875 35.09375 66 28.203125 66 
C 16.296875 66 3.796875 53.296875 3.796875 31.421875 
C 3.796875 4.015625 15.09375 -2 23.09375 -2 
C 32.796875 -2 42 6.734375 42 20.234375 
C 42 32.828125 33.90625 42 23.703125 42 
C 17.59375 42 13.09375 37.96875 10.59375 30.921875 
z
M 23.09375 0.390625 
C 10.796875 0.390625 10.796875 18.9375 10.796875 22.65625 
C 10.796875 29.90625 14.203125 40.390625 23.5 40.390625 
C 25.203125 40.390625 30.09375 40.390625 33.40625 33.4375 
C 35.203125 29.515625 35.203125 25.375 35.203125 20.34375 
C 35.203125 14.90625 35.203125 10.875 33.09375 6.84375 
C 30.90625 2.703125 27.703125 0.390625 23.09375 0.390625 
z
" id="CMR17-54"/>
      </defs>
      <g transform="translate(220.509415 314.696223)scale(0.1 -0.1)">
       <use transform="scale(0.996264)" xlink:href="#CMR17-48"/>
       <use transform="translate(45.690477 0)scale(0.996264)" xlink:href="#CMMI12-58"/>
       <use transform="translate(72.787654 0)scale(0.996264)" xlink:href="#CMR17-54"/>
      </g>
     </g>
    </g>
    <g id="xtick_4">
     <g id="line2d_4">
      <g>
       <use style="stroke:#000000;stroke-width:0.8;" x="300.702782" xlink:href="#m67e1108b1f" y="300.777725"/>
      </g>
     </g>
     <g id="text_4">
      <!-- $0.7$ -->
      <defs>
       <path d="M 45.09375 61.796875 
L 45.09375 64 
L 21.59375 64 
C 9.90625 64 9.703125 65.09375 9.296875 67 
L 7.5 67 
L 4.59375 48.5 
L 6.40625 48.5 
C 6.703125 50.40625 7.40625 55.5 8.59375 57.390625 
C 9.203125 58.1875 16.59375 58.1875 18.296875 58.1875 
L 40.296875 58.1875 
L 29.203125 41.71875 
C 21.796875 30.640625 16.703125 15.671875 16.703125 2.59375 
C 16.703125 1.390625 16.703125 -2 20.296875 -2 
C 23.90625 -2 23.90625 1.390625 23.90625 2.6875 
L 23.90625 7.28125 
C 23.90625 23.65625 26.703125 34.4375 31.296875 41.3125 
z
" id="CMR17-55"/>
      </defs>
      <g transform="translate(294.337743 314.696223)scale(0.1 -0.1)">
       <use transform="scale(0.996264)" xlink:href="#CMR17-48"/>
       <use transform="translate(45.690477 0)scale(0.996264)" xlink:href="#CMMI12-58"/>
       <use transform="translate(72.787654 0)scale(0.996264)" xlink:href="#CMR17-55"/>
      </g>
     </g>
    </g>
    <g id="xtick_5">
     <g id="line2d_5">
      <g>
       <use style="stroke:#000000;stroke-width:0.8;" x="374.53111" xlink:href="#m67e1108b1f" y="300.777725"/>
      </g>
     </g>
     <g id="text_5">
      <!-- $0.8$ -->
      <defs>
       <path d="M 27.203125 35.765625 
C 33.5 38.96875 39.90625 43.796875 39.90625 51.53125 
C 39.90625 60.6875 31.09375 66 23 66 
C 13.90625 66 5.90625 59.375 5.90625 50.234375 
C 5.90625 47.71875 6.5 43.390625 10.40625 39.578125 
C 11.40625 38.578125 15.59375 35.5625 18.296875 33.65625 
C 13.796875 31.34375 3.296875 25.8125 3.296875 14.765625 
C 3.296875 4.40625 13.09375 -2 22.796875 -2 
C 33.5 -2 42.5 5.71875 42.5 15.96875 
C 42.5 25.109375 36.40625 29.328125 32.40625 32.046875 
z
M 14.09375 44.609375 
C 13.296875 45.109375 9.296875 48.21875 9.296875 52.9375 
C 9.296875 59.078125 15.59375 63.6875 22.796875 63.6875 
C 30.703125 63.6875 36.5 58.0625 36.5 51.53125 
C 36.5 42.1875 26.09375 36.859375 25.59375 36.859375 
C 25.5 36.859375 25.40625 36.859375 24.59375 37.46875 
z
M 32.5 24 
C 34 22.90625 38.796875 19.578125 38.796875 13.453125 
C 38.796875 6.015625 31.40625 0.390625 23 0.390625 
C 13.90625 0.390625 7 6.921875 7 14.859375 
C 7 22.796875 13.09375 29.4375 20 32.546875 
z
" id="CMR17-56"/>
      </defs>
      <g transform="translate(368.16607 314.696223)scale(0.1 -0.1)">
       <use transform="scale(0.996264)" xlink:href="#CMR17-48"/>
       <use transform="translate(45.690477 0)scale(0.996264)" xlink:href="#CMMI12-58"/>
       <use transform="translate(72.787654 0)scale(0.996264)" xlink:href="#CMR17-56"/>
      </g>
     </g>
    </g>
    <g id="xtick_6">
     <g id="line2d_6">
      <g>
       <use style="stroke:#000000;stroke-width:0.8;" x="448.359437" xlink:href="#m67e1108b1f" y="300.777725"/>
      </g>
     </g>
     <g id="text_6">
      <!-- $0.9$ -->
      <defs>
       <path d="M 35.203125 29.234375 
C 35.203125 7 26.09375 0.390625 18.59375 0.390625 
C 16.296875 0.390625 10.703125 0.671875 8.40625 4.390625 
C 11 4 12.90625 5.390625 12.90625 7.890625 
C 12.90625 10.59375 10.703125 11.5 9.296875 11.5 
C 8.40625 11.5 5.703125 11.09375 5.703125 7.6875 
C 5.703125 1.0625 11.59375 -2 18.796875 -2 
C 30.296875 -2 42 10.390625 42 32.65625 
C 42 60.265625 30.796875 66 23.203125 66 
C 13.296875 66 3.796875 57.25 3.796875 43.75 
C 3.796875 31.25 11.90625 22 22.09375 22 
C 30.5 22 34.203125 29.84375 35.203125 33.15625 
z
M 22.296875 23.59375 
C 19.59375 23.59375 15.796875 24.09375 12.703125 30.140625 
C 10.59375 34.078125 10.59375 38.703125 10.59375 43.640625 
C 10.59375 49.59375 10.59375 53.71875 13.40625 58.15625 
C 14.796875 60.265625 17.40625 63.6875 23.203125 63.6875 
C 35 63.6875 35 45.453125 35 41.421875 
C 35 34.265625 31.796875 23.59375 22.296875 23.59375 
z
" id="CMR17-57"/>
      </defs>
      <g transform="translate(441.994398 314.696223)scale(0.1 -0.1)">
       <use transform="scale(0.996264)" xlink:href="#CMR17-48"/>
       <use transform="translate(45.690477 0)scale(0.996264)" xlink:href="#CMMI12-58"/>
       <use transform="translate(72.787654 0)scale(0.996264)" xlink:href="#CMR17-57"/>
      </g>
     </g>
    </g>
    <g id="text_7">
     <!-- $Ma$ -->
     <defs>
      <path d="M 90.796875 60.71875 
C 91.703125 64.09375 91.90625 65.09375 99 65.09375 
C 100.90625 65.09375 101.796875 65.09375 101.796875 66.984375 
C 101.796875 68 101.09375 68 99.203125 68 
L 87.203125 68 
C 84.703125 68 84.59375 67.890625 83.5 66.296875 
L 47 8.859375 
L 39.5 65.796875 
C 39.203125 68 39.09375 68 36.5 68 
L 24.09375 68 
C 22.203125 68 21.296875 68 21.296875 66.09375 
C 21.296875 65.09375 22.203125 65.09375 23.703125 65.09375 
C 29.796875 65.09375 29.796875 64.296875 29.796875 63.203125 
C 29.796875 63 29.796875 62.40625 29.40625 60.90625 
L 16.59375 10.15625 
C 15.40625 5.375 13.09375 3.1875 6.40625 2.890625 
C 6.09375 2.890625 4.90625 2.796875 4.90625 1.09375 
C 4.90625 0 5.796875 0 6.203125 0 
C 8.203125 0 13.296875 0.1875 15.296875 0.1875 
L 20.09375 0.1875 
C 21.5 0.1875 23.203125 0 24.59375 0 
C 25.296875 0 26.40625 0 26.40625 1.890625 
C 26.40625 2.796875 25.40625 2.890625 25 2.890625 
C 21.703125 2.984375 18.5 3.59375 18.5 7.171875 
C 18.5 8.171875 18.5 8.265625 18.90625 9.65625 
L 32.703125 64.5 
L 32.796875 64.5 
L 41.09375 2.6875 
C 41.40625 0.296875 41.5 0 42.40625 0 
C 43.5 0 44 0.796875 44.5 1.6875 
L 84.703125 64.984375 
L 84.796875 64.984375 
L 70.296875 7.375 
C 69.40625 3.890625 69.203125 2.890625 62.203125 2.890625 
C 60.296875 2.890625 59.296875 2.890625 59.296875 1.09375 
C 59.296875 0 60.203125 0 60.796875 0 
C 62.5 0 64.5 0.1875 66.203125 0.1875 
L 78 0.1875 
C 79.703125 0.1875 81.796875 0 83.5 0 
C 84.296875 0 85.40625 0 85.40625 1.890625 
C 85.40625 2.890625 84.5 2.890625 83 2.890625 
C 76.90625 2.890625 76.90625 3.6875 76.90625 4.6875 
C 76.90625 4.78125 76.90625 5.484375 77.09375 6.28125 
z
" id="CMMI12-77"/>
      <path d="M 30.09375 11.859375 
C 29.59375 10.171875 29.59375 9.96875 28.203125 8.078125 
C 26 5.28125 21.59375 1 16.90625 1 
C 12.796875 1 10.5 4.6875 10.5 10.5625 
C 10.5 16.0625 13.59375 27.234375 15.5 31.421875 
C 18.90625 38.40625 23.59375 41.984375 27.5 41.984375 
C 34.09375 41.984375 35.40625 33.8125 35.40625 33.015625 
C 35.40625 32.921875 35.09375 31.625 35 31.421875 
z
M 36.5 37.40625 
C 35.40625 40 32.703125 44 27.5 44 
C 16.203125 44 4 29.421875 4 14.65625 
C 4 4.78125 9.796875 -1 16.59375 -1 
C 22.09375 -1 26.796875 3.28125 29.59375 6.578125 
C 30.59375 0.6875 35.296875 -1 38.296875 -1 
C 41.296875 -1 43.703125 0.796875 45.5 4.375 
C 47.09375 7.75 48.5 13.828125 48.5 14.21875 
C 48.5 14.71875 48.09375 15.125 47.5 15.125 
C 46.59375 15.125 46.5 14.625 46.09375 13.125 
C 44.59375 7.265625 42.703125 1 38.59375 1 
C 35.703125 1 35.5 3.578125 35.5 5.5625 
C 35.5 7.859375 35.796875 8.953125 36.703125 12.828125 
C 37.40625 15.3125 37.90625 17.5 38.703125 20.390625 
C 42.40625 35.3125 43.296875 38.890625 43.296875 39.5 
C 43.296875 40.890625 42.203125 42 40.703125 42 
C 37.5 42 36.703125 38.5 36.5 37.3125 
z
" id="CMMI12-97"/>
     </defs>
     <g transform="translate(267.78185 331.011126)scale(0.15 -0.15)">
      <use transform="scale(0.996264)" xlink:href="#CMMI12-77"/>
      <use transform="translate(104.780079 0)scale(0.996264)" xlink:href="#CMMI12-97"/>
     </g>
    </g>
   </g>
   <g id="matplotlib.axis_2">
    <g id="ytick_1">
     <g id="line2d_7">
      <defs>
       <path d="M 0 0 
L -3.5 0 
" id="m1b8615cce9" style="stroke:#000000;stroke-width:0.8;"/>
      </defs>
      <g>
       <use style="stroke:#000000;stroke-width:0.8;" x="56.280936" xlink:href="#m1b8615cce9" y="296.313008"/>
      </g>
     </g>
     <g id="text_8">
      <!-- $0.00$ -->
      <g transform="translate(31.569522 299.772257)scale(0.1 -0.1)">
       <use transform="scale(0.996264)" xlink:href="#CMR17-48"/>
       <use transform="translate(45.690477 0)scale(0.996264)" xlink:href="#CMMI12-58"/>
       <use transform="translate(72.787654 0)scale(0.996264)" xlink:href="#CMR17-48"/>
       <use transform="translate(118.478131 0)scale(0.996264)" xlink:href="#CMR17-48"/>
      </g>
     </g>
    </g>
    <g id="ytick_2">
     <g id="line2d_8">
      <g>
       <use style="stroke:#000000;stroke-width:0.8;" x="56.280936" xlink:href="#m1b8615cce9" y="260.097359"/>
      </g>
     </g>
     <g id="text_9">
      <!-- $0.02$ -->
      <defs>
       <path d="M 41.703125 15.46875 
L 39.90625 15.46875 
C 38.90625 8.390625 38.09375 7.1875 37.703125 6.59375 
C 37.203125 5.796875 30 5.796875 28.59375 5.796875 
L 9.40625 5.796875 
C 13 9.6875 20 16.765625 28.5 24.9375 
C 34.59375 30.71875 41.703125 37.5 41.703125 47.390625 
C 41.703125 59.1875 32.296875 66 21.796875 66 
C 10.796875 66 4.09375 56.296875 4.09375 47.296875 
C 4.09375 43.390625 7 42.890625 8.203125 42.890625 
C 9.203125 42.890625 12.203125 43.484375 12.203125 46.984375 
C 12.203125 50.09375 9.59375 51 8.203125 51 
C 7.59375 51 7 50.890625 6.59375 50.6875 
C 8.5 59.1875 14.296875 63.390625 20.40625 63.390625 
C 29.09375 63.390625 34.796875 56.5 34.796875 47.390625 
C 34.796875 38.703125 29.703125 31.21875 24 24.734375 
L 4.09375 2.296875 
L 4.09375 0 
L 39.296875 0 
z
" id="CMR17-50"/>
      </defs>
      <g transform="translate(31.569522 263.556608)scale(0.1 -0.1)">
       <use transform="scale(0.996264)" xlink:href="#CMR17-48"/>
       <use transform="translate(45.690477 0)scale(0.996264)" xlink:href="#CMMI12-58"/>
       <use transform="translate(72.787654 0)scale(0.996264)" xlink:href="#CMR17-48"/>
       <use transform="translate(118.478131 0)scale(0.996264)" xlink:href="#CMR17-50"/>
      </g>
     </g>
    </g>
    <g id="ytick_3">
     <g id="line2d_9">
      <g>
       <use style="stroke:#000000;stroke-width:0.8;" x="56.280936" xlink:href="#m1b8615cce9" y="223.88171"/>
      </g>
     </g>
     <g id="text_10">
      <!-- $0.04$ -->
      <g transform="translate(31.569522 227.340959)scale(0.1 -0.1)">
       <use transform="scale(0.996264)" xlink:href="#CMR17-48"/>
       <use transform="translate(45.690477 0)scale(0.996264)" xlink:href="#CMMI12-58"/>
       <use transform="translate(72.787654 0)scale(0.996264)" xlink:href="#CMR17-48"/>
       <use transform="translate(118.478131 0)scale(0.996264)" xlink:href="#CMR17-52"/>
      </g>
     </g>
    </g>
    <g id="ytick_4">
     <g id="line2d_10">
      <g>
       <use style="stroke:#000000;stroke-width:0.8;" x="56.280936" xlink:href="#m1b8615cce9" y="187.666061"/>
      </g>
     </g>
     <g id="text_11">
      <!-- $0.06$ -->
      <g transform="translate(31.569522 191.12531)scale(0.1 -0.1)">
       <use transform="scale(0.996264)" xlink:href="#CMR17-48"/>
       <use transform="translate(45.690477 0)scale(0.996264)" xlink:href="#CMMI12-58"/>
       <use transform="translate(72.787654 0)scale(0.996264)" xlink:href="#CMR17-48"/>
       <use transform="translate(118.478131 0)scale(0.996264)" xlink:href="#CMR17-54"/>
      </g>
     </g>
    </g>
    <g id="ytick_5">
     <g id="line2d_11">
      <g>
       <use style="stroke:#000000;stroke-width:0.8;" x="56.280936" xlink:href="#m1b8615cce9" y="151.450412"/>
      </g>
     </g>
     <g id="text_12">
      <!-- $0.08$ -->
      <g transform="translate(31.569522 154.909661)scale(0.1 -0.1)">
       <use transform="scale(0.996264)" xlink:href="#CMR17-48"/>
       <use transform="translate(45.690477 0)scale(0.996264)" xlink:href="#CMMI12-58"/>
       <use transform="translate(72.787654 0)scale(0.996264)" xlink:href="#CMR17-48"/>
       <use transform="translate(118.478131 0)scale(0.996264)" xlink:href="#CMR17-56"/>
      </g>
     </g>
    </g>
    <g id="ytick_6">
     <g id="line2d_12">
      <g>
       <use style="stroke:#000000;stroke-width:0.8;" x="56.280936" xlink:href="#m1b8615cce9" y="115.234763"/>
      </g>
     </g>
     <g id="text_13">
      <!-- $0.10$ -->
      <defs>
       <path d="M 26.59375 63.796875 
C 26.59375 65.890625 26.5 66 25.09375 66 
C 21.203125 61.359375 15.296875 59.890625 9.703125 59.6875 
C 9.40625 59.6875 8.90625 59.6875 8.796875 59.5 
C 8.703125 59.296875 8.703125 59.09375 8.703125 57 
C 11.796875 57 17 57.59375 21 59.984375 
L 21 7.296875 
C 21 3.796875 20.796875 2.59375 12.203125 2.59375 
L 9.203125 2.59375 
L 9.203125 0 
C 14 0.09375 19 0.1875 23.796875 0.1875 
C 28.59375 0.1875 33.59375 0.09375 38.40625 0 
L 38.40625 2.59375 
L 35.40625 2.59375 
C 26.796875 2.59375 26.59375 3.6875 26.59375 7.296875 
z
" id="CMR17-49"/>
      </defs>
      <g transform="translate(31.569522 118.694012)scale(0.1 -0.1)">
       <use transform="scale(0.996264)" xlink:href="#CMR17-48"/>
       <use transform="translate(45.690477 0)scale(0.996264)" xlink:href="#CMMI12-58"/>
       <use transform="translate(72.787654 0)scale(0.996264)" xlink:href="#CMR17-49"/>
       <use transform="translate(118.478131 0)scale(0.996264)" xlink:href="#CMR17-48"/>
      </g>
     </g>
    </g>
    <g id="ytick_7">
     <g id="line2d_13">
      <g>
       <use style="stroke:#000000;stroke-width:0.8;" x="56.280936" xlink:href="#m1b8615cce9" y="79.019114"/>
      </g>
     </g>
     <g id="text_14">
      <!-- $0.12$ -->
      <g transform="translate(31.569522 82.478364)scale(0.1 -0.1)">
       <use transform="scale(0.996264)" xlink:href="#CMR17-48"/>
       <use transform="translate(45.690477 0)scale(0.996264)" xlink:href="#CMMI12-58"/>
       <use transform="translate(72.787654 0)scale(0.996264)" xlink:href="#CMR17-49"/>
       <use transform="translate(118.478131 0)scale(0.996264)" xlink:href="#CMR17-50"/>
      </g>
     </g>
    </g>
    <g id="ytick_8">
     <g id="line2d_14">
      <g>
       <use style="stroke:#000000;stroke-width:0.8;" x="56.280936" xlink:href="#m1b8615cce9" y="42.803465"/>
      </g>
     </g>
     <g id="text_15">
      <!-- $0.14$ -->
      <g transform="translate(31.569522 46.262715)scale(0.1 -0.1)">
       <use transform="scale(0.996264)" xlink:href="#CMR17-48"/>
       <use transform="translate(45.690477 0)scale(0.996264)" xlink:href="#CMMI12-58"/>
       <use transform="translate(72.787654 0)scale(0.996264)" xlink:href="#CMR17-49"/>
       <use transform="translate(118.478131 0)scale(0.996264)" xlink:href="#CMR17-52"/>
      </g>
     </g>
    </g>
    <g id="text_16">
     <!-- $c_d$ -->
     <defs>
      <path d="M 39.09375 38 
C 37.203125 38 36.296875 38 34.90625 36.796875 
C 34.296875 36.296875 33.203125 34.796875 33.203125 33.1875 
C 33.203125 31.1875 34.703125 29.984375 36.59375 29.984375 
C 39 29.984375 41.703125 31.984375 41.703125 35.984375 
C 41.703125 40.484375 37.09375 44 30.203125 44 
C 17.09375 44 4 30.1875 4 15.796875 
C 4 6.96875 9.40625 -1 19.59375 -1 
C 33.203125 -1 41.796875 9.71875 41.796875 11.03125 
C 41.796875 11.640625 41.203125 12.140625 40.796875 12.140625 
C 40.5 12.140625 40.40625 12.046875 39.5 11.125 
C 33.09375 2.515625 23.59375 1 19.796875 1 
C 12.90625 1 10.703125 7.078125 10.703125 12.140625 
C 10.703125 15.6875 12.40625 25.53125 16 32.390625 
C 18.59375 37.09375 24 41.984375 30.296875 41.984375 
C 31.59375 41.984375 37.09375 41.8125 39.09375 38 
z
" id="CMMI12-99"/>
      <path d="M 50.296875 66.484375 
C 50.40625 66.890625 50.59375 67.484375 50.59375 67.984375 
C 50.59375 69 49.59375 69 49.40625 69 
C 49.296875 69 44.40625 68.59375 43.90625 68.484375 
C 42.203125 68.390625 40.703125 68.1875 38.90625 68.09375 
C 36.40625 67.890625 35.703125 67.796875 35.703125 65.984375 
C 35.703125 64.984375 36.5 64.984375 37.90625 64.984375 
C 42.796875 64.984375 42.90625 64.109375 42.90625 63.125 
C 42.90625 62.53125 42.703125 61.734375 42.59375 61.4375 
L 36.5 37.40625 
C 35.40625 40 32.703125 44 27.5 44 
C 16.203125 44 4 29.421875 4 14.65625 
C 4 4.78125 9.796875 -1 16.59375 -1 
C 22.09375 -1 26.796875 3.28125 29.59375 6.578125 
C 30.59375 0.6875 35.296875 -1 38.296875 -1 
C 41.296875 -1 43.703125 0.796875 45.5 4.390625 
C 47.09375 7.78125 48.5 13.859375 48.5 14.265625 
C 48.5 14.765625 48.09375 15.15625 47.5 15.15625 
C 46.59375 15.15625 46.5 14.65625 46.09375 13.15625 
C 44.59375 7.28125 42.703125 1 38.59375 1 
C 35.703125 1 35.5 3.59375 35.5 5.578125 
C 35.5 5.984375 35.5 8.078125 36.203125 10.875 
z
M 30.09375 11.859375 
C 29.59375 10.171875 29.59375 9.96875 28.203125 8.078125 
C 26 5.28125 21.59375 1 16.90625 1 
C 12.796875 1 10.5 4.6875 10.5 10.5625 
C 10.5 16.0625 13.59375 27.234375 15.5 31.421875 
C 18.90625 38.40625 23.59375 41.984375 27.5 41.984375 
C 34.09375 41.984375 35.40625 33.8125 35.40625 33.015625 
C 35.40625 32.921875 35.09375 31.625 35 31.421875 
z
" id="CMMI12-100"/>
     </defs>
     <g transform="translate(23.112542 171.08625)rotate(-90)scale(0.23 -0.23)">
      <use transform="translate(0 14.943915)scale(0.996264)" xlink:href="#CMMI12-99"/>
      <use transform="translate(41.983234 0)scale(0.697382)" xlink:href="#CMMI12-100"/>
     </g>
    </g>
   </g>
   <g id="line2d_15">
    <path clip-path="url(#p5868373b53)" d="M 80.613155 274.474972 
L 84.642391 274.492503 
L 88.671628 274.509472 
L 92.700865 274.52591 
L 96.730102 274.541851 
L 100.759339 274.557325 
L 104.788576 274.572366 
L 108.817813 274.587006 
L 112.84705 274.601278 
L 116.876287 274.615212 
L 120.905524 274.628842 
L 124.934761 274.6422 
L 128.963997 274.655319 
L 132.993234 274.66823 
L 137.022471 274.680966 
L 141.051708 274.69356 
L 145.080945 274.706043 
L 149.110182 274.718447 
L 153.139419 274.730806 
L 157.168656 274.743151 
L 161.197893 274.755515 
L 165.22713 274.767931 
L 169.256367 274.780429 
L 173.285603 274.793043 
L 177.31484 274.805805 
L 181.344077 274.818747 
L 185.373314 274.831902 
L 189.402551 274.845301 
L 193.431788 274.858978 
L 197.461025 274.872964 
L 201.490262 274.887292 
L 205.519499 274.901994 
L 209.548736 274.917102 
L 213.577973 274.932649 
L 217.60721 274.948667 
L 221.636446 274.965188 
L 225.665683 274.982245 
L 229.69492 274.999903 
L 233.724157 275.01957 
L 237.753394 275.044428 
L 241.782631 275.077777 
L 245.811868 275.122921 
L 249.841105 275.18316 
L 253.870342 275.261796 
L 257.899579 275.362132 
L 261.928816 275.487468 
L 265.958052 275.641038 
L 269.987289 275.821449 
L 274.016526 276.019894 
L 278.045763 276.226894 
L 282.075 276.432971 
L 286.104237 276.628649 
L 290.133474 276.80445 
L 294.162711 276.950897 
L 298.191948 277.058511 
L 302.221185 277.117815 
L 306.250422 277.119332 
L 310.279659 277.053585 
L 314.308895 276.911095 
L 318.338132 276.682693 
L 322.367369 276.369087 
L 326.396606 275.982734 
L 330.425843 275.536773 
L 334.45508 275.044344 
L 338.484317 274.518587 
L 342.513554 273.965798 
L 346.542791 273.36195 
L 350.572028 272.674628 
L 354.601265 271.871415 
L 358.630501 270.919897 
L 362.659738 269.78799 
L 366.688975 268.471383 
L 370.718212 267.013941 
L 374.747449 265.464338 
L 378.776686 263.846796 
L 382.805923 261.912703 
L 386.83516 259.242714 
L 390.864397 255.415477 
L 394.893634 250.220297 
L 398.922871 243.964551 
L 402.952108 237.033826 
L 406.981344 229.813711 
L 411.010581 222.689792 
L 415.039818 216.00683 
L 419.069055 209.784176 
L 423.098292 203.885529 
L 427.127529 198.173618 
L 431.156766 192.534053 
L 435.186003 186.960918 
L 439.21524 181.480409 
L 443.244477 176.118728 
L 447.273714 170.902076 
L 451.30295 165.837765 
L 455.332187 160.70889 
L 459.361424 155.175748 
L 463.390661 149.270818 
L 467.419898 143.322426 
L 471.449135 137.666948 
L 475.478372 132.640757 
L 479.507609 128.58023 
" style="fill:none;stroke:#000000;stroke-dasharray:1.5,2.475;stroke-dashoffset:0;stroke-width:1.5;"/>
   </g>
   <g id="line2d_16">
    <path clip-path="url(#p5868373b53)" d="M 390.300841 253.292438 
L 391.20699 251.927759 
L 392.11314 250.557215 
L 393.019289 249.181274 
L 393.925439 247.800399 
L 394.831588 246.415059 
L 395.737738 245.025718 
L 396.643887 243.632844 
L 397.550037 242.236901 
L 398.456186 240.838356 
L 399.362336 239.437676 
L 400.268485 238.035325 
L 401.174635 236.631771 
L 402.080784 235.227479 
L 402.986934 233.822915 
L 403.893083 232.418545 
L 404.799233 231.014835 
L 405.705382 229.612252 
L 406.611532 228.211262 
L 407.517681 226.81233 
L 408.423831 225.415922 
L 409.32998 224.022505 
L 410.23613 222.632544 
L 411.142279 221.246506 
L 412.048429 219.864857 
L 412.954578 218.488063 
L 413.860728 217.116589 
L 414.766877 215.750902 
L 415.673027 214.391468 
L 416.579176 213.038753 
L 417.485326 211.693223 
L 418.391475 210.355344 
L 419.297625 209.025582 
L 420.203774 207.704403 
L 421.109924 206.392273 
L 422.016073 205.089659 
L 422.922223 203.797025 
L 423.828372 202.514839 
L 424.734522 201.243567 
L 425.640671 199.983673 
L 426.546821 198.735626 
L 427.45297 197.499889 
L 428.35912 196.27693 
L 429.265269 195.067212 
L 430.171419 193.870721 
L 431.077568 192.686429 
L 431.983718 191.513178 
L 432.889867 190.349812 
L 433.796017 189.195174 
L 434.702166 188.048104 
L 435.608316 186.907448 
L 436.514465 185.772047 
L 437.420615 184.640743 
L 438.326764 183.51238 
L 439.232914 182.385801 
L 440.139063 181.259847 
L 441.045213 180.133362 
L 441.951362 179.005188 
L 442.857512 177.874169 
L 443.763661 176.739146 
L 444.669811 175.598962 
L 445.57596 174.452461 
L 446.48211 173.298484 
L 447.388259 172.135875 
L 448.294409 170.963476 
L 449.200558 169.780129 
L 450.106708 168.584679 
L 451.012857 167.375966 
L 451.919007 166.152834 
L 452.825156 164.914164 
L 453.731306 163.659821 
L 454.637455 162.390735 
L 455.543605 161.10789 
L 456.449754 159.812267 
L 457.355904 158.504848 
L 458.262053 157.186616 
L 459.168203 155.858553 
L 460.074352 154.521641 
L 460.980502 153.176863 
L 461.886651 151.825201 
L 462.792801 150.467638 
L 463.69895 149.105155 
L 464.6051 147.738735 
L 465.511249 146.36936 
L 466.417399 144.998012 
L 467.323548 143.625675 
L 468.229698 142.253329 
L 469.135847 140.881958 
L 470.041997 139.512544 
L 470.948146 138.146069 
L 471.854296 136.783515 
L 472.760445 135.425865 
L 473.666595 134.074101 
L 474.572744 132.729205 
L 475.478894 131.392159 
L 476.385043 130.063947 
L 477.291193 128.74555 
L 478.197342 127.43795 
L 479.103492 126.14213 
L 480.009641 124.859072 
" style="fill:none;stroke:#000000;stroke-dasharray:1.5,2.475;stroke-dashoffset:0;stroke-width:1.5;"/>
   </g>
   <g id="line2d_17">
    <path clip-path="url(#p5868373b53)" d="M 80.487646 270.900487 
L 84.521134 270.860352 
L 88.554622 270.827125 
L 92.588109 270.800429 
L 96.621597 270.779885 
L 100.655085 270.765115 
L 104.688572 270.755739 
L 108.72206 270.751382 
L 112.755547 270.751662 
L 116.789035 270.756204 
L 120.822523 270.764627 
L 124.85601 270.776555 
L 128.889498 270.791608 
L 132.922986 270.809408 
L 136.956473 270.829578 
L 140.989961 270.851737 
L 145.023449 270.87551 
L 149.056936 270.900516 
L 153.090424 270.926378 
L 157.123911 270.952718 
L 161.157399 270.979157 
L 165.190887 271.005316 
L 169.224374 271.030818 
L 173.257862 271.055284 
L 177.29135 271.078337 
L 181.324837 271.099596 
L 185.358325 271.118686 
L 189.391812 271.135226 
L 193.4253 271.148839 
L 197.458788 271.159146 
L 201.492275 271.165769 
L 205.525763 271.16833 
L 209.559251 271.166451 
L 213.592738 271.159753 
L 217.626226 271.147857 
L 221.659714 271.130386 
L 225.693201 271.106962 
L 229.726689 271.077223 
L 233.760176 271.042993 
L 237.793664 271.010367 
L 241.827152 270.985931 
L 245.860639 270.976273 
L 249.894127 270.987981 
L 253.927615 271.027643 
L 257.961102 271.101846 
L 261.99459 271.217179 
L 266.028078 271.380226 
L 270.061565 271.593151 
L 274.095053 271.844459 
L 278.12854 272.12002 
L 282.162028 272.405708 
L 286.195516 272.687393 
L 290.229003 272.950949 
L 294.262491 273.182248 
L 298.295979 273.367161 
L 302.329466 273.49156 
L 306.362954 273.539781 
L 310.396442 273.4856 
L 314.429929 273.29836 
L 318.463417 272.94774 
L 322.496904 272.426145 
L 326.530392 271.762154 
L 330.56388 270.987574 
L 334.597367 270.134209 
L 338.630855 269.233867 
L 342.664343 268.315993 
L 346.69783 267.38155 
L 350.731318 266.412625 
L 354.764805 265.390966 
L 358.798293 264.29832 
L 362.831781 263.11618 
L 366.865268 261.820313 
L 370.898756 260.380817 
L 374.932244 258.767546 
L 378.965731 256.93971 
L 382.999219 254.741716 
L 387.032707 251.947946 
L 391.066194 248.331784 
L 395.099682 243.703807 
L 399.133169 238.182504 
L 403.166657 232.038449 
L 407.200145 225.543291 
L 411.233632 218.96868 
L 415.26712 212.577477 
L 419.300608 206.490916 
L 423.334095 200.715752 
L 427.367583 195.255466 
L 431.401071 190.085344 
L 435.434558 185.051745 
L 439.468046 179.9642 
L 443.501533 174.632237 
L 447.535021 168.865386 
L 451.568509 162.477238 
L 455.601996 155.481863 
L 459.635484 148.181391 
L 463.668972 140.900263 
L 467.702459 133.962917 
L 471.735947 127.693791 
L 475.769435 122.417324 
L 479.802922 118.457956 
" style="fill:none;stroke:#000000;stroke-dasharray:1.5,2.475;stroke-dashoffset:0;stroke-width:1.5;"/>
   </g>
   <g id="line2d_18">
    <path clip-path="url(#p5868373b53)" d="M 78.309711 268.039451 
L 82.361842 268.288069 
L 86.413973 268.498141 
L 90.466104 268.671573 
L 94.518235 268.810274 
L 98.570366 268.916151 
L 102.622498 268.991113 
L 106.674629 269.037067 
L 110.72676 269.055921 
L 114.778891 269.049583 
L 118.831022 269.019961 
L 122.883153 268.968963 
L 126.935285 268.898496 
L 130.987416 268.81047 
L 135.039547 268.70679 
L 139.091678 268.589366 
L 143.143809 268.460106 
L 147.19594 268.320916 
L 151.248071 268.173706 
L 155.300203 268.020383 
L 159.352334 267.862854 
L 163.404465 267.703029 
L 167.456596 267.542814 
L 171.508727 267.384117 
L 175.560858 267.228847 
L 179.612989 267.078912 
L 183.665121 266.936218 
L 187.717252 266.802675 
L 191.769383 266.68019 
L 195.821514 266.57067 
L 199.873645 266.476025 
L 203.925776 266.398161 
L 207.977908 266.338987 
L 212.030039 266.30041 
L 216.08217 266.284339 
L 220.134301 266.292681 
L 224.186432 266.327344 
L 228.238563 266.390209 
L 232.290694 266.481446 
L 236.342826 266.59855 
L 240.394957 266.738782 
L 244.447088 266.899402 
L 248.499219 267.07767 
L 252.55135 267.270847 
L 256.603481 267.476194 
L 260.655613 267.690971 
L 264.707744 267.912439 
L 268.759875 268.135207 
L 272.812006 268.34271 
L 276.864137 268.515442 
L 280.916268 268.633898 
L 284.968399 268.678571 
L 289.020531 268.629955 
L 293.072662 268.468544 
L 297.124793 268.174832 
L 301.176924 267.729313 
L 305.229055 267.126734 
L 309.281186 266.444693 
L 313.333317 265.790644 
L 317.385449 265.27001 
L 321.43758 264.895318 
L 325.489711 264.550705 
L 329.541842 264.110908 
L 333.593973 263.450664 
L 337.646104 262.444711 
L 341.698236 260.982794 
L 345.750367 259.181699 
L 349.802498 257.334258 
L 353.854629 255.737905 
L 357.90676 254.690072 
L 361.958891 254.488192 
L 366.011022 255.161208 
L 370.063154 255.253041 
L 374.115285 252.797039 
L 378.167416 246.375228 
L 382.219547 242.132571 
L 386.271678 241.318775 
L 390.323809 240.787057 
L 394.37594 237.834667 
L 398.428072 232.380503 
L 402.480203 225.293802 
L 406.532334 217.445124 
L 410.584465 209.705032 
L 414.636596 202.806589 
L 418.688727 196.821753 
L 422.740859 191.620282 
L 426.79299 187.044185 
L 430.845121 182.923046 
L 434.897252 179.086392 
L 438.949383 175.363746 
L 443.001514 171.584635 
L 447.053645 167.578584 
L 451.105777 163.175117 
L 455.157908 158.203761 
L 459.210039 152.49404 
L 463.26217 145.87548 
L 467.314301 138.177606 
L 471.366432 129.229943 
L 475.418564 118.862017 
L 479.470695 106.903353 
" style="fill:none;stroke:#000000;stroke-dasharray:1.5,2.475;stroke-dashoffset:0;stroke-width:1.5;"/>
   </g>
   <g id="line2d_19">
    <path clip-path="url(#p5868373b53)" d="M 81.07089 259.718905 
L 85.094459 259.920383 
L 89.118029 260.089506 
L 93.141598 260.228122 
L 97.165167 260.338079 
L 101.188737 260.421225 
L 105.212306 260.479409 
L 109.235875 260.514479 
L 113.259444 260.528282 
L 117.283014 260.522668 
L 121.306583 260.499484 
L 125.330152 260.460579 
L 129.353722 260.4078 
L 133.377291 260.342996 
L 137.40086 260.268015 
L 141.424429 260.184705 
L 145.447999 260.094914 
L 149.471568 260.000491 
L 153.495137 259.903284 
L 157.518707 259.805141 
L 161.542276 259.707909 
L 165.565845 259.613438 
L 169.589414 259.523576 
L 173.612984 259.440169 
L 177.636553 259.365068 
L 181.660122 259.30012 
L 185.683692 259.247172 
L 189.707261 259.208074 
L 193.73083 259.184674 
L 197.754399 259.178819 
L 201.777969 259.192358 
L 205.801538 259.227139 
L 209.825107 259.28501 
L 213.848676 259.367819 
L 217.872246 259.477415 
L 221.895815 259.615646 
L 225.919384 259.78436 
L 229.942954 259.985393 
L 233.966523 260.216877 
L 237.990092 260.467944 
L 242.013661 260.726389 
L 246.037231 260.980003 
L 250.0608 261.216579 
L 254.084369 261.423912 
L 258.107939 261.589795 
L 262.131508 261.702019 
L 266.155077 261.748379 
L 270.178646 261.718172 
L 274.202216 261.611095 
L 278.225785 261.431231 
L 282.249354 261.182684 
L 286.272924 260.869554 
L 290.296493 260.495942 
L 294.320062 260.06595 
L 298.343631 259.583678 
L 302.367201 259.053203 
L 306.39077 258.459045 
L 310.414339 257.731507 
L 314.437909 256.791571 
L 318.461478 255.566205 
L 322.485047 254.07359 
L 326.508616 252.403016 
L 330.532186 250.645651 
L 334.555755 248.892663 
L 338.579324 247.235222 
L 342.602894 245.755682 
L 346.626463 244.438576 
L 350.650032 243.207464 
L 354.673601 241.984982 
L 358.697171 240.693764 
L 362.72074 239.256446 
L 366.744309 237.606008 
L 370.767879 235.715182 
L 374.791448 233.566244 
L 378.815017 231.141465 
L 382.838586 228.422024 
L 386.862156 225.38688 
L 390.885725 222.014725 
L 394.909294 218.283994 
L 398.932864 214.171911 
L 402.956433 209.655339 
L 406.980002 204.711144 
L 411.003571 199.31619 
L 415.027141 193.449206 
L 419.05071 187.195825 
L 423.074279 180.804567 
L 427.097849 174.537637 
L 431.121418 168.620892 
L 435.144987 163.005322 
L 439.168556 157.516249 
L 443.192126 151.978349 
L 447.215695 146.216294 
L 451.239264 140.058516 
L 455.262833 133.454443 
L 459.286403 126.497584 
L 463.309972 119.289862 
L 467.333541 111.933202 
L 471.357111 104.529528 
L 475.38068 97.180765 
L 479.404249 89.988834 
" style="fill:none;stroke:#000000;stroke-dasharray:1.5,2.475;stroke-dashoffset:0;stroke-width:1.5;"/>
   </g>
   <g id="line2d_20">
    <path clip-path="url(#p5868373b53)" d="M 80.78296 247.016267 
L 84.80377 247.223908 
L 88.82458 247.418876 
L 92.84539 247.601724 
L 96.8662 247.773002 
L 100.88701 247.933263 
L 104.90782 248.08306 
L 108.92863 248.222943 
L 112.94944 248.353467 
L 116.97025 248.475181 
L 120.99106 248.58864 
L 125.01187 248.694394 
L 129.03268 248.792995 
L 133.05349 248.884997 
L 137.0743 248.970951 
L 141.09511 249.051409 
L 145.11592 249.126923 
L 149.13673 249.198045 
L 153.15754 249.265328 
L 157.17835 249.329323 
L 161.199161 249.390583 
L 165.219971 249.44966 
L 169.240781 249.507105 
L 173.261591 249.563471 
L 177.282401 249.619311 
L 181.303211 249.675175 
L 185.324021 249.731617 
L 189.344831 249.789188 
L 193.365641 249.848441 
L 197.386451 249.909927 
L 201.407261 249.974199 
L 205.428071 250.041808 
L 209.448881 250.113307 
L 213.469691 250.189249 
L 217.490501 250.270184 
L 221.511311 250.356665 
L 225.532121 250.449245 
L 229.552931 250.548475 
L 233.573741 250.654656 
L 237.594551 250.766598 
L 241.615361 250.882569 
L 245.636171 251.000834 
L 249.656981 251.119658 
L 253.677792 251.237307 
L 257.698602 251.352047 
L 261.719412 251.462143 
L 265.740222 251.565861 
L 269.761032 251.660569 
L 273.781842 251.725563 
L 277.802652 251.723365 
L 281.823462 251.615864 
L 285.844272 251.36495 
L 289.865082 250.932512 
L 293.885892 250.280439 
L 297.906702 249.370621 
L 301.927512 248.164946 
L 305.948322 246.63239 
L 309.969132 244.85295 
L 313.989942 242.994714 
L 318.010752 241.226917 
L 322.031562 239.621796 
L 326.052372 238.087952 
L 330.073182 236.518233 
L 334.093992 234.805488 
L 338.114802 232.842564 
L 342.135612 230.52521 
L 346.156422 227.870679 
L 350.177233 225.059338 
L 354.198043 222.283002 
L 358.218853 219.733487 
L 362.239663 217.602608 
L 366.260473 216.043732 
L 370.281283 214.831876 
L 374.302093 213.527032 
L 378.322903 211.690478 
L 382.343713 209.089899 
L 386.364523 205.802043 
L 390.385333 201.929014 
L 394.406143 197.575523 
L 398.426953 192.879395 
L 402.447763 188.001223 
L 406.468573 183.102044 
L 410.489383 178.342899 
L 414.510193 173.860555 
L 418.531003 169.536171 
L 422.551813 165.097789 
L 426.572623 160.271377 
L 430.593433 154.801416 
L 434.614243 148.657143 
L 438.635053 141.957466 
L 442.655864 134.824007 
L 446.676674 127.378387 
L 450.697484 119.742144 
L 454.718294 112.019044 
L 458.739104 104.273161 
L 462.759914 96.563189 
L 466.780724 88.94782 
L 470.801534 81.485748 
L 474.822344 74.235668 
L 478.843154 67.256272 
" style="fill:none;stroke:#000000;stroke-dasharray:1.5,2.475;stroke-dashoffset:0;stroke-width:1.5;"/>
   </g>
   <g id="line2d_21">
    <path clip-path="url(#p5868373b53)" d="M 80.901085 229.808401 
L 84.925847 230.29794 
L 88.95061 230.748384 
L 92.975372 231.161534 
L 97.000135 231.539193 
L 101.024897 231.883163 
L 105.04966 232.195244 
L 109.074422 232.477241 
L 113.099185 232.730953 
L 117.123947 232.958184 
L 121.14871 233.160736 
L 125.173472 233.340409 
L 129.198235 233.499007 
L 133.222997 233.638332 
L 137.24776 233.760184 
L 141.272522 233.866367 
L 145.297284 233.958681 
L 149.322047 234.03893 
L 153.346809 234.108915 
L 157.371572 234.170438 
L 161.396334 234.225301 
L 165.421097 234.275306 
L 169.445859 234.322255 
L 173.470622 234.367949 
L 177.495384 234.414192 
L 181.520147 234.462784 
L 185.544909 234.515528 
L 189.569672 234.574226 
L 193.594434 234.64068 
L 197.619197 234.716692 
L 201.643959 234.804063 
L 205.668722 234.904595 
L 209.693484 235.020092 
L 213.718246 235.152354 
L 217.743009 235.303183 
L 221.767771 235.474382 
L 225.792534 235.667753 
L 229.817296 235.885096 
L 233.842059 236.126501 
L 237.866821 236.385326 
L 241.891584 236.653287 
L 245.916346 236.922095 
L 249.941109 237.183463 
L 253.965871 237.429105 
L 257.990634 237.650734 
L 262.015396 237.840062 
L 266.040159 237.988802 
L 270.064921 238.086257 
L 274.089683 238.109501 
L 278.114446 238.031738 
L 282.139208 237.826171 
L 286.163971 237.466005 
L 290.188733 236.924442 
L 294.213496 236.174686 
L 298.238258 235.189941 
L 302.263021 233.943409 
L 306.287783 232.414833 
L 310.312546 230.627365 
L 314.337308 228.621852 
L 318.362071 226.439169 
L 322.386833 224.118517 
L 326.411596 221.696336 
L 330.436358 219.208808 
L 334.46112 216.692115 
L 338.485883 214.182437 
L 342.510645 211.714731 
L 346.535408 209.294305 
L 350.56017 206.895998 
L 354.584933 204.493257 
L 358.609695 202.05953 
L 362.634458 199.568249 
L 366.65922 196.992248 
L 370.683983 194.3036 
L 374.708745 191.474327 
L 378.733508 188.475451 
L 382.75827 185.236014 
L 386.783033 181.628694 
L 390.807795 177.52221 
L 394.832558 172.799669 
L 398.85732 167.547838 
L 402.882082 162.00451 
L 406.906845 156.411048 
L 410.931607 151.008814 
L 414.95637 145.98866 
L 418.981132 141.223085 
L 423.005895 136.460878 
L 427.030657 131.450571 
L 431.05542 125.993286 
L 435.080182 120.059116 
L 439.104945 113.652016 
L 443.129707 106.775947 
L 447.15447 99.434866 
L 451.179232 91.652178 
L 455.203995 83.557481 
L 459.228757 75.316435 
L 463.253519 67.094732 
L 467.278282 59.058062 
L 471.303044 51.372118 
L 475.327807 44.202589 
L 479.352569 37.715167 
" style="fill:none;stroke:#000000;stroke-dasharray:1.5,2.475;stroke-dashoffset:0;stroke-width:1.5;"/>
   </g>
   <g id="patch_3">
    <path d="M 56.280936 300.777725 
L 56.280936 23.577725 
" style="fill:none;stroke:#000000;stroke-linecap:square;stroke-linejoin:miter;stroke-width:0.8;"/>
   </g>
   <g id="patch_4">
    <path d="M 502.680936 300.777725 
L 502.680936 23.577725 
" style="fill:none;stroke:#000000;stroke-linecap:square;stroke-linejoin:miter;stroke-width:0.8;"/>
   </g>
   <g id="patch_5">
    <path d="M 56.280936 300.777725 
L 502.680936 300.777725 
" style="fill:none;stroke:#000000;stroke-linecap:square;stroke-linejoin:miter;stroke-width:0.8;"/>
   </g>
   <g id="patch_6">
    <path d="M 56.280936 23.577725 
L 502.680936 23.577725 
" style="fill:none;stroke:#000000;stroke-linecap:square;stroke-linejoin:miter;stroke-width:0.8;"/>
   </g>
   <g id="text_17">
    <!-- Effect of compressibility on the drag of NACA0012-34 airfoil -->
    <defs>
     <path d="M 30.59375 6.796875 
C 22.59375 6.796875 19 6.796875 17.203125 6.6875 
L 17.203125 32.890625 
L 48.203125 32.890625 
L 48.203125 39 
L 17.203125 39 
L 17.203125 62.390625 
L 30.09375 62.390625 
C 31.296875 62.390625 32.5 62.296875 33.703125 62.296875 
L 50.796875 62.296875 
L 50.796875 68.796875 
L 8.796875 68.796875 
L 8.796875 0 
L 52.09375 0 
L 52.09375 6.890625 
z
" id="CMSS17-69"/>
     <path d="M 16.796875 37.1875 
L 27.09375 37.1875 
L 27.09375 43 
L 16.59375 43 
L 16.59375 55.671875 
C 16.59375 62.5 21.796875 63.890625 25.203125 63.890625 
C 28.703125 63.890625 31.59375 63 32.703125 62.609375 
L 32.703125 69.1875 
C 31.59375 69.390625 28.59375 70 25.296875 70 
C 16.09375 70 9.40625 62.5 9.40625 52.59375 
L 9.40625 43 
L 2.5 43 
L 2.5 37.1875 
L 9.40625 37.1875 
L 9.40625 0 
L 16.796875 0 
z
M 42.796875 37.1875 
L 53.09375 37.1875 
L 53.09375 43 
L 42.59375 43 
L 42.59375 55.671875 
C 42.59375 62.5 47.796875 63.890625 51.203125 63.890625 
C 54.703125 63.890625 57.59375 63 58.703125 62.609375 
L 58.703125 69.1875 
C 57.59375 69.390625 54.59375 70 51.296875 70 
C 42.09375 70 35.40625 62.5 35.40625 52.59375 
L 35.40625 0 
L 42.796875 0 
z
" id="CMSS17-11"/>
     <path d="M 39.09375 21.484375 
C 39.09375 24.796875 38.90625 31.265625 35.703125 36.671875 
C 32.203125 42.390625 26.5 44 22.203125 44 
C 11.796875 44 3 34.125 3 21.296875 
C 3 9.046875 12.09375 -1 23.59375 -1 
C 28.09375 -1 33.59375 0.296875 38.59375 3.890625 
C 38.59375 4.296875 38.40625 6.46875 38.296875 6.578125 
C 38.296875 6.765625 38 9.828125 38 10.234375 
C 33.203125 6.375 27.703125 5.09375 23.703125 5.09375 
C 17.296875 5.09375 10.40625 10.421875 10.09375 21.484375 
z
M 10.90625 27 
C 12.203125 32.59375 16.59375 37.890625 22.203125 37.890625 
C 23.703125 37.890625 30.703125 37.6875 32.5 27 
z
" id="CMSS17-101"/>
     <path d="M 38.5 39.6875 
C 38.5 40.390625 33.90625 42.390625 32.703125 42.796875 
C 29.40625 44 25.203125 44 24.09375 44 
C 11.09375 44 3.296875 32.6875 3.296875 21.296875 
C 3.296875 9.296875 12 -1 23.703125 -1 
C 30.40625 -1 35.203125 1.1875 39.09375 3.796875 
L 38.5 10.390625 
C 34.203125 7.09375 29.203125 5.296875 23.796875 5.296875 
C 16 5.296875 10.90625 12.09375 10.90625 21.390625 
C 10.90625 28.59375 14.203125 37.6875 24.203125 37.6875 
C 29.703125 37.6875 32.796875 36.59375 37.40625 33.484375 
z
" id="CMSS17-99"/>
     <path d="M 16.703125 37.1875 
L 29.703125 37.1875 
L 29.703125 43 
L 16.703125 43 
L 16.703125 55 
L 9.59375 55 
L 9.59375 43 
L 1.703125 43 
L 1.703125 37.1875 
L 9.40625 37.1875 
L 9.40625 11.734375 
C 9.40625 6 10.703125 -1 17.296875 -1 
C 22.296875 -1 26.90625 0.390625 31.296875 2.6875 
L 29.703125 8.609375 
C 27.296875 6.5 24.40625 5.296875 21.296875 5.296875 
C 16.90625 5.296875 16.703125 10.921875 16.703125 13.4375 
z
" id="CMSS17-116"/>
     <path d="M 44.203125 21.1875 
C 44.203125 33.984375 34.703125 44 23.5 44 
C 12 44 2.703125 33.6875 2.703125 21.1875 
C 2.703125 8.5 12.296875 -1 23.40625 -1 
C 34.796875 -1 44.203125 8.796875 44.203125 21.1875 
z
M 23.5 5.296875 
C 16.40625 5.296875 10.296875 11.09375 10.296875 21.984375 
C 10.296875 33.59375 17.40625 37.890625 23.40625 37.890625 
C 29.90625 37.890625 36.59375 33.1875 36.59375 21.984375 
C 36.59375 10.6875 30.09375 5.296875 23.5 5.296875 
z
" id="CMSS17-111"/>
     <path d="M 16.796875 37.1875 
L 26.90625 37.1875 
L 26.90625 43 
L 16.59375 43 
L 16.59375 55.671875 
C 16.59375 62.703125 22 63.890625 25.09375 63.890625 
C 26.09375 63.890625 28.90625 63.890625 32.5 62.609375 
L 32.5 69.1875 
C 30.203125 69.6875 27.40625 70 25.203125 70 
C 15.90625 70 9.40625 62.40625 9.40625 52.59375 
L 9.40625 43 
L 2.5 43 
L 2.5 37.1875 
L 9.40625 37.1875 
L 9.40625 0 
L 16.796875 0 
z
" id="CMSS17-102"/>
     <path d="M 67 29.34375 
C 67 36.078125 65.296875 44 54.09375 44 
C 46.59375 44 42.09375 39.296875 40.09375 36.375 
C 38.296875 41.6875 34.09375 44 28.09375 44 
C 21.296875 44 17 40.09375 14.703125 37.28125 
L 14.703125 43.484375 
L 7.40625 43.484375 
L 7.40625 0 
L 15 0 
L 15 24.3125 
C 15 30.25 17.203125 37.890625 24.296875 37.890625 
C 33.40625 37.890625 33.40625 31.453125 33.40625 28.53125 
L 33.40625 0 
L 41 0 
L 41 24.3125 
C 41 30.25 43.203125 37.890625 50.296875 37.890625 
C 59.40625 37.890625 59.40625 31.453125 59.40625 28.53125 
L 59.40625 0 
L 67 0 
z
" id="CMSS17-109"/>
     <path d="M 15.09375 4.296875 
C 18.40625 1.09375 22.90625 -1 27.703125 -1 
C 37 -1 45 8.640625 45 21.59375 
C 45 33.546875 39 44 30.40625 44 
C 25.40625 44 19.40625 42.1875 14.90625 38.59375 
L 14.90625 43.1875 
L 7.5 43.1875 
L 7.5 -20 
L 15.09375 -20 
z
M 15.09375 32.625 
C 15.90625 33.84375 19.296875 37.6875 24.796875 37.6875 
C 31.796875 37.6875 37.40625 30.40625 37.40625 21.59375 
C 37.40625 11.578125 30.59375 5.09375 23.90625 5.09375 
C 21.90625 5.09375 19.796875 5.59375 17.796875 7.3125 
C 15.09375 9.75 15.09375 11.265625 15.09375 12.6875 
z
" id="CMSS17-112"/>
     <path d="M 14.90625 21.390625 
C 14.90625 30.84375 21.796875 37.171875 30.59375 37.375 
L 30.59375 44 
C 24.203125 43.890625 18.203125 40.6875 14.59375 35.46875 
L 14.59375 43.484375 
L 7.5 43.484375 
L 7.5 0 
L 14.90625 0 
z
" id="CMSS17-114"/>
     <path d="M 32.203125 40.984375 
C 26.296875 43.796875 21.703125 44 18.703125 44 
C 11.59375 44 3.09375 41.484375 3.09375 31.390625 
C 3.09375 21.296875 14.09375 19.09375 17.09375 18.484375 
C 21.703125 17.59375 26.796875 16.59375 26.796875 11.59375 
C 26.796875 5.296875 19.59375 5.296875 18.296875 5.296875 
C 14.296875 5.296875 8.796875 6.390625 3.796875 9.984375 
L 2.59375 3.296875 
C 8.296875 0 13.796875 -1 18.40625 -1 
C 30.703125 -1 33.796875 6.5 33.796875 12.1875 
C 33.796875 17.09375 31 20.390625 29.09375 21.890625 
C 25.796875 24.484375 24.59375 24.796875 16.40625 26.484375 
C 15 26.6875 10.09375 27.796875 10.09375 32.296875 
C 10.09375 37.984375 16.40625 37.984375 17.796875 37.984375 
C 24.296875 37.984375 28.296875 35.984375 31 34.484375 
z
" id="CMSS17-115"/>
     <path d="M 15.296875 66 
L 6.90625 66 
L 6.90625 57.59375 
L 15.296875 57.59375 
z
M 14.796875 43 
L 7.40625 43 
L 7.40625 0 
L 14.796875 0 
z
" id="CMSS17-105"/>
     <path d="M 14.90625 69 
L 7.5 69 
L 7.5 -0.203125 
L 15.09375 -0.203125 
L 15.09375 4.296875 
C 18.90625 0.59375 23.5 -1 27.59375 -1 
C 37.203125 -1 45 8.734375 45 21.59375 
C 45 33.328125 39 44 30.09375 44 
C 23.796875 44 18.203125 41.390625 14.90625 38.6875 
z
M 15.09375 32.734375 
C 17.296875 35.5625 20.40625 37.890625 24.796875 37.890625 
C 30.703125 37.890625 37.40625 33.53125 37.40625 21.59375 
C 37.40625 8.84375 29.40625 5.09375 23.90625 5.09375 
C 21.90625 5.09375 19.796875 5.59375 17.796875 7.3125 
C 15.09375 9.75 15.09375 11.265625 15.09375 12.6875 
z
" id="CMSS17-98"/>
     <path d="M 14.796875 69 
L 7.40625 69 
L 7.40625 0 
L 14.796875 0 
z
" id="CMSS17-108"/>
     <path d="M 41.796875 43 
L 34 43 
C 25.5 20.203125 22.59375 10.953125 22.40625 5.984375 
L 22.296875 5.984375 
C 22 10.859375 17.59375 22.796875 14.09375 31.34375 
L 9.40625 43 
L 1.296875 43 
L 19 0.21875 
C 17.90625 -2.765625 16.296875 -7.25 15.796875 -8.234375 
C 13.59375 -13.8125 12.09375 -13.8125 10.5 -13.8125 
C 10.09375 -13.8125 6.90625 -13.703125 3.296875 -12.609375 
L 3.90625 -19.203125 
C 6.40625 -19.703125 8.90625 -20 10.703125 -20 
C 13.203125 -20 18.203125 -20 22.796875 -7.734375 
z
" id="CMSS17-121"/>
     <path d="M 40.90625 29.34375 
C 40.90625 35.671875 39.40625 44 28.09375 44 
C 21.703125 44 17.5 40.6875 14.703125 37.28125 
L 14.703125 43.484375 
L 7.40625 43.484375 
L 7.40625 0 
L 15 0 
L 15 24.3125 
C 15 30.65625 17.40625 37.890625 24.203125 37.890625 
C 33 37.890625 33.296875 31.953125 33.296875 28.53125 
L 33.296875 0 
L 40.90625 0 
z
" id="CMSS17-110"/>
     <path d="M 40.90625 29.34375 
C 40.90625 35.671875 39.40625 44 28.09375 44 
C 21.796875 44 17.703125 40.890625 14.796875 37.484375 
L 14.796875 69 
L 7.40625 69 
L 7.40625 0 
L 15 0 
L 15 24.3125 
C 15 30.65625 17.40625 37.890625 24.203125 37.890625 
C 33 37.890625 33.296875 31.953125 33.296875 28.53125 
L 33.296875 0 
L 40.90625 0 
z
" id="CMSS17-104"/>
     <path d="M 40.796875 69 
L 33.40625 69 
L 33.40625 38.984375 
C 30.296875 41.59375 25.203125 44 19.59375 44 
C 10.5 44 3.296875 34.046875 3.296875 21.484375 
C 3.296875 8.9375 10.40625 -1 19.296875 -1 
C 26.203125 -1 30.796875 2.6875 33.203125 4.796875 
L 33.203125 -0.203125 
L 40.796875 -0.203125 
z
M 33.203125 13.296875 
C 33.203125 11.875 33.203125 10.359375 30.09375 7.625 
C 28.09375 5.90625 25.703125 5.09375 23.40625 5.09375 
C 18 5.09375 10.90625 9.140625 10.90625 21.390625 
C 10.90625 34.140625 18.90625 37.890625 24.40625 37.890625 
C 28.09375 37.890625 31.09375 36.0625 33.203125 33.03125 
z
" id="CMSS17-100"/>
     <path d="M 37.59375 27.953125 
C 37.59375 37.484375 30.90625 44 21.90625 44 
C 17.5 44 12.703125 43.1875 7.203125 39.984375 
L 7.796875 33.328125 
C 10.296875 35.15625 14.59375 38.09375 21.796875 38.09375 
C 26.90625 38.09375 30 34.140625 30 27.84375 
L 30 24 
C 14 23.5 4 18.890625 4 11.109375 
C 4 7.0625 6.5 -1 14.796875 -1 
C 16.296875 -1 24.40625 -0.8125 30.203125 3.5 
L 30.203125 -0.203125 
L 37.59375 -0.203125 
z
M 30 12.875 
C 30 11.109375 30 8.734375 27 6.96875 
C 24.40625 5.296875 21.09375 5.09375 19.703125 5.09375 
C 14.703125 5.09375 11.296875 7.859375 11.296875 11.296875 
C 11.296875 18.203125 26.90625 18.890625 30 19 
z
" id="CMSS17-97"/>
     <path d="M 44.5 44 
C 38.796875 43.890625 33.90625 42.796875 29.90625 40.890625 
C 26.59375 43.484375 23.203125 44 20.90625 44 
C 12.203125 44 5.59375 36.8125 5.59375 28.5 
C 5.59375 23.140625 8.59375 19.09375 8.796875 18.890625 
C 7 16.390625 6 13.6875 6 10.6875 
C 6 7.1875 7.40625 4.6875 8.5 3.296875 
C 3.296875 0.09375 2.59375 -4.8125 2.59375 -6.703125 
C 2.59375 -14 11.703125 -20 23.40625 -20 
C 35.203125 -20 44.296875 -14 44.296875 -6.609375 
C 44.296875 7.1875 29 7.296875 24.796875 7.296875 
L 16.703125 7.296875 
C 15.203125 7.296875 11.203125 7.296875 11.203125 12.390625 
C 11.203125 14.390625 12.09375 15.6875 12.203125 15.796875 
C 13.703125 14.6875 16.796875 13 20.90625 13 
C 29.203125 13 36.09375 19.984375 36.09375 28.5 
C 36.09375 33.25 33.90625 36.703125 33 37.890625 
L 33.296875 37.890625 
C 33.59375 37.890625 37.796875 38.1875 39.296875 38.1875 
C 42.5 38.1875 42.796875 38.09375 45.59375 37.796875 
z
M 20.90625 18.5 
C 17.5 18.5 12.703125 20.578125 12.703125 28.5 
C 12.703125 37.109375 18.203125 38.484375 20.796875 38.484375 
C 24.203125 38.484375 29 36.40625 29 28.5 
C 29 19.875 23.5 18.5 20.90625 18.5 
z
M 24.703125 0 
C 27.09375 0 37.203125 0 37.203125 -6.8125 
C 37.203125 -11.109375 31 -14.5 23.5 -14.5 
C 15.90625 -14.5 9.703125 -11.203125 9.703125 -6.703125 
C 9.703125 -6.203125 9.703125 0 16.59375 0 
z
" id="CMSS17-103"/>
     <path d="M 22.90625 65.296875 
L 21.09375 69 
L 8.796875 69 
L 8.796875 0 
L 16.59375 0 
L 16.59375 61.328125 
L 16.703125 61.421875 
C 17.40625 59.640625 17.796875 58.734375 21.90625 49.890625 
L 43.296875 3.6875 
L 45.09375 0 
L 57.40625 0 
L 57.40625 69 
L 49.59375 69 
L 49.59375 7.65625 
L 49.5 7.5625 
C 48.796875 9.34375 48.40625 10.234375 44.296875 19.09375 
z
" id="CMSS17-78"/>
     <path d="M 35.5 69 
L 26.90625 69 
L 2.59375 0 
L 10.203125 0 
L 17.203125 20 
L 44 20 
L 51.09375 0 
L 59.796875 0 
z
M 42.09375 25.59375 
L 19.09375 25.59375 
C 23.90625 39.53125 29.90625 56.84375 30.59375 61.3125 
L 30.703125 61.3125 
C 31.40625 57.234375 33.40625 51.265625 35.09375 46.1875 
z
" id="CMSS17-65"/>
     <path d="M 54.703125 11.015625 
C 48 6.5 44.90625 5.1875 36.796875 5.1875 
C 22.796875 5.1875 14.59375 20.375 14.59375 34.234375 
C 14.59375 49.015625 23 63.59375 37.203125 63.59375 
C 43.59375 63.59375 47.796875 61.78125 52.90625 58.5625 
L 54.296875 66.484375 
C 49.5 68.890625 43.40625 70 37.296875 70 
C 18.09375 70 6.203125 52.234375 6.203125 34.234375 
C 6.203125 14.4375 20.296875 -1.203125 36.296875 -1.203125 
C 44.90625 -1.203125 47.90625 -0.5 55.296875 4.1875 
z
" id="CMSS17-67"/>
     <path d="M 43.09375 32.390625 
C 43.09375 38.109375 43 48.75 38.90625 56.984375 
C 34.796875 64.890625 28.203125 67 23.5 67 
C 16.703125 67 10.90625 62.984375 7.90625 56.578125 
C 4.703125 49.859375 3.796875 42.9375 3.796875 32.390625 
C 3.796875 25.171875 4.09375 16.34375 7.703125 8.609375 
C 11.796875 0.09375 18.703125 -2 23.40625 -2 
C 29.59375 -2 35.59375 1.296875 39 8.203125 
C 42.5 15.4375 43.09375 23.359375 43.09375 32.390625 
z
M 23.40625 4.09375 
C 15.796875 4.09375 13.5 12.828125 12.796875 15.734375 
C 11.59375 20.75 11.40625 25.5625 11.40625 33.5 
C 11.40625 39.71875 11.40625 46.75 13.296875 52.265625 
C 15.59375 58.6875 19.59375 60.890625 23.40625 60.890625 
C 30.796875 60.890625 33.203125 53.46875 34 50.859375 
C 35.5 45.546875 35.5 39.3125 35.5 33.5 
C 35.5 24.15625 35.5 4.09375 23.40625 4.09375 
z
" id="CMSS17-48"/>
     <path d="M 28.40625 67 
L 26.5 67 
C 21.09375 61.703125 14.796875 60.96875 8.40625 60.796875 
L 8.40625 55 
C 11.296875 55.09375 16 55.296875 20.703125 57.390625 
L 20.703125 5.796875 
L 8.90625 5.796875 
L 8.90625 0 
L 40.203125 0 
L 40.203125 5.796875 
L 28.40625 5.796875 
z
" id="CMSS17-49"/>
     <path d="M 25.796875 21.140625 
C 28.59375 24.03125 32.796875 27.515625 35.703125 31 
C 38.5 34.390625 42.203125 39.171875 42.203125 46.140625 
C 42.203125 57.109375 34.796875 67 22.203125 67 
C 12.296875 67 6.59375 60.796875 3.90625 51.125 
L 7.796875 45.75 
C 10 54.8125 13.09375 60.59375 20.90625 60.59375 
C 29.5 60.59375 34.296875 53.609375 34.296875 45.9375 
C 34.296875 36.78125 27.296875 29.703125 22 24.421875 
C 16.09375 18.546875 10.296875 12.578125 4.703125 6.390625 
L 4.703125 0 
L 42.203125 0 
L 42.203125 6.796875 
L 25.203125 6.796875 
C 24 6.796875 22.796875 6.6875 21.59375 6.6875 
L 11.59375 6.6875 
L 11.59375 6.796875 
z
" id="CMSS17-50"/>
     <path d="M 26 19 
L 26 24.796875 
L 1 24.796875 
L 1 19 
z
" id="CMSS17-45"/>
     <path d="M 15.703125 32.1875 
L 22.5 32.1875 
C 31.90625 32.1875 34.59375 23.9375 34.59375 18.1875 
C 34.59375 10.34375 30.203125 4.1875 23 4.1875 
C 17.40625 4.1875 9.5 7.015625 5 14.46875 
C 4.296875 10.9375 4.296875 10.734375 3.90625 8.328125 
C 8.59375 1.390625 16.203125 -2 23.203125 -2 
C 34.59375 -2 43 7.515625 43 18.09375 
C 43 26.046875 37.5 32.6875 30 35.1875 
C 36 38.484375 40.40625 44.6875 40.40625 51.890625 
C 40.40625 60.296875 32.703125 67 23.296875 67 
C 14.703125 67 8 61.6875 5.203125 55.984375 
C 5.90625 54.984375 7.703125 52.09375 8.59375 50.59375 
C 10.796875 56.484375 16.5 60.890625 23.203125 60.890625 
C 28.796875 60.890625 32.5 57.1875 32.5 51.890625 
C 32.5 46.390625 29 40.390625 23.09375 39 
C 22.703125 39 16.5 38.390625 15.703125 38.296875 
z
" id="CMSS17-51"/>
     <path d="M 35.203125 17 
L 44.296875 17 
L 44.296875 23.09375 
L 35.203125 23.09375 
L 35.203125 66 
L 26.40625 66 
L 2.59375 23.09375 
L 2.59375 17 
L 27.296875 17 
L 27.296875 0 
L 35.203125 0 
z
M 10.296875 23.09375 
C 16.09375 33.421875 27.59375 54.28125 27.59375 61.359375 
L 27.59375 23.09375 
z
" id="CMSS17-52"/>
    </defs>
    <g transform="translate(95.23826 17.577725)scale(0.15 -0.15)">
     <use transform="scale(0.996264)" xlink:href="#CMSS17-69"/>
     <use transform="translate(55.892013 0)scale(0.996264)" xlink:href="#CMSS17-11"/>
     <use transform="translate(110.542983 0)scale(0.996264)" xlink:href="#CMSS17-101"/>
     <use transform="translate(152.181805 0)scale(0.996264)" xlink:href="#CMSS17-99"/>
     <use transform="translate(193.820627 0)scale(0.996264)" xlink:href="#CMSS17-116"/>
     <use transform="translate(258.881307 0)scale(0.996264)" xlink:href="#CMSS17-111"/>
     <use transform="translate(305.72493 0)scale(0.996264)" xlink:href="#CMSS17-102"/>
     <use transform="translate(365.580702 0)scale(0.996264)" xlink:href="#CMSS17-99"/>
     <use transform="translate(407.219524 0)scale(0.996264)" xlink:href="#CMSS17-111"/>
     <use transform="translate(454.063148 0)scale(0.996264)" xlink:href="#CMSS17-109"/>
     <use transform="translate(528.292402 0)scale(0.996264)" xlink:href="#CMSS17-112"/>
     <use transform="translate(573.894891 0)scale(0.996264)" xlink:href="#CMSS17-114"/>
     <use transform="translate(605.804664 0)scale(0.996264)" xlink:href="#CMSS17-101"/>
     <use transform="translate(647.443486 0)scale(0.996264)" xlink:href="#CMSS17-115"/>
     <use transform="translate(683.357028 0)scale(0.996264)" xlink:href="#CMSS17-115"/>
     <use transform="translate(719.27057 0)scale(0.996264)" xlink:href="#CMSS17-105"/>
     <use transform="translate(741.451293 0)scale(0.996264)" xlink:href="#CMSS17-98"/>
     <use transform="translate(789.656236 0)scale(0.996264)" xlink:href="#CMSS17-105"/>
     <use transform="translate(811.836959 0)scale(0.996264)" xlink:href="#CMSS17-108"/>
     <use transform="translate(834.017682 0)scale(0.996264)" xlink:href="#CMSS17-105"/>
     <use transform="translate(856.198405 0)scale(0.996264)" xlink:href="#CMSS17-116"/>
     <use transform="translate(887.427518 0)scale(0.996264)" xlink:href="#CMSS17-121"/>
     <use transform="translate(961.656772 0)scale(0.996264)" xlink:href="#CMSS17-111"/>
     <use transform="translate(1008.500396 0)scale(0.996264)" xlink:href="#CMSS17-110"/>
     <use transform="translate(1087.934452 0)scale(0.996264)" xlink:href="#CMSS17-116"/>
     <use transform="translate(1121.766018 0)scale(0.996264)" xlink:href="#CMSS17-104"/>
     <use transform="translate(1169.970962 0)scale(0.996264)" xlink:href="#CMSS17-101"/>
     <use transform="translate(1242.838896 0)scale(0.996264)" xlink:href="#CMSS17-100"/>
     <use transform="translate(1291.04384 0)scale(0.996264)" xlink:href="#CMSS17-114"/>
     <use transform="translate(1322.953612 0)scale(0.996264)" xlink:href="#CMSS17-97"/>
     <use transform="translate(1367.875533 0)scale(0.996264)" xlink:href="#CMSS17-103"/>
     <use transform="translate(1445.948269 0)scale(0.996264)" xlink:href="#CMSS17-111"/>
     <use transform="translate(1492.791892 0)scale(0.996264)" xlink:href="#CMSS17-102"/>
     <use transform="translate(1552.647664 0)scale(0.996264)" xlink:href="#CMSS17-78"/>
     <use transform="translate(1618.709183 0)scale(0.996264)" xlink:href="#CMSS17-65"/>
     <use transform="translate(1678.324584 0)scale(0.996264)" xlink:href="#CMSS17-67"/>
     <use transform="translate(1738.180356 0)scale(0.996264)" xlink:href="#CMSS17-65"/>
     <use transform="translate(1800.398211 0)scale(0.996264)" xlink:href="#CMSS17-48"/>
     <use transform="translate(1847.241834 0)scale(0.996264)" xlink:href="#CMSS17-48"/>
     <use transform="translate(1894.085458 0)scale(0.996264)" xlink:href="#CMSS17-49"/>
     <use transform="translate(1940.929081 0)scale(0.996264)" xlink:href="#CMSS17-50"/>
     <use transform="translate(1987.772705 0)scale(0.996264)" xlink:href="#CMSS17-45"/>
     <use transform="translate(2019.001818 0)scale(0.996264)" xlink:href="#CMSS17-51"/>
     <use transform="translate(2065.845441 0)scale(0.996264)" xlink:href="#CMSS17-52"/>
     <use transform="translate(2143.918177 0)scale(0.996264)" xlink:href="#CMSS17-97"/>
     <use transform="translate(2188.840098 0)scale(0.996264)" xlink:href="#CMSS17-105"/>
     <use transform="translate(2211.020821 0)scale(0.996264)" xlink:href="#CMSS17-114"/>
     <use transform="translate(2242.930594 0)scale(0.996264)" xlink:href="#CMSS17-102"/>
     <use transform="translate(2271.557252 0)scale(0.996264)" xlink:href="#CMSS17-111"/>
     <use transform="translate(2318.400876 0)scale(0.996264)" xlink:href="#CMSS17-105"/>
     <use transform="translate(2340.581599 0)scale(0.996264)" xlink:href="#CMSS17-108"/>
    </g>
   </g>
   <g id="legend_1">
    <g id="patch_7">
     <path d="M 63.280936 143.075151 
L 143.433692 143.075151 
Q 145.433692 143.075151 145.433692 141.075151 
L 145.433692 30.577725 
Q 145.433692 28.577725 143.433692 28.577725 
L 63.280936 28.577725 
Q 61.280936 28.577725 61.280936 30.577725 
L 61.280936 141.075151 
Q 61.280936 143.075151 63.280936 143.075151 
z
" style="fill:#ffffff;opacity:0.8;stroke:#cccccc;stroke-linejoin:miter;"/>
    </g>
    <g id="line2d_22">
     <path d="M 65.280936 36.077725 
L 85.280936 36.077725 
" style="fill:none;stroke:#000000;stroke-dasharray:1.5,2.475;stroke-dashoffset:0;stroke-width:1.5;"/>
    </g>
    <g id="line2d_23"/>
    <g id="text_18">
     <!-- cubic spline -->
     <defs>
      <path d="M 40.90625 43 
L 33.296875 43 
L 33.296875 15.25 
C 33.296875 7.8125 27.90625 4.796875 22.203125 4.796875 
C 15.59375 4.796875 15 7 15 11.125 
L 15 43 
L 7.40625 43 
L 7.40625 10.625 
C 7.40625 2.796875 10.09375 -1 17 -1 
C 20.40625 -1 28.09375 -0.203125 33.5 4.796875 
L 33.5 -0.203125 
L 40.90625 -0.203125 
z
" id="CMSS17-117"/>
     </defs>
     <g transform="translate(93.280936 39.577725)scale(0.1 -0.1)">
      <use transform="scale(0.996264)" xlink:href="#CMSS17-99"/>
      <use transform="translate(41.638822 0)scale(0.996264)" xlink:href="#CMSS17-117"/>
      <use transform="translate(89.843765 0)scale(0.996264)" xlink:href="#CMSS17-98"/>
      <use transform="translate(138.048708 0)scale(0.996264)" xlink:href="#CMSS17-105"/>
      <use transform="translate(160.229431 0)scale(0.996264)" xlink:href="#CMSS17-99"/>
      <use transform="translate(233.097366 0)scale(0.996264)" xlink:href="#CMSS17-115"/>
      <use transform="translate(269.010908 0)scale(0.996264)" xlink:href="#CMSS17-112"/>
      <use transform="translate(317.215851 0)scale(0.996264)" xlink:href="#CMSS17-108"/>
      <use transform="translate(339.396574 0)scale(0.996264)" xlink:href="#CMSS17-105"/>
      <use transform="translate(361.577297 0)scale(0.996264)" xlink:href="#CMSS17-110"/>
      <use transform="translate(409.782241 0)scale(0.996264)" xlink:href="#CMSS17-101"/>
     </g>
    </g>
    <g id="PathCollection_8">
     <g>
      <use style="stroke:#000000;stroke-width:1.5;" x="75.280936" xlink:href="#m9ec7428845" y="50.889903"/>
     </g>
    </g>
    <g id="text_19">
     <!-- $\alpha=0^\circ$ -->
     <defs>
      <path d="M 46.296875 25.234375 
C 46.296875 34.90625 40.796875 44 30.203125 44 
C 17.09375 44 4 29.71875 4 15.5625 
C 4 6.875 9.40625 -1 19.59375 -1 
C 25.796875 -1 33.203125 1.390625 40.296875 7.375 
C 41.703125 1.796875 44.796875 -1 49.09375 -1 
C 54.5 -1 57.203125 4.578125 57.203125 5.875 
C 57.203125 6.78125 56.5 6.78125 56.203125 6.78125 
C 55.40625 6.78125 55.296875 6.484375 55 5.6875 
C 54.09375 3.1875 51.796875 1 49.40625 1 
C 46.296875 1 46.296875 7.375 46.296875 13.46875 
C 56.5 25.640625 58.90625 38.203125 58.90625 38.296875 
C 58.90625 39.203125 58.09375 39.203125 57.796875 39.203125 
C 56.90625 39.203125 56.796875 38.90625 56.40625 37.109375 
C 55.09375 32.71875 52.5 24.9375 46.296875 16.75 
z
M 40 9.765625 
C 31.203125 1.890625 23.296875 1 19.796875 1 
C 12.703125 1 10.703125 7.28125 10.703125 11.96875 
C 10.703125 16.25 12.90625 26.4375 16 31.921875 
C 20.09375 38.90625 25.703125 41.984375 30.203125 41.984375 
C 39.90625 41.984375 39.90625 29.328125 39.90625 20.9375 
C 39.90625 18.453125 39.796875 15.859375 39.796875 13.359375 
C 39.796875 11.375 39.90625 10.875 40 9.765625 
z
" id="CMMI12-11"/>
      <path d="M 64.296875 32 
C 65.796875 32 67.296875 32 67.296875 33.6875 
C 67.296875 35.5 65.59375 35.5 63.90625 35.5 
L 8 35.5 
C 6.296875 35.5 4.59375 35.5 4.59375 33.6875 
C 4.59375 32 6.09375 32 7.59375 32 
z
M 63.90625 14.484375 
C 65.59375 14.484375 67.296875 14.484375 67.296875 16.296875 
C 67.296875 18 65.796875 18 64.296875 18 
L 7.59375 18 
C 6.09375 18 4.59375 18 4.59375 16.296875 
C 4.59375 14.484375 6.296875 14.484375 8 14.484375 
z
" id="CMR17-61"/>
      <path d="M 44.40625 24.984375 
C 44.40625 35.40625 35.5 44 25 44 
C 14.203125 44 5.5 35.21875 5.5 24.984375 
C 5.5 14.671875 14.203125 5.984375 25 5.984375 
C 35.5 5.984375 44.40625 14.5625 44.40625 24.984375 
z
M 25 10 
C 16.296875 10 9.5 16.8125 9.5 24.984375 
C 9.5 33.171875 16.40625 40 25 40 
C 33.296875 40 40.40625 33.375 40.40625 24.984375 
C 40.40625 16.609375 33.296875 10 25 10 
z
" id="CMSY10-14"/>
     </defs>
     <g transform="translate(93.280936 53.514903)scale(0.1 -0.1)">
      <use transform="scale(0.996264)" xlink:href="#CMMI12-11"/>
      <use transform="translate(90.355032 0)scale(0.996264)" xlink:href="#CMR17-61"/>
      <use transform="translate(189.743829 0)scale(0.996264)" xlink:href="#CMR17-48"/>
      <use transform="translate(235.434306 36.153639)scale(0.697382)" xlink:href="#CMSY10-14"/>
     </g>
    </g>
    <g id="PathCollection_9">
     <g>
      <use style="stroke:#000000;" x="75.280936" xlink:href="#m2f85ca5bbd" y="64.827081"/>
     </g>
    </g>
    <g id="text_20">
     <!-- $\alpha=1^\circ$ -->
     <g transform="translate(93.280936 67.452081)scale(0.1 -0.1)">
      <use transform="scale(0.996264)" xlink:href="#CMMI12-11"/>
      <use transform="translate(90.355032 0)scale(0.996264)" xlink:href="#CMR17-61"/>
      <use transform="translate(189.743829 0)scale(0.996264)" xlink:href="#CMR17-49"/>
      <use transform="translate(235.434306 36.153639)scale(0.697382)" xlink:href="#CMSY10-14"/>
     </g>
    </g>
    <g id="PathCollection_10">
     <g>
      <use style="stroke:#000000;" x="75.280936" xlink:href="#me7f59b66bd" y="78.76426"/>
     </g>
    </g>
    <g id="text_21">
     <!-- $\alpha=2^\circ$ -->
     <g transform="translate(93.280936 81.38926)scale(0.1 -0.1)">
      <use transform="scale(0.996264)" xlink:href="#CMMI12-11"/>
      <use transform="translate(90.355032 0)scale(0.996264)" xlink:href="#CMR17-61"/>
      <use transform="translate(189.743829 0)scale(0.996264)" xlink:href="#CMR17-50"/>
      <use transform="translate(235.434306 36.153639)scale(0.697382)" xlink:href="#CMSY10-14"/>
     </g>
    </g>
    <g id="PathCollection_11">
     <g>
      <use style="stroke:#000000;stroke-width:1.5;" x="75.280936" xlink:href="#mdb4aa644ef" y="92.701438"/>
     </g>
    </g>
    <g id="text_22">
     <!-- $\alpha=3^\circ$ -->
     <defs>
      <path d="M 22.09375 34 
C 31 34 34.90625 26.140625 34.90625 17.09375 
C 34.90625 5.03125 28.5 0.390625 22.703125 0.390625 
C 17.40625 0.390625 8.796875 3.015625 6.09375 10.796875 
C 6.59375 10.59375 7.09375 10.59375 7.59375 10.59375 
C 10 10.59375 11.796875 12.1875 11.796875 14.796875 
C 11.796875 17.6875 9.59375 19 7.59375 19 
C 5.90625 19 3.296875 18.1875 3.296875 14.484375 
C 3.296875 5.234375 12.296875 -2 22.90625 -2 
C 34 -2 42.5 6.75 42.5 16.984375 
C 42.5 26.84375 34.5 34 25 35.09375 
C 32.59375 36.671875 39.90625 43.375 39.90625 52.390625 
C 39.90625 60.25 32 66 23 66 
C 13.90625 66 5.90625 60.34375 5.90625 52.296875 
C 5.90625 48.796875 8.5 48.1875 9.796875 48.1875 
C 11.90625 48.1875 13.703125 49.484375 13.703125 52.09375 
C 13.703125 54.6875 11.90625 56 9.796875 56 
C 9.40625 56 8.90625 56 8.5 55.796875 
C 11.40625 62.484375 19.296875 63.6875 22.796875 63.6875 
C 26.296875 63.6875 32.90625 61.96875 32.90625 52.296875 
C 32.90625 49.484375 32.5 44.546875 29.09375 40.21875 
C 26.09375 36.390625 22.703125 36.1875 19.40625 35.890625 
C 18.90625 35.890625 16.59375 35.6875 16.203125 35.6875 
C 15.5 35.59375 15.09375 35.5 15.09375 34.796875 
C 15.09375 34.09375 15.203125 34 17.203125 34 
z
" id="CMR17-51"/>
     </defs>
     <g transform="translate(93.280936 95.326438)scale(0.1 -0.1)">
      <use transform="scale(0.996264)" xlink:href="#CMMI12-11"/>
      <use transform="translate(90.355032 0)scale(0.996264)" xlink:href="#CMR17-61"/>
      <use transform="translate(189.743829 0)scale(0.996264)" xlink:href="#CMR17-51"/>
      <use transform="translate(235.434306 36.153639)scale(0.697382)" xlink:href="#CMSY10-14"/>
     </g>
    </g>
    <g id="PathCollection_12">
     <g>
      <use style="stroke:#000000;" x="75.280936" xlink:href="#m7b9e5a1d95" y="106.638616"/>
     </g>
    </g>
    <g id="text_23">
     <!-- $\alpha=4^\circ$ -->
     <g transform="translate(93.280936 109.263616)scale(0.1 -0.1)">
      <use transform="scale(0.996264)" xlink:href="#CMMI12-11"/>
      <use transform="translate(90.355032 0)scale(0.996264)" xlink:href="#CMR17-61"/>
      <use transform="translate(189.743829 0)scale(0.996264)" xlink:href="#CMR17-52"/>
      <use transform="translate(235.434306 36.153639)scale(0.697382)" xlink:href="#CMSY10-14"/>
     </g>
    </g>
    <g id="PathCollection_13">
     <g>
      <use style="stroke:#000000;" x="75.280936" xlink:href="#m9249bc9f85" y="120.575795"/>
     </g>
    </g>
    <g id="text_24">
     <!-- $\alpha=5^\circ$ -->
     <g transform="translate(93.280936 123.200795)scale(0.1 -0.1)">
      <use transform="scale(0.996264)" xlink:href="#CMMI12-11"/>
      <use transform="translate(90.355032 0)scale(0.996264)" xlink:href="#CMR17-61"/>
      <use transform="translate(189.743829 0)scale(0.996264)" xlink:href="#CMR17-53"/>
      <use transform="translate(235.434306 36.153639)scale(0.697382)" xlink:href="#CMSY10-14"/>
     </g>
    </g>
    <g id="PathCollection_14">
     <g>
      <use style="stroke:#000000;" x="75.280936" xlink:href="#m704a040613" y="134.512973"/>
     </g>
    </g>
    <g id="text_25">
     <!-- $\alpha=6^\circ$ -->
     <g transform="translate(93.280936 137.137973)scale(0.1 -0.1)">
      <use transform="scale(0.996264)" xlink:href="#CMMI12-11"/>
      <use transform="translate(90.355032 0)scale(0.996264)" xlink:href="#CMR17-61"/>
      <use transform="translate(189.743829 0)scale(0.996264)" xlink:href="#CMR17-54"/>
      <use transform="translate(235.434306 36.153639)scale(0.697382)" xlink:href="#CMSY10-14"/>
     </g>
    </g>
   </g>
  </g>
 </g>
 <defs>
  <clipPath id="p5868373b53">
   <rect height="277.2" width="446.4" x="56.280936" y="23.577725"/>
  </clipPath>
 </defs>
</svg>
