<?xml version="1.0" encoding="utf-8" standalone="no"?>
<!DOCTYPE svg PUBLIC "-//W3C//DTD SVG 1.1//EN"
  "http://www.w3.org/Graphics/SVG/1.1/DTD/svg11.dtd">
<!-- Created with matplotlib (https://matplotlib.org/) -->
<svg height="341.116871pt" version="1.1" viewBox="0 0 504.899601 341.116871" width="504.899601pt" xmlns="http://www.w3.org/2000/svg" xmlns:xlink="http://www.w3.org/1999/xlink">
 <defs>
  <style type="text/css">
*{stroke-linecap:butt;stroke-linejoin:round;}
  </style>
 </defs>
 <g id="figure_1">
  <g id="patch_1">
   <path d="M 0 341.116871 
L 504.899601 341.116871 
L 504.899601 0 
L 0 0 
z
" style="fill:#ffffff;"/>
  </g>
  <g id="axes_1">
   <g id="patch_2">
    <path d="M 51.299601 300.777725 
L 497.699601 300.777725 
L 497.699601 23.577725 
L 51.299601 23.577725 
z
" style="fill:#ffffff;"/>
   </g>
   <g id="PathCollection_1">
    <defs>
     <path d="M -3.872983 3.872983 
L 3.872983 -3.872983 
M -3.872983 -3.872983 
L 3.872983 3.872983 
" id="m5d62d749c7" style="stroke:#000000;stroke-width:1.5;"/>
    </defs>
    <g clip-path="url(#pf137677014)">
     <use style="stroke:#000000;stroke-width:1.5;" x="74.808948" xlink:href="#m5d62d749c7" y="283.496451"/>
     <use style="stroke:#000000;stroke-width:1.5;" x="149.125932" xlink:href="#m5d62d749c7" y="283.326892"/>
     <use style="stroke:#000000;stroke-width:1.5;" x="223.465072" xlink:href="#m5d62d749c7" y="284.84423"/>
     <use style="stroke:#000000;stroke-width:1.5;" x="260.479553" xlink:href="#m5d62d749c7" y="282.839953"/>
     <use style="stroke:#000000;stroke-width:1.5;" x="297.53096" xlink:href="#m5d62d749c7" y="285.444208"/>
     <use style="stroke:#000000;stroke-width:1.5;" x="311.429853" xlink:href="#m5d62d749c7" y="282.522573"/>
     <use style="stroke:#000000;stroke-width:1.5;" x="333.747843" xlink:href="#m5d62d749c7" y="282.057372"/>
     <use style="stroke:#000000;stroke-width:1.5;" x="356.080602" xlink:href="#m5d62d749c7" y="283.126899"/>
     <use style="stroke:#000000;stroke-width:1.5;" x="371.294056" xlink:href="#m5d62d749c7" y="280.974802"/>
     <use style="stroke:#000000;stroke-width:1.5;" x="386.500125" xlink:href="#m5d62d749c7" y="277.592313"/>
     <use style="stroke:#000000;stroke-width:1.5;" x="408.552248" xlink:href="#m5d62d749c7" y="277.127112"/>
     <use style="stroke:#000000;stroke-width:1.5;" x="422.207431" xlink:href="#m5d62d749c7" y="276.970596"/>
     <use style="stroke:#000000;stroke-width:1.5;" x="445.049767" xlink:href="#m5d62d749c7" y="276.044542"/>
     <use style="stroke:#000000;stroke-width:1.5;" x="459.473008" xlink:href="#m5d62d749c7" y="273.127254"/>
     <use style="stroke:#000000;stroke-width:1.5;" x="474.199041" xlink:href="#m5d62d749c7" y="275.579341"/>
    </g>
   </g>
   <g id="PathCollection_2">
    <defs>
     <path d="M -3.872983 -0 
L 3.872983 3.872983 
L 3.872983 -3.872983 
z
" id="m36c92974e6" style="stroke:#000000;"/>
    </defs>
    <g clip-path="url(#pf137677014)">
     <use style="stroke:#000000;" x="74.956651" xlink:href="#m36c92974e6" y="248.25857"/>
     <use style="stroke:#000000;" x="150.086004" xlink:href="#m36c92974e6" y="249.915033"/>
     <use style="stroke:#000000;" x="223.309983" xlink:href="#m36c92974e6" y="244.058719"/>
     <use style="stroke:#000000;" x="259.571177" xlink:href="#m36c92974e6" y="246.11082"/>
     <use style="stroke:#000000;" x="296.341947" xlink:href="#m36c92974e6" y="246.784709"/>
     <use style="stroke:#000000;" x="311.289535" xlink:href="#m36c92974e6" y="243.897855"/>
     <use style="stroke:#000000;" x="334.397738" xlink:href="#m36c92974e6" y="243.628299"/>
     <use style="stroke:#000000;" x="356.228306" xlink:href="#m36c92974e6" y="246.884706"/>
     <use style="stroke:#000000;" x="371.995648" xlink:href="#m36c92974e6" y="248.289004"/>
     <use style="stroke:#000000;" x="384.927083" xlink:href="#m36c92974e6" y="254.906161"/>
     <use style="stroke:#000000;" x="408.869811" xlink:href="#m36c92974e6" y="259.697295"/>
     <use style="stroke:#000000;" x="424.866093" xlink:href="#m36c92974e6" y="256.810441"/>
     <use style="stroke:#000000;" x="446.327402" xlink:href="#m36c92974e6" y="249.180277"/>
     <use style="stroke:#000000;" x="459.436082" xlink:href="#m36c92974e6" y="246.749928"/>
     <use style="stroke:#000000;" x="475.173883" xlink:href="#m36c92974e6" y="244.628264"/>
    </g>
   </g>
   <g id="PathCollection_3">
    <defs>
     <path d="M 3.872983 0 
L -3.872983 -3.872983 
L -3.872983 3.872983 
z
" id="m1d661d9813" style="stroke:#000000;"/>
    </defs>
    <g clip-path="url(#pf137677014)">
     <use style="stroke:#000000;" x="74.026119" xlink:href="#m1d661d9813" y="212.603312"/>
     <use style="stroke:#000000;" x="148.668051" xlink:href="#m1d661d9813" y="211.416398"/>
     <use style="stroke:#000000;" x="224.100196" xlink:href="#m1d661d9813" y="209.972971"/>
     <use style="stroke:#000000;" x="258.529867" xlink:href="#m1d661d9813" y="208.633888"/>
     <use style="stroke:#000000;" x="297.272479" xlink:href="#m1d661d9813" y="208.077386"/>
     <use style="stroke:#000000;" x="311.178758" xlink:href="#m1d661d9813" y="207.307848"/>
     <use style="stroke:#000000;" x="335.025477" xlink:href="#m1d661d9813" y="208.290422"/>
     <use style="stroke:#000000;" x="355.600566" xlink:href="#m1d661d9813" y="212.359843"/>
     <use style="stroke:#000000;" x="371.22759" xlink:href="#m1d661d9813" y="219.133516"/>
     <use style="stroke:#000000;" x="385.244646" xlink:href="#m1d661d9813" y="230.7418"/>
     <use style="stroke:#000000;" x="409.519706" xlink:href="#m1d661d9813" y="241.580546"/>
     <use style="stroke:#000000;" x="424.356516" xlink:href="#m1d661d9813" y="234.241676"/>
     <use style="stroke:#000000;" x="444.754361" xlink:href="#m1d661d9813" y="219.559587"/>
     <use style="stroke:#000000;" x="458.27661" xlink:href="#m1d661d9813" y="214.155431"/>
     <use style="stroke:#000000;" x="473.52699" xlink:href="#m1d661d9813" y="215.70755"/>
    </g>
   </g>
   <g id="PathCollection_4">
    <defs>
     <path d="M -3.872983 0 
L 3.872983 0 
M 0 3.872983 
L 0 -3.872983 
" id="m5d1d2dcb82" style="stroke:#000000;stroke-width:1.5;"/>
    </defs>
    <g clip-path="url(#pf137677014)">
     <use style="stroke:#000000;stroke-width:1.5;" x="75.436687" xlink:href="#m5d1d2dcb82" y="172.535168"/>
     <use style="stroke:#000000;stroke-width:1.5;" x="149.059465" xlink:href="#m5d1d2dcb82" y="169.248328"/>
     <use style="stroke:#000000;stroke-width:1.5;" x="224.358677" xlink:href="#m5d1d2dcb82" y="168.670087"/>
     <use style="stroke:#000000;stroke-width:1.5;" x="260.523864" xlink:href="#m5d1d2dcb82" y="168.670087"/>
     <use style="stroke:#000000;stroke-width:1.5;" x="299.022765" xlink:href="#m5d1d2dcb82" y="169.826568"/>
     <use style="stroke:#000000;stroke-width:1.5;" x="311.592327" xlink:href="#m5d1d2dcb82" y="166.34843"/>
     <use style="stroke:#000000;stroke-width:1.5;" x="335.136255" xlink:href="#m5d1d2dcb82" y="165.187602"/>
     <use style="stroke:#000000;stroke-width:1.5;" x="357.779192" xlink:href="#m5d1d2dcb82" y="173.504698"/>
     <use style="stroke:#000000;stroke-width:1.5;" x="372.837557" xlink:href="#m5d1d2dcb82" y="186.073818"/>
     <use style="stroke:#000000;stroke-width:1.5;" x="388.612284" xlink:href="#m5d1d2dcb82" y="203.481897"/>
     <use style="stroke:#000000;stroke-width:1.5;" x="409.357232" xlink:href="#m5d1d2dcb82" y="220.698678"/>
     <use style="stroke:#000000;stroke-width:1.5;" x="423.189659" xlink:href="#m5d1d2dcb82" y="210.642512"/>
     <use style="stroke:#000000;stroke-width:1.5;" x="443.88291" xlink:href="#m5d1d2dcb82" y="190.525834"/>
     <use style="stroke:#000000;stroke-width:1.5;" x="458.727106" xlink:href="#m5d1d2dcb82" y="182.013092"/>
     <use style="stroke:#000000;stroke-width:1.5;" x="475.66869" xlink:href="#m5d1d2dcb82" y="184.530394"/>
    </g>
   </g>
   <g id="PathCollection_5">
    <defs>
     <path d="M 0 3.872983 
C 1.027127 3.872983 2.012324 3.464901 2.738613 2.738613 
C 3.464901 2.012324 3.872983 1.027127 3.872983 0 
C 3.872983 -1.027127 3.464901 -2.012324 2.738613 -2.738613 
C 2.012324 -3.464901 1.027127 -3.872983 0 -3.872983 
C -1.027127 -3.872983 -2.012324 -3.464901 -2.738613 -2.738613 
C -3.464901 -2.012324 -3.872983 -1.027127 -3.872983 0 
C -3.872983 1.027127 -3.464901 2.012324 -2.738613 2.738613 
C -2.012324 3.464901 -1.027127 3.872983 0 3.872983 
z
" id="mfe727d1f97" style="stroke:#000000;"/>
    </defs>
    <g clip-path="url(#pf137677014)">
     <use style="stroke:#000000;" x="73.331913" xlink:href="#mfe727d1f97" y="133.16265"/>
     <use style="stroke:#000000;" x="148.911762" xlink:href="#mfe727d1f97" y="135.145189"/>
     <use style="stroke:#000000;" x="223.62016" xlink:href="#mfe727d1f97" y="133.971317"/>
     <use style="stroke:#000000;" x="261.195915" xlink:href="#mfe727d1f97" y="134.719117"/>
     <use style="stroke:#000000;" x="297.51619" xlink:href="#mfe727d1f97" y="134.979977"/>
     <use style="stroke:#000000;" x="311.252609" xlink:href="#mfe727d1f97" y="131.336628"/>
     <use style="stroke:#000000;" x="333.304732" xlink:href="#mfe727d1f97" y="125.023808"/>
     <use style="stroke:#000000;" x="355.585796" xlink:href="#mfe727d1f97" y="138.905925"/>
     <use style="stroke:#000000;" x="370.001651" xlink:href="#mfe727d1f97" y="159.109557"/>
     <use style="stroke:#000000;" x="385.680371" xlink:href="#mfe727d1f97" y="180.530536"/>
     <use style="stroke:#000000;" x="408.463626" xlink:href="#mfe727d1f97" y="202.199333"/>
     <use style="stroke:#000000;" x="423.329977" xlink:href="#mfe727d1f97" y="187.852016"/>
     <use style="stroke:#000000;" x="442.280328" xlink:href="#mfe727d1f97" y="165.231079"/>
     <use style="stroke:#000000;" x="458.882194" xlink:href="#mfe727d1f97" y="155.992276"/>
     <use style="stroke:#000000;" x="473.460523" xlink:href="#mfe727d1f97" y="153.566275"/>
    </g>
   </g>
   <g id="PathCollection_6">
    <defs>
     <path d="M 0 -3.872983 
L -0.869539 -1.196818 
L -3.683426 -1.196818 
L -1.406944 0.457144 
L -2.276482 3.133309 
L -0 1.479348 
L 2.276482 3.133309 
L 1.406944 0.457144 
L 3.683426 -1.196818 
L 0.869539 -1.196818 
z
" id="m947f5544c8" style="stroke:#000000;"/>
    </defs>
    <g clip-path="url(#pf137677014)">
     <use style="stroke:#000000;" x="74.890185" xlink:href="#m947f5544c8" y="93.811871"/>
     <use style="stroke:#000000;" x="147.848297" xlink:href="#m947f5544c8" y="92.146713"/>
     <use style="stroke:#000000;" x="222.017578" xlink:href="#m947f5544c8" y="87.316449"/>
     <use style="stroke:#000000;" x="258.758808" xlink:href="#m947f5544c8" y="91.225007"/>
     <use style="stroke:#000000;" x="294.643358" xlink:href="#m947f5544c8" y="93.433624"/>
     <use style="stroke:#000000;" x="310.875965" xlink:href="#m947f5544c8" y="90.520684"/>
     <use style="stroke:#000000;" x="332.5736" xlink:href="#m947f5544c8" y="91.994544"/>
     <use style="stroke:#000000;" x="353.931517" xlink:href="#m947f5544c8" y="100.029042"/>
     <use style="stroke:#000000;" x="372.180277" xlink:href="#m947f5544c8" y="128.001964"/>
     <use style="stroke:#000000;" x="384.535669" xlink:href="#m947f5544c8" y="151.601127"/>
     <use style="stroke:#000000;" x="406.092986" xlink:href="#m947f5544c8" y="177.387169"/>
     <use style="stroke:#000000;" x="419.674317" xlink:href="#m947f5544c8" y="161.10079"/>
     <use style="stroke:#000000;" x="442.767749" xlink:href="#m947f5544c8" y="138.253774"/>
     <use style="stroke:#000000;" x="456.34908" xlink:href="#m947f5544c8" y="121.967395"/>
     <use style="stroke:#000000;" x="472.205044" xlink:href="#m947f5544c8" y="122.945621"/>
    </g>
   </g>
   <g id="PathCollection_7">
    <defs>
     <path d="M 0 -3.872983 
L -3.872983 3.872983 
L 3.872983 3.872983 
z
" id="mbac6a4057d" style="stroke:#000000;"/>
    </defs>
    <g clip-path="url(#pf137677014)">
     <use style="stroke:#000000;" x="75.259443" xlink:href="#mbac6a4057d" y="56.821878"/>
     <use style="stroke:#000000;" x="149.738901" xlink:href="#mbac6a4057d" y="56.587104"/>
     <use style="stroke:#000000;" x="223.029346" xlink:href="#mbac6a4057d" y="37.574735"/>
     <use style="stroke:#000000;" x="258.227075" xlink:href="#mbac6a4057d" y="47.81785"/>
     <use style="stroke:#000000;" x="295.056927" xlink:href="#mbac6a4057d" y="56.704491"/>
     <use style="stroke:#000000;" x="309.908508" xlink:href="#mbac6a4057d" y="52.052482"/>
     <use style="stroke:#000000;" x="331.746461" xlink:href="#mbac6a4057d" y="51.456851"/>
     <use style="stroke:#000000;" x="355.076219" xlink:href="#mbac6a4057d" y="66.356323"/>
     <use style="stroke:#000000;" x="372.667698" xlink:href="#mbac6a4057d" y="104.098463"/>
     <use style="stroke:#000000;" x="385.060017" xlink:href="#mbac6a4057d" y="118.419695"/>
     <use style="stroke:#000000;" x="406.129912" xlink:href="#mbac6a4057d" y="139.318954"/>
     <use style="stroke:#000000;" x="421.616617" xlink:href="#mbac6a4057d" y="132.34094"/>
     <use style="stroke:#000000;" x="442.908068" xlink:href="#mbac6a4057d" y="110.259114"/>
     <use style="stroke:#000000;" x="457.936892" xlink:href="#mbac6a4057d" y="90.890236"/>
     <use style="stroke:#000000;" x="472.529992" xlink:href="#mbac6a4057d" y="93.0119"/>
    </g>
   </g>
   <g id="matplotlib.axis_1">
    <g id="xtick_1">
     <g id="line2d_1">
      <defs>
       <path d="M 0 0 
L 0 3.5 
" id="m234038385f" style="stroke:#000000;stroke-width:0.8;"/>
      </defs>
      <g>
       <use style="stroke:#000000;stroke-width:0.8;" x="77.644854" xlink:href="#m234038385f" y="300.777725"/>
      </g>
     </g>
     <g id="text_1">
      <!-- $0.4$ -->
      <defs>
       <path d="M 42 31.84375 
C 42 37.96875 41.90625 48.421875 37.703125 56.453125 
C 34 63.484375 28.09375 66 22.90625 66 
C 18.09375 66 12 63.78125 8.203125 56.5625 
C 4.203125 49.015625 3.796875 39.671875 3.796875 31.84375 
C 3.796875 26.109375 3.90625 17.375 7 9.734375 
C 11.296875 -0.609375 19 -2 22.90625 -2 
C 27.5 -2 34.5 -0.109375 38.59375 9.4375 
C 41.59375 16.375 42 24.5 42 31.84375 
z
M 22.90625 -0.40625 
C 16.5 -0.40625 12.703125 5.125 11.296875 12.75 
C 10.203125 18.6875 10.203125 27.328125 10.203125 32.953125 
C 10.203125 40.6875 10.203125 47.109375 11.5 53.234375 
C 13.40625 61.78125 19 64.390625 22.90625 64.390625 
C 27 64.390625 32.296875 61.671875 34.203125 53.4375 
C 35.5 47.71875 35.59375 40.984375 35.59375 32.953125 
C 35.59375 26.421875 35.59375 18.375 34.40625 12.453125 
C 32.296875 1.5 26.40625 -0.40625 22.90625 -0.40625 
z
" id="CMR17-48"/>
       <path d="M 18.40625 4.796875 
C 18.40625 7.6875 16 9.6875 13.59375 9.6875 
C 10.703125 9.6875 8.703125 7.296875 8.703125 4.890625 
C 8.703125 2 11.09375 0 13.5 0 
C 16.40625 0 18.40625 2.390625 18.40625 4.796875 
z
" id="CMMI12-58"/>
       <path d="M 33.59375 64.796875 
C 33.59375 66.890625 33.5 67 31.703125 67 
L 2 19.59375 
L 2 17 
L 27.796875 17 
L 27.796875 7.1875 
C 27.796875 3.59375 27.59375 2.59375 20.59375 2.59375 
L 18.703125 2.59375 
L 18.703125 0 
C 21.90625 0.1875 27.296875 0.1875 30.703125 0.1875 
C 34.09375 0.1875 39.5 0.1875 42.703125 0 
L 42.703125 2.59375 
L 40.796875 2.59375 
C 33.796875 2.59375 33.59375 3.59375 33.59375 7.1875 
L 33.59375 17 
L 43.796875 17 
L 43.796875 19.59375 
L 33.59375 19.59375 
z
M 28.09375 58.171875 
L 28.09375 19.59375 
L 4 19.59375 
z
" id="CMR17-52"/>
      </defs>
      <g transform="translate(71.279814 314.696223)scale(0.1 -0.1)">
       <use transform="scale(0.996264)" xlink:href="#CMR17-48"/>
       <use transform="translate(45.690477 0)scale(0.996264)" xlink:href="#CMMI12-58"/>
       <use transform="translate(72.787654 0)scale(0.996264)" xlink:href="#CMR17-52"/>
      </g>
     </g>
    </g>
    <g id="xtick_2">
     <g id="line2d_2">
      <g>
       <use style="stroke:#000000;stroke-width:0.8;" x="151.496572" xlink:href="#m234038385f" y="300.777725"/>
      </g>
     </g>
     <g id="text_2">
      <!-- $0.5$ -->
      <defs>
       <path d="M 11.40625 58.59375 
C 12.40625 58.1875 16.5 56.890625 20.703125 56.890625 
C 30 56.890625 35.09375 61.890625 38 64.6875 
C 38 65.484375 38 66 37.40625 66 
C 37.296875 66 37.09375 66 36.296875 65.59375 
C 32.796875 64.09375 28.703125 63 23.703125 63 
C 20.703125 63 16.203125 63.359375 11.296875 65.484375 
C 10.203125 66 10 66 9.90625 66 
C 9.40625 66 9.296875 65.890625 9.296875 63.90625 
L 9.296875 34.859375 
C 9.296875 33.015625 9.296875 32.5 10.296875 32.5 
C 10.796875 32.5 11 32.703125 11.5 33.421875 
C 14.703125 38.046875 19.09375 40 24.09375 40 
C 27.59375 40 35.09375 37.734375 35.09375 20.203125 
C 35.09375 16.984375 35.09375 11.1875 32.09375 6.59375 
C 29.59375 2.484375 25.703125 0.390625 21.40625 0.390625 
C 14.796875 0.390625 8.09375 4.984375 6.296875 12.6875 
C 6.703125 12.59375 7.5 12.390625 7.90625 12.390625 
C 9.203125 12.390625 11.703125 13.09375 11.703125 16.1875 
C 11.703125 18.890625 9.796875 20 7.90625 20 
C 5.59375 20 4.09375 18.59375 4.09375 15.796875 
C 4.09375 7.09375 11 -2 21.59375 -2 
C 31.90625 -2 41.703125 6.890625 41.703125 19.796875 
C 41.703125 32.09375 33.90625 41.59375 24.203125 41.59375 
C 19.09375 41.59375 14.796875 39.6875 11.40625 36 
z
" id="CMR17-53"/>
      </defs>
      <g transform="translate(145.131533 314.696223)scale(0.1 -0.1)">
       <use transform="scale(0.996264)" xlink:href="#CMR17-48"/>
       <use transform="translate(45.690477 0)scale(0.996264)" xlink:href="#CMMI12-58"/>
       <use transform="translate(72.787654 0)scale(0.996264)" xlink:href="#CMR17-53"/>
      </g>
     </g>
    </g>
    <g id="xtick_3">
     <g id="line2d_3">
      <g>
       <use style="stroke:#000000;stroke-width:0.8;" x="225.34829" xlink:href="#m234038385f" y="300.777725"/>
      </g>
     </g>
     <g id="text_3">
      <!-- $0.6$ -->
      <defs>
       <path d="M 10.59375 34.34375 
C 10.59375 58 21.796875 63.6875 28.296875 63.6875 
C 30.40625 63.6875 35.5 63.265625 37.5 59.09375 
C 35.90625 59.09375 32.90625 59.09375 32.90625 55.59375 
C 32.90625 52.890625 35.09375 52 36.5 52 
C 37.40625 52 40.09375 52.390625 40.09375 55.796875 
C 40.09375 62.296875 35.09375 66 28.203125 66 
C 16.296875 66 3.796875 53.296875 3.796875 31.421875 
C 3.796875 4.015625 15.09375 -2 23.09375 -2 
C 32.796875 -2 42 6.734375 42 20.234375 
C 42 32.828125 33.90625 42 23.703125 42 
C 17.59375 42 13.09375 37.96875 10.59375 30.921875 
z
M 23.09375 0.390625 
C 10.796875 0.390625 10.796875 18.9375 10.796875 22.65625 
C 10.796875 29.90625 14.203125 40.390625 23.5 40.390625 
C 25.203125 40.390625 30.09375 40.390625 33.40625 33.4375 
C 35.203125 29.515625 35.203125 25.375 35.203125 20.34375 
C 35.203125 14.90625 35.203125 10.875 33.09375 6.84375 
C 30.90625 2.703125 27.703125 0.390625 23.09375 0.390625 
z
" id="CMR17-54"/>
      </defs>
      <g transform="translate(218.983251 314.696223)scale(0.1 -0.1)">
       <use transform="scale(0.996264)" xlink:href="#CMR17-48"/>
       <use transform="translate(45.690477 0)scale(0.996264)" xlink:href="#CMMI12-58"/>
       <use transform="translate(72.787654 0)scale(0.996264)" xlink:href="#CMR17-54"/>
      </g>
     </g>
    </g>
    <g id="xtick_4">
     <g id="line2d_4">
      <g>
       <use style="stroke:#000000;stroke-width:0.8;" x="299.200009" xlink:href="#m234038385f" y="300.777725"/>
      </g>
     </g>
     <g id="text_4">
      <!-- $0.7$ -->
      <defs>
       <path d="M 45.09375 61.796875 
L 45.09375 64 
L 21.59375 64 
C 9.90625 64 9.703125 65.09375 9.296875 67 
L 7.5 67 
L 4.59375 48.5 
L 6.40625 48.5 
C 6.703125 50.40625 7.40625 55.5 8.59375 57.390625 
C 9.203125 58.1875 16.59375 58.1875 18.296875 58.1875 
L 40.296875 58.1875 
L 29.203125 41.71875 
C 21.796875 30.640625 16.703125 15.671875 16.703125 2.59375 
C 16.703125 1.390625 16.703125 -2 20.296875 -2 
C 23.90625 -2 23.90625 1.390625 23.90625 2.6875 
L 23.90625 7.28125 
C 23.90625 23.65625 26.703125 34.4375 31.296875 41.3125 
z
" id="CMR17-55"/>
      </defs>
      <g transform="translate(292.834969 314.696223)scale(0.1 -0.1)">
       <use transform="scale(0.996264)" xlink:href="#CMR17-48"/>
       <use transform="translate(45.690477 0)scale(0.996264)" xlink:href="#CMMI12-58"/>
       <use transform="translate(72.787654 0)scale(0.996264)" xlink:href="#CMR17-55"/>
      </g>
     </g>
    </g>
    <g id="xtick_5">
     <g id="line2d_5">
      <g>
       <use style="stroke:#000000;stroke-width:0.8;" x="373.051727" xlink:href="#m234038385f" y="300.777725"/>
      </g>
     </g>
     <g id="text_5">
      <!-- $0.8$ -->
      <defs>
       <path d="M 27.203125 35.765625 
C 33.5 38.96875 39.90625 43.796875 39.90625 51.53125 
C 39.90625 60.6875 31.09375 66 23 66 
C 13.90625 66 5.90625 59.375 5.90625 50.234375 
C 5.90625 47.71875 6.5 43.390625 10.40625 39.578125 
C 11.40625 38.578125 15.59375 35.5625 18.296875 33.65625 
C 13.796875 31.34375 3.296875 25.8125 3.296875 14.765625 
C 3.296875 4.40625 13.09375 -2 22.796875 -2 
C 33.5 -2 42.5 5.71875 42.5 15.96875 
C 42.5 25.109375 36.40625 29.328125 32.40625 32.046875 
z
M 14.09375 44.609375 
C 13.296875 45.109375 9.296875 48.21875 9.296875 52.9375 
C 9.296875 59.078125 15.59375 63.6875 22.796875 63.6875 
C 30.703125 63.6875 36.5 58.0625 36.5 51.53125 
C 36.5 42.1875 26.09375 36.859375 25.59375 36.859375 
C 25.5 36.859375 25.40625 36.859375 24.59375 37.46875 
z
M 32.5 24 
C 34 22.90625 38.796875 19.578125 38.796875 13.453125 
C 38.796875 6.015625 31.40625 0.390625 23 0.390625 
C 13.90625 0.390625 7 6.921875 7 14.859375 
C 7 22.796875 13.09375 29.4375 20 32.546875 
z
" id="CMR17-56"/>
      </defs>
      <g transform="translate(366.686688 314.696223)scale(0.1 -0.1)">
       <use transform="scale(0.996264)" xlink:href="#CMR17-48"/>
       <use transform="translate(45.690477 0)scale(0.996264)" xlink:href="#CMMI12-58"/>
       <use transform="translate(72.787654 0)scale(0.996264)" xlink:href="#CMR17-56"/>
      </g>
     </g>
    </g>
    <g id="xtick_6">
     <g id="line2d_6">
      <g>
       <use style="stroke:#000000;stroke-width:0.8;" x="446.903446" xlink:href="#m234038385f" y="300.777725"/>
      </g>
     </g>
     <g id="text_6">
      <!-- $0.9$ -->
      <defs>
       <path d="M 35.203125 29.234375 
C 35.203125 7 26.09375 0.390625 18.59375 0.390625 
C 16.296875 0.390625 10.703125 0.671875 8.40625 4.390625 
C 11 4 12.90625 5.390625 12.90625 7.890625 
C 12.90625 10.59375 10.703125 11.5 9.296875 11.5 
C 8.40625 11.5 5.703125 11.09375 5.703125 7.6875 
C 5.703125 1.0625 11.59375 -2 18.796875 -2 
C 30.296875 -2 42 10.390625 42 32.65625 
C 42 60.265625 30.796875 66 23.203125 66 
C 13.296875 66 3.796875 57.25 3.796875 43.75 
C 3.796875 31.25 11.90625 22 22.09375 22 
C 30.5 22 34.203125 29.84375 35.203125 33.15625 
z
M 22.296875 23.59375 
C 19.59375 23.59375 15.796875 24.09375 12.703125 30.140625 
C 10.59375 34.078125 10.59375 38.703125 10.59375 43.640625 
C 10.59375 49.59375 10.59375 53.71875 13.40625 58.15625 
C 14.796875 60.265625 17.40625 63.6875 23.203125 63.6875 
C 35 63.6875 35 45.453125 35 41.421875 
C 35 34.265625 31.796875 23.59375 22.296875 23.59375 
z
" id="CMR17-57"/>
      </defs>
      <g transform="translate(440.538406 314.696223)scale(0.1 -0.1)">
       <use transform="scale(0.996264)" xlink:href="#CMR17-48"/>
       <use transform="translate(45.690477 0)scale(0.996264)" xlink:href="#CMMI12-58"/>
       <use transform="translate(72.787654 0)scale(0.996264)" xlink:href="#CMR17-57"/>
      </g>
     </g>
    </g>
    <g id="text_7">
     <!-- $Ma$ -->
     <defs>
      <path d="M 90.796875 60.71875 
C 91.703125 64.09375 91.90625 65.09375 99 65.09375 
C 100.90625 65.09375 101.796875 65.09375 101.796875 66.984375 
C 101.796875 68 101.09375 68 99.203125 68 
L 87.203125 68 
C 84.703125 68 84.59375 67.890625 83.5 66.296875 
L 47 8.859375 
L 39.5 65.796875 
C 39.203125 68 39.09375 68 36.5 68 
L 24.09375 68 
C 22.203125 68 21.296875 68 21.296875 66.09375 
C 21.296875 65.09375 22.203125 65.09375 23.703125 65.09375 
C 29.796875 65.09375 29.796875 64.296875 29.796875 63.203125 
C 29.796875 63 29.796875 62.40625 29.40625 60.90625 
L 16.59375 10.15625 
C 15.40625 5.375 13.09375 3.1875 6.40625 2.890625 
C 6.09375 2.890625 4.90625 2.796875 4.90625 1.09375 
C 4.90625 0 5.796875 0 6.203125 0 
C 8.203125 0 13.296875 0.1875 15.296875 0.1875 
L 20.09375 0.1875 
C 21.5 0.1875 23.203125 0 24.59375 0 
C 25.296875 0 26.40625 0 26.40625 1.890625 
C 26.40625 2.796875 25.40625 2.890625 25 2.890625 
C 21.703125 2.984375 18.5 3.59375 18.5 7.171875 
C 18.5 8.171875 18.5 8.265625 18.90625 9.65625 
L 32.703125 64.5 
L 32.796875 64.5 
L 41.09375 2.6875 
C 41.40625 0.296875 41.5 0 42.40625 0 
C 43.5 0 44 0.796875 44.5 1.6875 
L 84.703125 64.984375 
L 84.796875 64.984375 
L 70.296875 7.375 
C 69.40625 3.890625 69.203125 2.890625 62.203125 2.890625 
C 60.296875 2.890625 59.296875 2.890625 59.296875 1.09375 
C 59.296875 0 60.203125 0 60.796875 0 
C 62.5 0 64.5 0.1875 66.203125 0.1875 
L 78 0.1875 
C 79.703125 0.1875 81.796875 0 83.5 0 
C 84.296875 0 85.40625 0 85.40625 1.890625 
C 85.40625 2.890625 84.5 2.890625 83 2.890625 
C 76.90625 2.890625 76.90625 3.6875 76.90625 4.6875 
C 76.90625 4.78125 76.90625 5.484375 77.09375 6.28125 
z
" id="CMMI12-77"/>
      <path d="M 30.09375 11.859375 
C 29.59375 10.171875 29.59375 9.96875 28.203125 8.078125 
C 26 5.28125 21.59375 1 16.90625 1 
C 12.796875 1 10.5 4.6875 10.5 10.5625 
C 10.5 16.0625 13.59375 27.234375 15.5 31.421875 
C 18.90625 38.40625 23.59375 41.984375 27.5 41.984375 
C 34.09375 41.984375 35.40625 33.8125 35.40625 33.015625 
C 35.40625 32.921875 35.09375 31.625 35 31.421875 
z
M 36.5 37.40625 
C 35.40625 40 32.703125 44 27.5 44 
C 16.203125 44 4 29.421875 4 14.65625 
C 4 4.78125 9.796875 -1 16.59375 -1 
C 22.09375 -1 26.796875 3.28125 29.59375 6.578125 
C 30.59375 0.6875 35.296875 -1 38.296875 -1 
C 41.296875 -1 43.703125 0.796875 45.5 4.375 
C 47.09375 7.75 48.5 13.828125 48.5 14.21875 
C 48.5 14.71875 48.09375 15.125 47.5 15.125 
C 46.59375 15.125 46.5 14.625 46.09375 13.125 
C 44.59375 7.265625 42.703125 1 38.59375 1 
C 35.703125 1 35.5 3.578125 35.5 5.5625 
C 35.5 7.859375 35.796875 8.953125 36.703125 12.828125 
C 37.40625 15.3125 37.90625 17.5 38.703125 20.390625 
C 42.40625 35.3125 43.296875 38.890625 43.296875 39.5 
C 43.296875 40.890625 42.203125 42 40.703125 42 
C 37.5 42 36.703125 38.5 36.5 37.3125 
z
" id="CMMI12-97"/>
     </defs>
     <g transform="translate(262.800514 331.011126)scale(0.15 -0.15)">
      <use transform="scale(0.996264)" xlink:href="#CMMI12-77"/>
      <use transform="translate(104.780079 0)scale(0.996264)" xlink:href="#CMMI12-97"/>
     </g>
    </g>
   </g>
   <g id="matplotlib.axis_2">
    <g id="ytick_1">
     <g id="line2d_7">
      <defs>
       <path d="M 0 0 
L -3.5 0 
" id="me75defd397" style="stroke:#000000;stroke-width:0.8;"/>
      </defs>
      <g>
       <use style="stroke:#000000;stroke-width:0.8;" x="51.299601" xlink:href="#me75defd397" y="278.692274"/>
      </g>
     </g>
     <g id="text_8">
      <!-- $0.0$ -->
      <g transform="translate(31.569522 282.151523)scale(0.1 -0.1)">
       <use transform="scale(0.996264)" xlink:href="#CMR17-48"/>
       <use transform="translate(45.690477 0)scale(0.996264)" xlink:href="#CMMI12-58"/>
       <use transform="translate(72.787654 0)scale(0.996264)" xlink:href="#CMR17-48"/>
      </g>
     </g>
    </g>
    <g id="ytick_2">
     <g id="line2d_8">
      <g>
       <use style="stroke:#000000;stroke-width:0.8;" x="51.299601" xlink:href="#me75defd397" y="235.215554"/>
      </g>
     </g>
     <g id="text_9">
      <!-- $0.1$ -->
      <defs>
       <path d="M 26.59375 63.796875 
C 26.59375 65.890625 26.5 66 25.09375 66 
C 21.203125 61.359375 15.296875 59.890625 9.703125 59.6875 
C 9.40625 59.6875 8.90625 59.6875 8.796875 59.5 
C 8.703125 59.296875 8.703125 59.09375 8.703125 57 
C 11.796875 57 17 57.59375 21 59.984375 
L 21 7.296875 
C 21 3.796875 20.796875 2.59375 12.203125 2.59375 
L 9.203125 2.59375 
L 9.203125 0 
C 14 0.09375 19 0.1875 23.796875 0.1875 
C 28.59375 0.1875 33.59375 0.09375 38.40625 0 
L 38.40625 2.59375 
L 35.40625 2.59375 
C 26.796875 2.59375 26.59375 3.6875 26.59375 7.296875 
z
" id="CMR17-49"/>
      </defs>
      <g transform="translate(31.569522 238.674803)scale(0.1 -0.1)">
       <use transform="scale(0.996264)" xlink:href="#CMR17-48"/>
       <use transform="translate(45.690477 0)scale(0.996264)" xlink:href="#CMMI12-58"/>
       <use transform="translate(72.787654 0)scale(0.996264)" xlink:href="#CMR17-49"/>
      </g>
     </g>
    </g>
    <g id="ytick_3">
     <g id="line2d_9">
      <g>
       <use style="stroke:#000000;stroke-width:0.8;" x="51.299601" xlink:href="#me75defd397" y="191.738835"/>
      </g>
     </g>
     <g id="text_10">
      <!-- $0.2$ -->
      <defs>
       <path d="M 41.703125 15.46875 
L 39.90625 15.46875 
C 38.90625 8.390625 38.09375 7.1875 37.703125 6.59375 
C 37.203125 5.796875 30 5.796875 28.59375 5.796875 
L 9.40625 5.796875 
C 13 9.6875 20 16.765625 28.5 24.9375 
C 34.59375 30.71875 41.703125 37.5 41.703125 47.390625 
C 41.703125 59.1875 32.296875 66 21.796875 66 
C 10.796875 66 4.09375 56.296875 4.09375 47.296875 
C 4.09375 43.390625 7 42.890625 8.203125 42.890625 
C 9.203125 42.890625 12.203125 43.484375 12.203125 46.984375 
C 12.203125 50.09375 9.59375 51 8.203125 51 
C 7.59375 51 7 50.890625 6.59375 50.6875 
C 8.5 59.1875 14.296875 63.390625 20.40625 63.390625 
C 29.09375 63.390625 34.796875 56.5 34.796875 47.390625 
C 34.796875 38.703125 29.703125 31.21875 24 24.734375 
L 4.09375 2.296875 
L 4.09375 0 
L 39.296875 0 
z
" id="CMR17-50"/>
      </defs>
      <g transform="translate(31.569522 195.198084)scale(0.1 -0.1)">
       <use transform="scale(0.996264)" xlink:href="#CMR17-48"/>
       <use transform="translate(45.690477 0)scale(0.996264)" xlink:href="#CMMI12-58"/>
       <use transform="translate(72.787654 0)scale(0.996264)" xlink:href="#CMR17-50"/>
      </g>
     </g>
    </g>
    <g id="ytick_4">
     <g id="line2d_10">
      <g>
       <use style="stroke:#000000;stroke-width:0.8;" x="51.299601" xlink:href="#me75defd397" y="148.262115"/>
      </g>
     </g>
     <g id="text_11">
      <!-- $0.3$ -->
      <defs>
       <path d="M 22.09375 34 
C 31 34 34.90625 26.140625 34.90625 17.09375 
C 34.90625 5.03125 28.5 0.390625 22.703125 0.390625 
C 17.40625 0.390625 8.796875 3.015625 6.09375 10.796875 
C 6.59375 10.59375 7.09375 10.59375 7.59375 10.59375 
C 10 10.59375 11.796875 12.1875 11.796875 14.796875 
C 11.796875 17.6875 9.59375 19 7.59375 19 
C 5.90625 19 3.296875 18.1875 3.296875 14.484375 
C 3.296875 5.234375 12.296875 -2 22.90625 -2 
C 34 -2 42.5 6.75 42.5 16.984375 
C 42.5 26.84375 34.5 34 25 35.09375 
C 32.59375 36.671875 39.90625 43.375 39.90625 52.390625 
C 39.90625 60.25 32 66 23 66 
C 13.90625 66 5.90625 60.34375 5.90625 52.296875 
C 5.90625 48.796875 8.5 48.1875 9.796875 48.1875 
C 11.90625 48.1875 13.703125 49.484375 13.703125 52.09375 
C 13.703125 54.6875 11.90625 56 9.796875 56 
C 9.40625 56 8.90625 56 8.5 55.796875 
C 11.40625 62.484375 19.296875 63.6875 22.796875 63.6875 
C 26.296875 63.6875 32.90625 61.96875 32.90625 52.296875 
C 32.90625 49.484375 32.5 44.546875 29.09375 40.21875 
C 26.09375 36.390625 22.703125 36.1875 19.40625 35.890625 
C 18.90625 35.890625 16.59375 35.6875 16.203125 35.6875 
C 15.5 35.59375 15.09375 35.5 15.09375 34.796875 
C 15.09375 34.09375 15.203125 34 17.203125 34 
z
" id="CMR17-51"/>
      </defs>
      <g transform="translate(31.569522 151.721364)scale(0.1 -0.1)">
       <use transform="scale(0.996264)" xlink:href="#CMR17-48"/>
       <use transform="translate(45.690477 0)scale(0.996264)" xlink:href="#CMMI12-58"/>
       <use transform="translate(72.787654 0)scale(0.996264)" xlink:href="#CMR17-51"/>
      </g>
     </g>
    </g>
    <g id="ytick_5">
     <g id="line2d_11">
      <g>
       <use style="stroke:#000000;stroke-width:0.8;" x="51.299601" xlink:href="#me75defd397" y="104.785395"/>
      </g>
     </g>
     <g id="text_12">
      <!-- $0.4$ -->
      <g transform="translate(31.569522 108.244645)scale(0.1 -0.1)">
       <use transform="scale(0.996264)" xlink:href="#CMR17-48"/>
       <use transform="translate(45.690477 0)scale(0.996264)" xlink:href="#CMMI12-58"/>
       <use transform="translate(72.787654 0)scale(0.996264)" xlink:href="#CMR17-52"/>
      </g>
     </g>
    </g>
    <g id="ytick_6">
     <g id="line2d_12">
      <g>
       <use style="stroke:#000000;stroke-width:0.8;" x="51.299601" xlink:href="#me75defd397" y="61.308676"/>
      </g>
     </g>
     <g id="text_13">
      <!-- $0.5$ -->
      <g transform="translate(31.569522 64.767925)scale(0.1 -0.1)">
       <use transform="scale(0.996264)" xlink:href="#CMR17-48"/>
       <use transform="translate(45.690477 0)scale(0.996264)" xlink:href="#CMMI12-58"/>
       <use transform="translate(72.787654 0)scale(0.996264)" xlink:href="#CMR17-53"/>
      </g>
     </g>
    </g>
    <g id="text_14">
     <!-- $c_l$ -->
     <defs>
      <path d="M 39.09375 38 
C 37.203125 38 36.296875 38 34.90625 36.796875 
C 34.296875 36.296875 33.203125 34.796875 33.203125 33.1875 
C 33.203125 31.1875 34.703125 29.984375 36.59375 29.984375 
C 39 29.984375 41.703125 31.984375 41.703125 35.984375 
C 41.703125 40.484375 37.09375 44 30.203125 44 
C 17.09375 44 4 30.1875 4 15.796875 
C 4 6.96875 9.40625 -1 19.59375 -1 
C 33.203125 -1 41.796875 9.71875 41.796875 11.03125 
C 41.796875 11.640625 41.203125 12.140625 40.796875 12.140625 
C 40.5 12.140625 40.40625 12.046875 39.5 11.125 
C 33.09375 2.515625 23.59375 1 19.796875 1 
C 12.90625 1 10.703125 7.078125 10.703125 12.140625 
C 10.703125 15.6875 12.40625 25.53125 16 32.390625 
C 18.59375 37.09375 24 41.984375 30.296875 41.984375 
C 31.59375 41.984375 37.09375 41.8125 39.09375 38 
z
" id="CMMI12-99"/>
      <path d="M 25.40625 66.484375 
C 25.5 66.890625 25.703125 67.484375 25.703125 67.984375 
C 25.703125 69 24.703125 69 24.5 69 
C 24.40625 69 20.796875 68.6875 19 68.484375 
C 17.296875 68.390625 15.796875 68.1875 14 68.09375 
C 11.59375 67.890625 10.90625 67.796875 10.90625 65.984375 
C 10.90625 64.984375 11.90625 64.984375 12.90625 64.984375 
C 18 64.984375 18 64.09375 18 63.109375 
C 18 62.703125 18 62.515625 17.5 60.71875 
L 5.09375 11.421875 
C 4.796875 10.328125 4.59375 9.53125 4.59375 7.953125 
C 4.59375 2.984375 8.296875 -1 13.40625 -1 
C 16.703125 -1 18.90625 1.1875 20.5 4.265625 
C 22.203125 7.546875 23.59375 13.8125 23.59375 14.203125 
C 23.59375 14.703125 23.203125 15.109375 22.59375 15.109375 
C 21.703125 15.109375 21.59375 14.609375 21.203125 13.109375 
C 19.40625 6.265625 17.59375 1 13.59375 1 
C 10.59375 1 10.59375 4.171875 10.59375 5.5625 
C 10.59375 5.96875 10.59375 8.046875 11.296875 10.828125 
z
" id="CMMI12-108"/>
     </defs>
     <g transform="translate(23.112542 169.344909)rotate(-90)scale(0.23 -0.23)">
      <use transform="translate(0 14.943915)scale(0.996264)" xlink:href="#CMMI12-99"/>
      <use transform="translate(41.983234 0)scale(0.697382)" xlink:href="#CMMI12-108"/>
     </g>
    </g>
   </g>
   <g id="line2d_13">
    <path clip-path="url(#pf137677014)" d="M 74.808948 283.496451 
L 78.843191 283.03948 
L 82.877434 282.655184 
L 86.911678 282.339676 
L 90.945921 282.089071 
L 94.980164 281.899483 
L 99.014408 281.767027 
L 103.048651 281.687815 
L 107.082895 281.657963 
L 111.117138 281.673584 
L 115.151381 281.730793 
L 119.185625 281.825702 
L 123.219868 281.954428 
L 127.254111 282.113083 
L 131.288355 282.297782 
L 135.322598 282.504638 
L 139.356841 282.729766 
L 143.391085 282.96928 
L 147.425328 283.219294 
L 151.459572 283.475923 
L 155.493815 283.735279 
L 159.528058 283.993477 
L 163.562302 284.246632 
L 167.596545 284.490857 
L 171.630788 284.722266 
L 175.665032 284.936974 
L 179.699275 285.131095 
L 183.733518 285.300742 
L 187.767762 285.44203 
L 191.802005 285.551072 
L 195.836249 285.623984 
L 199.870492 285.656878 
L 203.904735 285.645869 
L 207.938979 285.587072 
L 211.973222 285.476599 
L 216.007465 285.310566 
L 220.041709 285.085086 
L 224.075952 284.796292 
L 228.110195 284.448464 
L 232.144439 284.066739 
L 236.178682 283.679545 
L 240.212926 283.315311 
L 244.247169 283.002466 
L 248.281412 282.769437 
L 252.315656 282.644654 
L 256.349899 282.656544 
L 260.384142 282.833536 
L 264.418386 283.189919 
L 268.452629 283.679261 
L 272.486872 284.238833 
L 276.521116 284.805908 
L 280.555359 285.317758 
L 284.589603 285.711655 
L 288.623846 285.924872 
L 292.658089 285.894681 
L 296.692333 285.558353 
L 300.726576 284.875031 
L 304.760819 283.96964 
L 308.795063 283.043066 
L 312.829306 282.294868 
L 316.863549 281.830656 
L 320.897793 281.615588 
L 324.932036 281.603327 
L 328.96628 281.747534 
L 333.000523 282.001873 
L 337.034766 282.319511 
L 341.06901 282.650145 
L 345.103253 282.941976 
L 349.137496 283.143199 
L 353.17174 283.202011 
L 357.205983 283.066868 
L 361.240226 282.710469 
L 365.27447 282.149003 
L 369.308713 281.403194 
L 373.342957 280.496084 
L 377.3772 279.50219 
L 381.411443 278.54645 
L 385.445687 277.755916 
L 389.47993 277.24385 
L 393.514173 276.998825 
L 397.548417 276.943181 
L 401.58266 276.998647 
L 405.616903 277.08695 
L 409.651147 277.130264 
L 413.68539 277.094231 
L 417.719634 277.0239 
L 421.753877 276.972785 
L 425.78812 276.980061 
L 429.822364 277.004369 
L 433.856607 276.976246 
L 437.89085 276.826199 
L 441.925094 276.484734 
L 445.959337 275.882876 
L 449.99358 275.032792 
L 454.027824 274.115275 
L 458.062067 273.332129 
L 462.096311 272.885158 
L 466.130554 272.976168 
L 470.164797 273.80696 
L 474.199041 275.579341 
" style="fill:none;stroke:#000000;stroke-dasharray:1.5,2.475;stroke-dashoffset:0;stroke-width:1.5;"/>
   </g>
   <g id="line2d_14">
    <path clip-path="url(#pf137677014)" d="M 74.956651 248.25857 
L 78.999249 249.048612 
L 83.041848 249.732341 
L 87.084446 250.314568 
L 91.127044 250.800103 
L 95.169643 251.193758 
L 99.212241 251.500342 
L 103.254839 251.724665 
L 107.297438 251.87154 
L 111.340036 251.945775 
L 115.382634 251.952182 
L 119.425232 251.895571 
L 123.467831 251.780752 
L 127.510429 251.612537 
L 131.553027 251.395735 
L 135.595626 251.135157 
L 139.638224 250.835613 
L 143.680822 250.501914 
L 147.723421 250.138871 
L 151.766019 249.751294 
L 155.808617 249.343993 
L 159.851216 248.921779 
L 163.893814 248.489463 
L 167.936412 248.051855 
L 171.97901 247.613765 
L 176.021609 247.180004 
L 180.064207 246.755383 
L 184.106805 246.344712 
L 188.149404 245.952801 
L 192.192002 245.584461 
L 196.2346 245.244503 
L 200.277199 244.937736 
L 204.319797 244.668972 
L 208.362395 244.443022 
L 212.404993 244.264694 
L 216.447592 244.138801 
L 220.49019 244.070152 
L 224.532788 244.063511 
L 228.575387 244.120119 
L 232.617985 244.235278 
L 236.660583 244.403724 
L 240.703182 244.62019 
L 244.74578 244.87941 
L 248.788378 245.17612 
L 252.830977 245.505053 
L 256.873575 245.860944 
L 260.916173 246.238386 
L 264.958771 246.62347 
L 269.00137 246.989087 
L 273.043968 247.306989 
L 277.086566 247.54893 
L 281.129165 247.686661 
L 285.171763 247.691936 
L 289.214361 247.536508 
L 293.25696 247.192129 
L 297.299558 246.630889 
L 301.342156 245.871591 
L 305.384755 245.027097 
L 309.427353 244.221557 
L 313.469951 243.575777 
L 317.512549 243.146185 
L 321.555148 242.931121 
L 325.597746 242.926838 
L 329.640344 243.129592 
L 333.682943 243.535637 
L 337.725541 244.132477 
L 341.768139 244.847555 
L 345.810738 245.583092 
L 349.853336 246.241225 
L 353.895934 246.72409 
L 357.938532 246.939109 
L 361.981131 246.973778 
L 366.023729 247.135769 
L 370.066327 247.746166 
L 374.108926 249.1079 
L 378.151524 251.147853 
L 382.194122 253.438535 
L 386.236721 255.541354 
L 390.279319 257.191953 
L 394.321917 258.402898 
L 398.364516 259.211394 
L 402.407114 259.654649 
L 406.449712 259.769868 
L 410.49231 259.593879 
L 414.534909 259.148941 
L 418.577507 258.438452 
L 422.620105 257.464554 
L 426.662704 256.230928 
L 430.705302 254.787797 
L 434.7479 253.239199 
L 438.790499 251.692171 
L 442.833097 250.25375 
L 446.875695 249.030897 
L 450.918294 248.087048 
L 454.960892 247.369018 
L 459.00349 246.804294 
L 463.046088 246.320368 
L 467.088687 245.844727 
L 471.131285 245.304863 
L 475.173883 244.628264 
" style="fill:none;stroke:#000000;stroke-dasharray:1.5,2.475;stroke-dashoffset:0;stroke-width:1.5;"/>
   </g>
   <g id="line2d_15">
    <path clip-path="url(#pf137677014)" d="M 74.026119 212.603312 
L 78.061482 212.467945 
L 82.096844 212.344746 
L 86.132206 212.232982 
L 90.167569 212.131921 
L 94.202931 212.04083 
L 98.238293 211.958976 
L 102.273656 211.885626 
L 106.309018 211.820047 
L 110.34438 211.761507 
L 114.379743 211.709272 
L 118.415105 211.662611 
L 122.450467 211.620789 
L 126.48583 211.583074 
L 130.521192 211.548734 
L 134.556554 211.517035 
L 138.591917 211.487245 
L 142.627279 211.458631 
L 146.662641 211.43046 
L 150.698004 211.401999 
L 154.733366 211.372515 
L 158.768728 211.341276 
L 162.804091 211.307549 
L 166.839453 211.2706 
L 170.874815 211.229698 
L 174.910178 211.184109 
L 178.94554 211.1331 
L 182.980902 211.075939 
L 187.016265 211.011892 
L 191.051627 210.940228 
L 195.086989 210.860212 
L 199.122352 210.771113 
L 203.157714 210.672197 
L 207.193076 210.562732 
L 211.228439 210.441984 
L 215.263801 210.309221 
L 219.299163 210.163711 
L 223.334526 210.00472 
L 227.369888 209.832113 
L 231.40525 209.650035 
L 235.440613 209.46449 
L 239.475975 209.281495 
L 243.511337 209.107062 
L 247.5467 208.947205 
L 251.582062 208.80794 
L 255.617424 208.695279 
L 259.652787 208.615177 
L 263.688149 208.568037 
L 267.723511 208.544283 
L 271.758874 208.533294 
L 275.794236 208.524452 
L 279.829598 208.507137 
L 283.864961 208.470731 
L 287.900323 208.404613 
L 291.935685 208.298164 
L 295.971048 208.140766 
L 300.00641 207.924851 
L 304.041772 207.67696 
L 308.077135 207.445017 
L 312.112497 207.277176 
L 316.147859 207.207565 
L 320.183222 207.241629 
L 324.218584 207.381306 
L 328.253946 207.628539 
L 332.289309 207.985266 
L 336.324671 208.453448 
L 340.360033 209.036226 
L 344.395395 209.738638 
L 348.430758 210.565893 
L 352.46612 211.523197 
L 356.501482 212.616007 
L 360.536845 213.88976 
L 364.572207 215.473498 
L 368.607569 217.506751 
L 372.642932 220.126063 
L 376.678294 223.309288 
L 380.713656 226.799457 
L 384.749019 230.320647 
L 388.784381 233.613573 
L 392.819743 236.515438 
L 396.855106 238.898157 
L 400.890468 240.633686 
L 404.92583 241.593982 
L 408.961193 241.651004 
L 412.996555 240.714665 
L 417.031917 238.925897 
L 421.06728 236.512553 
L 425.102642 233.702534 
L 429.138004 230.69515 
L 433.173367 227.623153 
L 437.208729 224.609848 
L 441.244091 221.778537 
L 445.279454 219.252494 
L 449.314816 217.136121 
L 453.350178 215.482448 
L 457.385541 214.335845 
L 461.420903 213.740683 
L 465.456265 213.741333 
L 469.491628 214.382165 
L 473.52699 215.70755 
" style="fill:none;stroke:#000000;stroke-dasharray:1.5,2.475;stroke-dashoffset:0;stroke-width:1.5;"/>
   </g>
   <g id="line2d_16">
    <path clip-path="url(#pf137677014)" d="M 75.436687 172.535168 
L 79.479435 172.133416 
L 83.522182 171.765337 
L 87.56493 171.429458 
L 91.607677 171.124306 
L 95.650425 170.848406 
L 99.693172 170.600286 
L 103.73592 170.378473 
L 107.778667 170.181494 
L 111.821415 170.007875 
L 115.864162 169.856143 
L 119.90691 169.724825 
L 123.949657 169.612447 
L 127.992405 169.517537 
L 132.035152 169.438622 
L 136.0779 169.374227 
L 140.120647 169.322881 
L 144.163395 169.283109 
L 148.206142 169.253438 
L 152.24889 169.232396 
L 156.291637 169.218508 
L 160.334385 169.210303 
L 164.377132 169.206306 
L 168.41988 169.205044 
L 172.462627 169.205045 
L 176.505375 169.204835 
L 180.548122 169.202941 
L 184.59087 169.197889 
L 188.633617 169.188206 
L 192.676365 169.17242 
L 196.719112 169.149057 
L 200.76186 169.116643 
L 204.804607 169.073706 
L 208.847355 169.018772 
L 212.890102 168.950369 
L 216.93285 168.867022 
L 220.975597 168.767259 
L 225.018345 168.649619 
L 229.061092 168.517097 
L 233.10384 168.383722 
L 237.146587 168.265199 
L 241.189335 168.177235 
L 245.232082 168.135535 
L 249.27483 168.155805 
L 253.317577 168.253752 
L 257.360325 168.445081 
L 261.403072 168.745381 
L 265.44582 169.150266 
L 269.488567 169.6129 
L 273.531315 170.081021 
L 277.574062 170.502364 
L 281.61681 170.824668 
L 285.659557 170.995669 
L 289.702305 170.963103 
L 293.745052 170.674709 
L 297.7878 170.078222 
L 301.830547 169.136317 
L 305.873295 167.968867 
L 309.916042 166.789865 
L 313.95879 165.807127 
L 318.001537 165.110323 
L 322.044285 164.694606 
L 326.087032 164.552484 
L 330.12978 164.676464 
L 334.172527 165.059052 
L 338.215275 165.696373 
L 342.258022 166.614845 
L 346.30077 167.855994 
L 350.343517 169.461456 
L 354.386265 171.472866 
L 358.429012 173.931791 
L 362.47176 176.853135 
L 366.514507 180.185339 
L 370.557255 183.86666 
L 374.600002 187.836103 
L 378.64275 192.056461 
L 382.685497 196.518648 
L 386.728245 201.2152 
L 390.770992 206.126504 
L 394.81374 210.993473 
L 398.856487 215.337866 
L 402.899235 218.673362 
L 406.941982 220.513641 
L 410.98473 220.384849 
L 415.027477 218.290464 
L 419.070225 214.849854 
L 423.112972 210.723129 
L 427.15572 206.479301 
L 431.198467 202.301637 
L 435.241215 198.271325 
L 439.283962 194.469552 
L 443.32671 190.977505 
L 447.369457 187.877158 
L 451.412205 185.255267 
L 455.454952 183.200381 
L 459.4977 181.801054 
L 463.540447 181.145839 
L 467.583195 181.323288 
L 471.625942 182.421956 
L 475.66869 184.530394 
" style="fill:none;stroke:#000000;stroke-dasharray:1.5,2.475;stroke-dashoffset:0;stroke-width:1.5;"/>
   </g>
   <g id="line2d_17">
    <path clip-path="url(#pf137677014)" d="M 73.331913 133.16265 
L 77.373616 133.459549 
L 81.41532 133.729133 
L 85.457023 133.972435 
L 89.498726 134.190487 
L 93.540429 134.384321 
L 97.582132 134.554969 
L 101.623835 134.703464 
L 105.665538 134.830837 
L 109.707241 134.938122 
L 113.748945 135.02635 
L 117.790648 135.096554 
L 121.832351 135.149766 
L 125.874054 135.187017 
L 129.915757 135.209341 
L 133.95746 135.21777 
L 137.999163 135.213335 
L 142.040867 135.19707 
L 146.08257 135.170006 
L 150.124273 135.133175 
L 154.165976 135.087611 
L 158.207679 135.034344 
L 162.249382 134.974408 
L 166.291085 134.908834 
L 170.332788 134.838655 
L 174.374492 134.764904 
L 178.416195 134.688611 
L 182.457898 134.61081 
L 186.499601 134.532533 
L 190.541304 134.454812 
L 194.583007 134.378679 
L 198.62471 134.305167 
L 202.666414 134.235308 
L 206.708117 134.170133 
L 210.74982 134.110676 
L 214.791523 134.057969 
L 218.833226 134.013043 
L 222.874929 133.976931 
L 226.916632 133.95097 
L 230.958335 133.938633 
L 235.000039 133.944311 
L 239.041742 133.9724 
L 243.083445 134.027293 
L 247.125148 134.113385 
L 251.166851 134.23507 
L 255.208554 134.396744 
L 259.250257 134.602801 
L 263.291961 134.856749 
L 267.333664 135.143414 
L 271.375367 135.429821 
L 275.41707 135.682287 
L 279.458773 135.867127 
L 283.500476 135.950661 
L 287.542179 135.899204 
L 291.583882 135.679073 
L 295.625586 135.256585 
L 299.667289 134.598968 
L 303.708992 133.691524 
L 307.750695 132.536172 
L 311.792398 131.135528 
L 315.834101 129.540034 
L 319.875804 127.929031 
L 323.917508 126.503361 
L 327.959211 125.463864 
L 332.000914 125.011379 
L 336.042617 125.336295 
L 340.08432 126.512106 
L 344.126023 128.539027 
L 348.167726 131.416144 
L 352.209429 135.142542 
L 356.251133 139.717061 
L 360.292836 145.052067 
L 364.334539 150.846707 
L 368.376242 156.767852 
L 372.417945 162.500189 
L 376.459648 167.997291 
L 380.501351 173.420902 
L 384.543055 178.938189 
L 388.584758 184.674174 
L 392.626461 190.345947 
L 396.668164 195.441762 
L 400.709867 199.447341 
L 404.75157 201.848406 
L 408.793273 202.13079 
L 412.834976 200.037975 
L 416.87668 196.121614 
L 420.918383 191.091402 
L 424.960086 185.65105 
L 429.001789 180.276188 
L 433.043492 175.148738 
L 437.085195 170.431247 
L 441.126898 166.286265 
L 445.168602 162.860701 
L 449.210305 160.147999 
L 453.252008 158.054572 
L 457.293711 156.485843 
L 461.335414 155.347228 
L 465.377117 154.544149 
L 469.41882 153.982025 
L 473.460523 153.566275 
" style="fill:none;stroke:#000000;stroke-dasharray:1.5,2.475;stroke-dashoffset:0;stroke-width:1.5;"/>
   </g>
   <g id="line2d_18">
    <path clip-path="url(#pf137677014)" d="M 74.890185 93.811871 
L 78.903466 94.261869 
L 82.916747 94.624408 
L 86.930029 94.904016 
L 90.94331 95.105216 
L 94.956592 95.232535 
L 98.969873 95.290497 
L 102.983154 95.283628 
L 106.996436 95.216454 
L 111.009717 95.093498 
L 115.022999 94.919288 
L 119.03628 94.698347 
L 123.049561 94.435202 
L 127.062843 94.134377 
L 131.076124 93.800398 
L 135.089406 93.43779 
L 139.102687 93.051079 
L 143.115969 92.644789 
L 147.12925 92.223447 
L 151.142531 91.791576 
L 155.155813 91.353703 
L 159.169094 90.914354 
L 163.182376 90.478052 
L 167.195657 90.049324 
L 171.208938 89.632694 
L 175.22222 89.232689 
L 179.235501 88.853833 
L 183.248783 88.500651 
L 187.262064 88.17767 
L 191.275345 87.889413 
L 195.288627 87.640407 
L 199.301908 87.435177 
L 203.31519 87.278248 
L 207.328471 87.174145 
L 211.341753 87.127394 
L 215.355034 87.14252 
L 219.368315 87.224048 
L 223.381597 87.376438 
L 227.394878 87.600432 
L 231.40816 87.891103 
L 235.421441 88.24305 
L 239.434722 88.650872 
L 243.448004 89.109168 
L 247.461285 89.612536 
L 251.474567 90.155574 
L 255.487848 90.732882 
L 259.501129 91.339026 
L 263.514411 91.960277 
L 267.527692 92.563597 
L 271.540974 93.113208 
L 275.554255 93.573331 
L 279.567537 93.908187 
L 283.580818 94.081998 
L 287.594099 94.058985 
L 291.607381 93.803369 
L 295.620662 93.279877 
L 299.633944 92.518444 
L 303.647225 91.677932 
L 307.660506 90.932338 
L 311.673788 90.455305 
L 315.687069 90.344677 
L 319.700351 90.528599 
L 323.713632 90.912166 
L 327.726913 91.400476 
L 331.740195 91.898622 
L 335.753476 92.343049 
L 339.766758 92.907659 
L 343.780039 93.875095 
L 347.793321 95.528561 
L 351.806602 98.151263 
L 355.819883 102.016749 
L 359.833165 107.142358 
L 363.846446 113.268749 
L 367.859728 120.122815 
L 371.873009 127.431451 
L 375.88629 134.954101 
L 379.899572 142.614153 
L 383.912853 150.386497 
L 387.926135 158.18051 
L 391.939416 165.485312 
L 395.952697 171.624104 
L 399.965979 175.919682 
L 403.97926 177.694839 
L 407.992542 176.309248 
L 412.005823 172.087305 
L 416.019105 166.387688 
L 420.032386 160.619676 
L 424.045667 155.81092 
L 428.058949 151.818697 
L 432.07223 148.276679 
L 436.085512 144.818537 
L 440.098793 141.077939 
L 444.112074 136.694837 
L 448.125356 131.681474 
L 452.138637 126.62464 
L 456.151919 122.160257 
L 460.1652 118.924243 
L 464.178481 117.552519 
L 468.191763 118.681005 
L 472.205044 122.945621 
" style="fill:none;stroke:#000000;stroke-dasharray:1.5,2.475;stroke-dashoffset:0;stroke-width:1.5;"/>
   </g>
   <g id="line2d_19">
    <path clip-path="url(#pf137677014)" d="M 75.259443 56.821878 
L 79.272277 59.06573 
L 83.285111 60.959598 
L 87.297945 62.520326 
L 91.310778 63.764758 
L 95.323612 64.70974 
L 99.336446 65.372116 
L 103.34928 65.768732 
L 107.362114 65.916431 
L 111.374948 65.832058 
L 115.387781 65.532458 
L 119.400615 65.034475 
L 123.413449 64.354955 
L 127.426283 63.510742 
L 131.439117 62.518681 
L 135.451951 61.395616 
L 139.464784 60.158392 
L 143.477618 58.823853 
L 147.490452 57.408845 
L 151.503286 55.930212 
L 155.51612 54.404799 
L 159.528953 52.849451 
L 163.541787 51.281011 
L 167.554621 49.716325 
L 171.567455 48.172238 
L 175.580289 46.665594 
L 179.593123 45.213238 
L 183.605956 43.832014 
L 187.61879 42.538767 
L 191.631624 41.350342 
L 195.644458 40.283584 
L 199.657292 39.355337 
L 203.670126 38.582446 
L 207.682959 37.981756 
L 211.695793 37.570111 
L 215.708627 37.364356 
L 219.721461 37.381335 
L 223.734295 37.637859 
L 227.747128 38.14038 
L 231.759962 38.870602 
L 235.772796 39.806614 
L 239.78563 40.926502 
L 243.798464 42.208353 
L 247.811298 43.630253 
L 251.824131 45.17029 
L 255.836965 46.806551 
L 259.849799 48.516554 
L 263.862633 50.256327 
L 267.875467 51.954295 
L 271.888301 53.537071 
L 275.901134 54.931268 
L 279.913968 56.063499 
L 283.926802 56.860377 
L 287.939636 57.248515 
L 291.95247 57.154526 
L 295.965304 56.505747 
L 299.978137 55.341731 
L 303.990971 53.934656 
L 308.003805 52.585596 
L 312.016639 51.5861 
L 316.029473 51.032609 
L 320.042306 50.838945 
L 324.05514 50.911901 
L 328.067974 51.158271 
L 332.080808 51.484898 
L 336.093642 51.902498 
L 340.106476 52.74594 
L 344.119309 54.413143 
L 348.132143 57.302025 
L 352.144977 61.810504 
L 356.157811 68.331655 
L 360.170645 76.771644 
L 364.183479 86.140208 
L 368.196312 95.35064 
L 372.209146 103.316234 
L 376.22198 109.201598 
L 380.234814 113.591292 
L 384.247648 117.56808 
L 388.260481 122.075 
L 392.273315 127.010261 
L 396.286149 131.800562 
L 400.298983 135.870308 
L 404.311817 138.643903 
L 408.324651 139.575512 
L 412.337484 138.67361 
L 416.350318 136.437069 
L 420.363152 133.381682 
L 424.375986 129.990405 
L 428.38882 126.392137 
L 432.401654 122.499832 
L 436.414487 118.223367 
L 440.427321 113.472617 
L 444.440155 108.163745 
L 448.452989 102.485778 
L 452.465823 96.999626 
L 456.478657 92.292883 
L 460.49149 88.953143 
L 464.504324 87.568003 
L 468.517158 88.725057 
L 472.529992 93.0119 
" style="fill:none;stroke:#000000;stroke-dasharray:1.5,2.475;stroke-dashoffset:0;stroke-width:1.5;"/>
   </g>
   <g id="patch_3">
    <path d="M 51.299601 300.777725 
L 51.299601 23.577725 
" style="fill:none;stroke:#000000;stroke-linecap:square;stroke-linejoin:miter;stroke-width:0.8;"/>
   </g>
   <g id="patch_4">
    <path d="M 497.699601 300.777725 
L 497.699601 23.577725 
" style="fill:none;stroke:#000000;stroke-linecap:square;stroke-linejoin:miter;stroke-width:0.8;"/>
   </g>
   <g id="patch_5">
    <path d="M 51.299601 300.777725 
L 497.699601 300.777725 
" style="fill:none;stroke:#000000;stroke-linecap:square;stroke-linejoin:miter;stroke-width:0.8;"/>
   </g>
   <g id="patch_6">
    <path d="M 51.299601 23.577725 
L 497.699601 23.577725 
" style="fill:none;stroke:#000000;stroke-linecap:square;stroke-linejoin:miter;stroke-width:0.8;"/>
   </g>
   <g id="text_15">
    <!-- Effect of compressibility on the lift of NACA0012-34 airfoil -->
    <defs>
     <path d="M 30.59375 6.796875 
C 22.59375 6.796875 19 6.796875 17.203125 6.6875 
L 17.203125 32.890625 
L 48.203125 32.890625 
L 48.203125 39 
L 17.203125 39 
L 17.203125 62.390625 
L 30.09375 62.390625 
C 31.296875 62.390625 32.5 62.296875 33.703125 62.296875 
L 50.796875 62.296875 
L 50.796875 68.796875 
L 8.796875 68.796875 
L 8.796875 0 
L 52.09375 0 
L 52.09375 6.890625 
z
" id="CMSS17-69"/>
     <path d="M 16.796875 37.1875 
L 27.09375 37.1875 
L 27.09375 43 
L 16.59375 43 
L 16.59375 55.671875 
C 16.59375 62.5 21.796875 63.890625 25.203125 63.890625 
C 28.703125 63.890625 31.59375 63 32.703125 62.609375 
L 32.703125 69.1875 
C 31.59375 69.390625 28.59375 70 25.296875 70 
C 16.09375 70 9.40625 62.5 9.40625 52.59375 
L 9.40625 43 
L 2.5 43 
L 2.5 37.1875 
L 9.40625 37.1875 
L 9.40625 0 
L 16.796875 0 
z
M 42.796875 37.1875 
L 53.09375 37.1875 
L 53.09375 43 
L 42.59375 43 
L 42.59375 55.671875 
C 42.59375 62.5 47.796875 63.890625 51.203125 63.890625 
C 54.703125 63.890625 57.59375 63 58.703125 62.609375 
L 58.703125 69.1875 
C 57.59375 69.390625 54.59375 70 51.296875 70 
C 42.09375 70 35.40625 62.5 35.40625 52.59375 
L 35.40625 0 
L 42.796875 0 
z
" id="CMSS17-11"/>
     <path d="M 39.09375 21.484375 
C 39.09375 24.796875 38.90625 31.265625 35.703125 36.671875 
C 32.203125 42.390625 26.5 44 22.203125 44 
C 11.796875 44 3 34.125 3 21.296875 
C 3 9.046875 12.09375 -1 23.59375 -1 
C 28.09375 -1 33.59375 0.296875 38.59375 3.890625 
C 38.59375 4.296875 38.40625 6.46875 38.296875 6.578125 
C 38.296875 6.765625 38 9.828125 38 10.234375 
C 33.203125 6.375 27.703125 5.09375 23.703125 5.09375 
C 17.296875 5.09375 10.40625 10.421875 10.09375 21.484375 
z
M 10.90625 27 
C 12.203125 32.59375 16.59375 37.890625 22.203125 37.890625 
C 23.703125 37.890625 30.703125 37.6875 32.5 27 
z
" id="CMSS17-101"/>
     <path d="M 38.5 39.6875 
C 38.5 40.390625 33.90625 42.390625 32.703125 42.796875 
C 29.40625 44 25.203125 44 24.09375 44 
C 11.09375 44 3.296875 32.6875 3.296875 21.296875 
C 3.296875 9.296875 12 -1 23.703125 -1 
C 30.40625 -1 35.203125 1.1875 39.09375 3.796875 
L 38.5 10.390625 
C 34.203125 7.09375 29.203125 5.296875 23.796875 5.296875 
C 16 5.296875 10.90625 12.09375 10.90625 21.390625 
C 10.90625 28.59375 14.203125 37.6875 24.203125 37.6875 
C 29.703125 37.6875 32.796875 36.59375 37.40625 33.484375 
z
" id="CMSS17-99"/>
     <path d="M 16.703125 37.1875 
L 29.703125 37.1875 
L 29.703125 43 
L 16.703125 43 
L 16.703125 55 
L 9.59375 55 
L 9.59375 43 
L 1.703125 43 
L 1.703125 37.1875 
L 9.40625 37.1875 
L 9.40625 11.734375 
C 9.40625 6 10.703125 -1 17.296875 -1 
C 22.296875 -1 26.90625 0.390625 31.296875 2.6875 
L 29.703125 8.609375 
C 27.296875 6.5 24.40625 5.296875 21.296875 5.296875 
C 16.90625 5.296875 16.703125 10.921875 16.703125 13.4375 
z
" id="CMSS17-116"/>
     <path d="M 44.203125 21.1875 
C 44.203125 33.984375 34.703125 44 23.5 44 
C 12 44 2.703125 33.6875 2.703125 21.1875 
C 2.703125 8.5 12.296875 -1 23.40625 -1 
C 34.796875 -1 44.203125 8.796875 44.203125 21.1875 
z
M 23.5 5.296875 
C 16.40625 5.296875 10.296875 11.09375 10.296875 21.984375 
C 10.296875 33.59375 17.40625 37.890625 23.40625 37.890625 
C 29.90625 37.890625 36.59375 33.1875 36.59375 21.984375 
C 36.59375 10.6875 30.09375 5.296875 23.5 5.296875 
z
" id="CMSS17-111"/>
     <path d="M 16.796875 37.1875 
L 26.90625 37.1875 
L 26.90625 43 
L 16.59375 43 
L 16.59375 55.671875 
C 16.59375 62.703125 22 63.890625 25.09375 63.890625 
C 26.09375 63.890625 28.90625 63.890625 32.5 62.609375 
L 32.5 69.1875 
C 30.203125 69.6875 27.40625 70 25.203125 70 
C 15.90625 70 9.40625 62.40625 9.40625 52.59375 
L 9.40625 43 
L 2.5 43 
L 2.5 37.1875 
L 9.40625 37.1875 
L 9.40625 0 
L 16.796875 0 
z
" id="CMSS17-102"/>
     <path d="M 67 29.34375 
C 67 36.078125 65.296875 44 54.09375 44 
C 46.59375 44 42.09375 39.296875 40.09375 36.375 
C 38.296875 41.6875 34.09375 44 28.09375 44 
C 21.296875 44 17 40.09375 14.703125 37.28125 
L 14.703125 43.484375 
L 7.40625 43.484375 
L 7.40625 0 
L 15 0 
L 15 24.3125 
C 15 30.25 17.203125 37.890625 24.296875 37.890625 
C 33.40625 37.890625 33.40625 31.453125 33.40625 28.53125 
L 33.40625 0 
L 41 0 
L 41 24.3125 
C 41 30.25 43.203125 37.890625 50.296875 37.890625 
C 59.40625 37.890625 59.40625 31.453125 59.40625 28.53125 
L 59.40625 0 
L 67 0 
z
" id="CMSS17-109"/>
     <path d="M 15.09375 4.296875 
C 18.40625 1.09375 22.90625 -1 27.703125 -1 
C 37 -1 45 8.640625 45 21.59375 
C 45 33.546875 39 44 30.40625 44 
C 25.40625 44 19.40625 42.1875 14.90625 38.59375 
L 14.90625 43.1875 
L 7.5 43.1875 
L 7.5 -20 
L 15.09375 -20 
z
M 15.09375 32.625 
C 15.90625 33.84375 19.296875 37.6875 24.796875 37.6875 
C 31.796875 37.6875 37.40625 30.40625 37.40625 21.59375 
C 37.40625 11.578125 30.59375 5.09375 23.90625 5.09375 
C 21.90625 5.09375 19.796875 5.59375 17.796875 7.3125 
C 15.09375 9.75 15.09375 11.265625 15.09375 12.6875 
z
" id="CMSS17-112"/>
     <path d="M 14.90625 21.390625 
C 14.90625 30.84375 21.796875 37.171875 30.59375 37.375 
L 30.59375 44 
C 24.203125 43.890625 18.203125 40.6875 14.59375 35.46875 
L 14.59375 43.484375 
L 7.5 43.484375 
L 7.5 0 
L 14.90625 0 
z
" id="CMSS17-114"/>
     <path d="M 32.203125 40.984375 
C 26.296875 43.796875 21.703125 44 18.703125 44 
C 11.59375 44 3.09375 41.484375 3.09375 31.390625 
C 3.09375 21.296875 14.09375 19.09375 17.09375 18.484375 
C 21.703125 17.59375 26.796875 16.59375 26.796875 11.59375 
C 26.796875 5.296875 19.59375 5.296875 18.296875 5.296875 
C 14.296875 5.296875 8.796875 6.390625 3.796875 9.984375 
L 2.59375 3.296875 
C 8.296875 0 13.796875 -1 18.40625 -1 
C 30.703125 -1 33.796875 6.5 33.796875 12.1875 
C 33.796875 17.09375 31 20.390625 29.09375 21.890625 
C 25.796875 24.484375 24.59375 24.796875 16.40625 26.484375 
C 15 26.6875 10.09375 27.796875 10.09375 32.296875 
C 10.09375 37.984375 16.40625 37.984375 17.796875 37.984375 
C 24.296875 37.984375 28.296875 35.984375 31 34.484375 
z
" id="CMSS17-115"/>
     <path d="M 15.296875 66 
L 6.90625 66 
L 6.90625 57.59375 
L 15.296875 57.59375 
z
M 14.796875 43 
L 7.40625 43 
L 7.40625 0 
L 14.796875 0 
z
" id="CMSS17-105"/>
     <path d="M 14.90625 69 
L 7.5 69 
L 7.5 -0.203125 
L 15.09375 -0.203125 
L 15.09375 4.296875 
C 18.90625 0.59375 23.5 -1 27.59375 -1 
C 37.203125 -1 45 8.734375 45 21.59375 
C 45 33.328125 39 44 30.09375 44 
C 23.796875 44 18.203125 41.390625 14.90625 38.6875 
z
M 15.09375 32.734375 
C 17.296875 35.5625 20.40625 37.890625 24.796875 37.890625 
C 30.703125 37.890625 37.40625 33.53125 37.40625 21.59375 
C 37.40625 8.84375 29.40625 5.09375 23.90625 5.09375 
C 21.90625 5.09375 19.796875 5.59375 17.796875 7.3125 
C 15.09375 9.75 15.09375 11.265625 15.09375 12.6875 
z
" id="CMSS17-98"/>
     <path d="M 14.796875 69 
L 7.40625 69 
L 7.40625 0 
L 14.796875 0 
z
" id="CMSS17-108"/>
     <path d="M 41.796875 43 
L 34 43 
C 25.5 20.203125 22.59375 10.953125 22.40625 5.984375 
L 22.296875 5.984375 
C 22 10.859375 17.59375 22.796875 14.09375 31.34375 
L 9.40625 43 
L 1.296875 43 
L 19 0.21875 
C 17.90625 -2.765625 16.296875 -7.25 15.796875 -8.234375 
C 13.59375 -13.8125 12.09375 -13.8125 10.5 -13.8125 
C 10.09375 -13.8125 6.90625 -13.703125 3.296875 -12.609375 
L 3.90625 -19.203125 
C 6.40625 -19.703125 8.90625 -20 10.703125 -20 
C 13.203125 -20 18.203125 -20 22.796875 -7.734375 
z
" id="CMSS17-121"/>
     <path d="M 40.90625 29.34375 
C 40.90625 35.671875 39.40625 44 28.09375 44 
C 21.703125 44 17.5 40.6875 14.703125 37.28125 
L 14.703125 43.484375 
L 7.40625 43.484375 
L 7.40625 0 
L 15 0 
L 15 24.3125 
C 15 30.65625 17.40625 37.890625 24.203125 37.890625 
C 33 37.890625 33.296875 31.953125 33.296875 28.53125 
L 33.296875 0 
L 40.90625 0 
z
" id="CMSS17-110"/>
     <path d="M 40.90625 29.34375 
C 40.90625 35.671875 39.40625 44 28.09375 44 
C 21.796875 44 17.703125 40.890625 14.796875 37.484375 
L 14.796875 69 
L 7.40625 69 
L 7.40625 0 
L 15 0 
L 15 24.3125 
C 15 30.65625 17.40625 37.890625 24.203125 37.890625 
C 33 37.890625 33.296875 31.953125 33.296875 28.53125 
L 33.296875 0 
L 40.90625 0 
z
" id="CMSS17-104"/>
     <path d="M 22.90625 65.296875 
L 21.09375 69 
L 8.796875 69 
L 8.796875 0 
L 16.59375 0 
L 16.59375 61.328125 
L 16.703125 61.421875 
C 17.40625 59.640625 17.796875 58.734375 21.90625 49.890625 
L 43.296875 3.6875 
L 45.09375 0 
L 57.40625 0 
L 57.40625 69 
L 49.59375 69 
L 49.59375 7.65625 
L 49.5 7.5625 
C 48.796875 9.34375 48.40625 10.234375 44.296875 19.09375 
z
" id="CMSS17-78"/>
     <path d="M 35.5 69 
L 26.90625 69 
L 2.59375 0 
L 10.203125 0 
L 17.203125 20 
L 44 20 
L 51.09375 0 
L 59.796875 0 
z
M 42.09375 25.59375 
L 19.09375 25.59375 
C 23.90625 39.53125 29.90625 56.84375 30.59375 61.3125 
L 30.703125 61.3125 
C 31.40625 57.234375 33.40625 51.265625 35.09375 46.1875 
z
" id="CMSS17-65"/>
     <path d="M 54.703125 11.015625 
C 48 6.5 44.90625 5.1875 36.796875 5.1875 
C 22.796875 5.1875 14.59375 20.375 14.59375 34.234375 
C 14.59375 49.015625 23 63.59375 37.203125 63.59375 
C 43.59375 63.59375 47.796875 61.78125 52.90625 58.5625 
L 54.296875 66.484375 
C 49.5 68.890625 43.40625 70 37.296875 70 
C 18.09375 70 6.203125 52.234375 6.203125 34.234375 
C 6.203125 14.4375 20.296875 -1.203125 36.296875 -1.203125 
C 44.90625 -1.203125 47.90625 -0.5 55.296875 4.1875 
z
" id="CMSS17-67"/>
     <path d="M 43.09375 32.390625 
C 43.09375 38.109375 43 48.75 38.90625 56.984375 
C 34.796875 64.890625 28.203125 67 23.5 67 
C 16.703125 67 10.90625 62.984375 7.90625 56.578125 
C 4.703125 49.859375 3.796875 42.9375 3.796875 32.390625 
C 3.796875 25.171875 4.09375 16.34375 7.703125 8.609375 
C 11.796875 0.09375 18.703125 -2 23.40625 -2 
C 29.59375 -2 35.59375 1.296875 39 8.203125 
C 42.5 15.4375 43.09375 23.359375 43.09375 32.390625 
z
M 23.40625 4.09375 
C 15.796875 4.09375 13.5 12.828125 12.796875 15.734375 
C 11.59375 20.75 11.40625 25.5625 11.40625 33.5 
C 11.40625 39.71875 11.40625 46.75 13.296875 52.265625 
C 15.59375 58.6875 19.59375 60.890625 23.40625 60.890625 
C 30.796875 60.890625 33.203125 53.46875 34 50.859375 
C 35.5 45.546875 35.5 39.3125 35.5 33.5 
C 35.5 24.15625 35.5 4.09375 23.40625 4.09375 
z
" id="CMSS17-48"/>
     <path d="M 28.40625 67 
L 26.5 67 
C 21.09375 61.703125 14.796875 60.96875 8.40625 60.796875 
L 8.40625 55 
C 11.296875 55.09375 16 55.296875 20.703125 57.390625 
L 20.703125 5.796875 
L 8.90625 5.796875 
L 8.90625 0 
L 40.203125 0 
L 40.203125 5.796875 
L 28.40625 5.796875 
z
" id="CMSS17-49"/>
     <path d="M 25.796875 21.140625 
C 28.59375 24.03125 32.796875 27.515625 35.703125 31 
C 38.5 34.390625 42.203125 39.171875 42.203125 46.140625 
C 42.203125 57.109375 34.796875 67 22.203125 67 
C 12.296875 67 6.59375 60.796875 3.90625 51.125 
L 7.796875 45.75 
C 10 54.8125 13.09375 60.59375 20.90625 60.59375 
C 29.5 60.59375 34.296875 53.609375 34.296875 45.9375 
C 34.296875 36.78125 27.296875 29.703125 22 24.421875 
C 16.09375 18.546875 10.296875 12.578125 4.703125 6.390625 
L 4.703125 0 
L 42.203125 0 
L 42.203125 6.796875 
L 25.203125 6.796875 
C 24 6.796875 22.796875 6.6875 21.59375 6.6875 
L 11.59375 6.6875 
L 11.59375 6.796875 
z
" id="CMSS17-50"/>
     <path d="M 26 19 
L 26 24.796875 
L 1 24.796875 
L 1 19 
z
" id="CMSS17-45"/>
     <path d="M 15.703125 32.1875 
L 22.5 32.1875 
C 31.90625 32.1875 34.59375 23.9375 34.59375 18.1875 
C 34.59375 10.34375 30.203125 4.1875 23 4.1875 
C 17.40625 4.1875 9.5 7.015625 5 14.46875 
C 4.296875 10.9375 4.296875 10.734375 3.90625 8.328125 
C 8.59375 1.390625 16.203125 -2 23.203125 -2 
C 34.59375 -2 43 7.515625 43 18.09375 
C 43 26.046875 37.5 32.6875 30 35.1875 
C 36 38.484375 40.40625 44.6875 40.40625 51.890625 
C 40.40625 60.296875 32.703125 67 23.296875 67 
C 14.703125 67 8 61.6875 5.203125 55.984375 
C 5.90625 54.984375 7.703125 52.09375 8.59375 50.59375 
C 10.796875 56.484375 16.5 60.890625 23.203125 60.890625 
C 28.796875 60.890625 32.5 57.1875 32.5 51.890625 
C 32.5 46.390625 29 40.390625 23.09375 39 
C 22.703125 39 16.5 38.390625 15.703125 38.296875 
z
" id="CMSS17-51"/>
     <path d="M 35.203125 17 
L 44.296875 17 
L 44.296875 23.09375 
L 35.203125 23.09375 
L 35.203125 66 
L 26.40625 66 
L 2.59375 23.09375 
L 2.59375 17 
L 27.296875 17 
L 27.296875 0 
L 35.203125 0 
z
M 10.296875 23.09375 
C 16.09375 33.421875 27.59375 54.28125 27.59375 61.359375 
L 27.59375 23.09375 
z
" id="CMSS17-52"/>
     <path d="M 37.59375 27.953125 
C 37.59375 37.484375 30.90625 44 21.90625 44 
C 17.5 44 12.703125 43.1875 7.203125 39.984375 
L 7.796875 33.328125 
C 10.296875 35.15625 14.59375 38.09375 21.796875 38.09375 
C 26.90625 38.09375 30 34.140625 30 27.84375 
L 30 24 
C 14 23.5 4 18.890625 4 11.109375 
C 4 7.0625 6.5 -1 14.796875 -1 
C 16.296875 -1 24.40625 -0.8125 30.203125 3.5 
L 30.203125 -0.203125 
L 37.59375 -0.203125 
z
M 30 12.875 
C 30 11.109375 30 8.734375 27 6.96875 
C 24.40625 5.296875 21.09375 5.09375 19.703125 5.09375 
C 14.703125 5.09375 11.296875 7.859375 11.296875 11.296875 
C 11.296875 18.203125 26.90625 18.890625 30 19 
z
" id="CMSS17-97"/>
    </defs>
    <g transform="translate(95.337657 17.577725)scale(0.15 -0.15)">
     <use transform="scale(0.996264)" xlink:href="#CMSS17-69"/>
     <use transform="translate(55.892013 0)scale(0.996264)" xlink:href="#CMSS17-11"/>
     <use transform="translate(110.542983 0)scale(0.996264)" xlink:href="#CMSS17-101"/>
     <use transform="translate(152.181805 0)scale(0.996264)" xlink:href="#CMSS17-99"/>
     <use transform="translate(193.820627 0)scale(0.996264)" xlink:href="#CMSS17-116"/>
     <use transform="translate(258.881307 0)scale(0.996264)" xlink:href="#CMSS17-111"/>
     <use transform="translate(305.72493 0)scale(0.996264)" xlink:href="#CMSS17-102"/>
     <use transform="translate(365.580702 0)scale(0.996264)" xlink:href="#CMSS17-99"/>
     <use transform="translate(407.219524 0)scale(0.996264)" xlink:href="#CMSS17-111"/>
     <use transform="translate(454.063148 0)scale(0.996264)" xlink:href="#CMSS17-109"/>
     <use transform="translate(528.292402 0)scale(0.996264)" xlink:href="#CMSS17-112"/>
     <use transform="translate(573.894891 0)scale(0.996264)" xlink:href="#CMSS17-114"/>
     <use transform="translate(605.804664 0)scale(0.996264)" xlink:href="#CMSS17-101"/>
     <use transform="translate(647.443486 0)scale(0.996264)" xlink:href="#CMSS17-115"/>
     <use transform="translate(683.357028 0)scale(0.996264)" xlink:href="#CMSS17-115"/>
     <use transform="translate(719.27057 0)scale(0.996264)" xlink:href="#CMSS17-105"/>
     <use transform="translate(741.451293 0)scale(0.996264)" xlink:href="#CMSS17-98"/>
     <use transform="translate(789.656236 0)scale(0.996264)" xlink:href="#CMSS17-105"/>
     <use transform="translate(811.836959 0)scale(0.996264)" xlink:href="#CMSS17-108"/>
     <use transform="translate(834.017682 0)scale(0.996264)" xlink:href="#CMSS17-105"/>
     <use transform="translate(856.198405 0)scale(0.996264)" xlink:href="#CMSS17-116"/>
     <use transform="translate(887.427518 0)scale(0.996264)" xlink:href="#CMSS17-121"/>
     <use transform="translate(961.656772 0)scale(0.996264)" xlink:href="#CMSS17-111"/>
     <use transform="translate(1008.500396 0)scale(0.996264)" xlink:href="#CMSS17-110"/>
     <use transform="translate(1087.934452 0)scale(0.996264)" xlink:href="#CMSS17-116"/>
     <use transform="translate(1121.766018 0)scale(0.996264)" xlink:href="#CMSS17-104"/>
     <use transform="translate(1169.970962 0)scale(0.996264)" xlink:href="#CMSS17-101"/>
     <use transform="translate(1242.838896 0)scale(0.996264)" xlink:href="#CMSS17-108"/>
     <use transform="translate(1265.019619 0)scale(0.996264)" xlink:href="#CMSS17-105"/>
     <use transform="translate(1287.200342 0)scale(0.996264)" xlink:href="#CMSS17-102"/>
     <use transform="translate(1315.827001 0)scale(0.996264)" xlink:href="#CMSS17-116"/>
     <use transform="translate(1380.887681 0)scale(0.996264)" xlink:href="#CMSS17-111"/>
     <use transform="translate(1427.731304 0)scale(0.996264)" xlink:href="#CMSS17-102"/>
     <use transform="translate(1487.587076 0)scale(0.996264)" xlink:href="#CMSS17-78"/>
     <use transform="translate(1553.648595 0)scale(0.996264)" xlink:href="#CMSS17-65"/>
     <use transform="translate(1613.263996 0)scale(0.996264)" xlink:href="#CMSS17-67"/>
     <use transform="translate(1673.119768 0)scale(0.996264)" xlink:href="#CMSS17-65"/>
     <use transform="translate(1735.337622 0)scale(0.996264)" xlink:href="#CMSS17-48"/>
     <use transform="translate(1782.181246 0)scale(0.996264)" xlink:href="#CMSS17-48"/>
     <use transform="translate(1829.02487 0)scale(0.996264)" xlink:href="#CMSS17-49"/>
     <use transform="translate(1875.868493 0)scale(0.996264)" xlink:href="#CMSS17-50"/>
     <use transform="translate(1922.712117 0)scale(0.996264)" xlink:href="#CMSS17-45"/>
     <use transform="translate(1953.941229 0)scale(0.996264)" xlink:href="#CMSS17-51"/>
     <use transform="translate(2000.784853 0)scale(0.996264)" xlink:href="#CMSS17-52"/>
     <use transform="translate(2078.857589 0)scale(0.996264)" xlink:href="#CMSS17-97"/>
     <use transform="translate(2123.77951 0)scale(0.996264)" xlink:href="#CMSS17-105"/>
     <use transform="translate(2145.960233 0)scale(0.996264)" xlink:href="#CMSS17-114"/>
     <use transform="translate(2177.870005 0)scale(0.996264)" xlink:href="#CMSS17-102"/>
     <use transform="translate(2206.496664 0)scale(0.996264)" xlink:href="#CMSS17-111"/>
     <use transform="translate(2253.340288 0)scale(0.996264)" xlink:href="#CMSS17-105"/>
     <use transform="translate(2275.521011 0)scale(0.996264)" xlink:href="#CMSS17-108"/>
    </g>
   </g>
   <g id="legend_1">
    <g id="patch_7">
     <path d="M 410.546845 143.075151 
L 490.699601 143.075151 
Q 492.699601 143.075151 492.699601 141.075151 
L 492.699601 30.577725 
Q 492.699601 28.577725 490.699601 28.577725 
L 410.546845 28.577725 
Q 408.546845 28.577725 408.546845 30.577725 
L 408.546845 141.075151 
Q 408.546845 143.075151 410.546845 143.075151 
z
" style="fill:#ffffff;opacity:0.8;stroke:#cccccc;stroke-linejoin:miter;"/>
    </g>
    <g id="line2d_20">
     <path d="M 412.546845 36.077725 
L 432.546845 36.077725 
" style="fill:none;stroke:#000000;stroke-dasharray:1.5,2.475;stroke-dashoffset:0;stroke-width:1.5;"/>
    </g>
    <g id="line2d_21"/>
    <g id="text_16">
     <!-- cubic spline -->
     <defs>
      <path d="M 40.90625 43 
L 33.296875 43 
L 33.296875 15.25 
C 33.296875 7.8125 27.90625 4.796875 22.203125 4.796875 
C 15.59375 4.796875 15 7 15 11.125 
L 15 43 
L 7.40625 43 
L 7.40625 10.625 
C 7.40625 2.796875 10.09375 -1 17 -1 
C 20.40625 -1 28.09375 -0.203125 33.5 4.796875 
L 33.5 -0.203125 
L 40.90625 -0.203125 
z
" id="CMSS17-117"/>
     </defs>
     <g transform="translate(440.546845 39.577725)scale(0.1 -0.1)">
      <use transform="scale(0.996264)" xlink:href="#CMSS17-99"/>
      <use transform="translate(41.638822 0)scale(0.996264)" xlink:href="#CMSS17-117"/>
      <use transform="translate(89.843765 0)scale(0.996264)" xlink:href="#CMSS17-98"/>
      <use transform="translate(138.048708 0)scale(0.996264)" xlink:href="#CMSS17-105"/>
      <use transform="translate(160.229431 0)scale(0.996264)" xlink:href="#CMSS17-99"/>
      <use transform="translate(233.097366 0)scale(0.996264)" xlink:href="#CMSS17-115"/>
      <use transform="translate(269.010908 0)scale(0.996264)" xlink:href="#CMSS17-112"/>
      <use transform="translate(317.215851 0)scale(0.996264)" xlink:href="#CMSS17-108"/>
      <use transform="translate(339.396574 0)scale(0.996264)" xlink:href="#CMSS17-105"/>
      <use transform="translate(361.577297 0)scale(0.996264)" xlink:href="#CMSS17-110"/>
      <use transform="translate(409.782241 0)scale(0.996264)" xlink:href="#CMSS17-101"/>
     </g>
    </g>
    <g id="PathCollection_8">
     <g>
      <use style="stroke:#000000;stroke-width:1.5;" x="422.546845" xlink:href="#m5d62d749c7" y="50.889903"/>
     </g>
    </g>
    <g id="text_17">
     <!-- $\alpha=0^\circ$ -->
     <defs>
      <path d="M 46.296875 25.234375 
C 46.296875 34.90625 40.796875 44 30.203125 44 
C 17.09375 44 4 29.71875 4 15.5625 
C 4 6.875 9.40625 -1 19.59375 -1 
C 25.796875 -1 33.203125 1.390625 40.296875 7.375 
C 41.703125 1.796875 44.796875 -1 49.09375 -1 
C 54.5 -1 57.203125 4.578125 57.203125 5.875 
C 57.203125 6.78125 56.5 6.78125 56.203125 6.78125 
C 55.40625 6.78125 55.296875 6.484375 55 5.6875 
C 54.09375 3.1875 51.796875 1 49.40625 1 
C 46.296875 1 46.296875 7.375 46.296875 13.46875 
C 56.5 25.640625 58.90625 38.203125 58.90625 38.296875 
C 58.90625 39.203125 58.09375 39.203125 57.796875 39.203125 
C 56.90625 39.203125 56.796875 38.90625 56.40625 37.109375 
C 55.09375 32.71875 52.5 24.9375 46.296875 16.75 
z
M 40 9.765625 
C 31.203125 1.890625 23.296875 1 19.796875 1 
C 12.703125 1 10.703125 7.28125 10.703125 11.96875 
C 10.703125 16.25 12.90625 26.4375 16 31.921875 
C 20.09375 38.90625 25.703125 41.984375 30.203125 41.984375 
C 39.90625 41.984375 39.90625 29.328125 39.90625 20.9375 
C 39.90625 18.453125 39.796875 15.859375 39.796875 13.359375 
C 39.796875 11.375 39.90625 10.875 40 9.765625 
z
" id="CMMI12-11"/>
      <path d="M 64.296875 32 
C 65.796875 32 67.296875 32 67.296875 33.6875 
C 67.296875 35.5 65.59375 35.5 63.90625 35.5 
L 8 35.5 
C 6.296875 35.5 4.59375 35.5 4.59375 33.6875 
C 4.59375 32 6.09375 32 7.59375 32 
z
M 63.90625 14.484375 
C 65.59375 14.484375 67.296875 14.484375 67.296875 16.296875 
C 67.296875 18 65.796875 18 64.296875 18 
L 7.59375 18 
C 6.09375 18 4.59375 18 4.59375 16.296875 
C 4.59375 14.484375 6.296875 14.484375 8 14.484375 
z
" id="CMR17-61"/>
      <path d="M 44.40625 24.984375 
C 44.40625 35.40625 35.5 44 25 44 
C 14.203125 44 5.5 35.21875 5.5 24.984375 
C 5.5 14.671875 14.203125 5.984375 25 5.984375 
C 35.5 5.984375 44.40625 14.5625 44.40625 24.984375 
z
M 25 10 
C 16.296875 10 9.5 16.8125 9.5 24.984375 
C 9.5 33.171875 16.40625 40 25 40 
C 33.296875 40 40.40625 33.375 40.40625 24.984375 
C 40.40625 16.609375 33.296875 10 25 10 
z
" id="CMSY10-14"/>
     </defs>
     <g transform="translate(440.546845 53.514903)scale(0.1 -0.1)">
      <use transform="scale(0.996264)" xlink:href="#CMMI12-11"/>
      <use transform="translate(90.355032 0)scale(0.996264)" xlink:href="#CMR17-61"/>
      <use transform="translate(189.743829 0)scale(0.996264)" xlink:href="#CMR17-48"/>
      <use transform="translate(235.434306 36.153639)scale(0.697382)" xlink:href="#CMSY10-14"/>
     </g>
    </g>
    <g id="PathCollection_9">
     <g>
      <use style="stroke:#000000;" x="422.546845" xlink:href="#m36c92974e6" y="64.827081"/>
     </g>
    </g>
    <g id="text_18">
     <!-- $\alpha=1^\circ$ -->
     <g transform="translate(440.546845 67.452081)scale(0.1 -0.1)">
      <use transform="scale(0.996264)" xlink:href="#CMMI12-11"/>
      <use transform="translate(90.355032 0)scale(0.996264)" xlink:href="#CMR17-61"/>
      <use transform="translate(189.743829 0)scale(0.996264)" xlink:href="#CMR17-49"/>
      <use transform="translate(235.434306 36.153639)scale(0.697382)" xlink:href="#CMSY10-14"/>
     </g>
    </g>
    <g id="PathCollection_10">
     <g>
      <use style="stroke:#000000;" x="422.546845" xlink:href="#m1d661d9813" y="78.76426"/>
     </g>
    </g>
    <g id="text_19">
     <!-- $\alpha=2^\circ$ -->
     <g transform="translate(440.546845 81.38926)scale(0.1 -0.1)">
      <use transform="scale(0.996264)" xlink:href="#CMMI12-11"/>
      <use transform="translate(90.355032 0)scale(0.996264)" xlink:href="#CMR17-61"/>
      <use transform="translate(189.743829 0)scale(0.996264)" xlink:href="#CMR17-50"/>
      <use transform="translate(235.434306 36.153639)scale(0.697382)" xlink:href="#CMSY10-14"/>
     </g>
    </g>
    <g id="PathCollection_11">
     <g>
      <use style="stroke:#000000;stroke-width:1.5;" x="422.546845" xlink:href="#m5d1d2dcb82" y="92.701438"/>
     </g>
    </g>
    <g id="text_20">
     <!-- $\alpha=3^\circ$ -->
     <g transform="translate(440.546845 95.326438)scale(0.1 -0.1)">
      <use transform="scale(0.996264)" xlink:href="#CMMI12-11"/>
      <use transform="translate(90.355032 0)scale(0.996264)" xlink:href="#CMR17-61"/>
      <use transform="translate(189.743829 0)scale(0.996264)" xlink:href="#CMR17-51"/>
      <use transform="translate(235.434306 36.153639)scale(0.697382)" xlink:href="#CMSY10-14"/>
     </g>
    </g>
    <g id="PathCollection_12">
     <g>
      <use style="stroke:#000000;" x="422.546845" xlink:href="#mfe727d1f97" y="106.638616"/>
     </g>
    </g>
    <g id="text_21">
     <!-- $\alpha=4^\circ$ -->
     <g transform="translate(440.546845 109.263616)scale(0.1 -0.1)">
      <use transform="scale(0.996264)" xlink:href="#CMMI12-11"/>
      <use transform="translate(90.355032 0)scale(0.996264)" xlink:href="#CMR17-61"/>
      <use transform="translate(189.743829 0)scale(0.996264)" xlink:href="#CMR17-52"/>
      <use transform="translate(235.434306 36.153639)scale(0.697382)" xlink:href="#CMSY10-14"/>
     </g>
    </g>
    <g id="PathCollection_13">
     <g>
      <use style="stroke:#000000;" x="422.546845" xlink:href="#m947f5544c8" y="120.575795"/>
     </g>
    </g>
    <g id="text_22">
     <!-- $\alpha=5^\circ$ -->
     <g transform="translate(440.546845 123.200795)scale(0.1 -0.1)">
      <use transform="scale(0.996264)" xlink:href="#CMMI12-11"/>
      <use transform="translate(90.355032 0)scale(0.996264)" xlink:href="#CMR17-61"/>
      <use transform="translate(189.743829 0)scale(0.996264)" xlink:href="#CMR17-53"/>
      <use transform="translate(235.434306 36.153639)scale(0.697382)" xlink:href="#CMSY10-14"/>
     </g>
    </g>
    <g id="PathCollection_14">
     <g>
      <use style="stroke:#000000;" x="422.546845" xlink:href="#mbac6a4057d" y="134.512973"/>
     </g>
    </g>
    <g id="text_23">
     <!-- $\alpha=6^\circ$ -->
     <g transform="translate(440.546845 137.137973)scale(0.1 -0.1)">
      <use transform="scale(0.996264)" xlink:href="#CMMI12-11"/>
      <use transform="translate(90.355032 0)scale(0.996264)" xlink:href="#CMR17-61"/>
      <use transform="translate(189.743829 0)scale(0.996264)" xlink:href="#CMR17-54"/>
      <use transform="translate(235.434306 36.153639)scale(0.697382)" xlink:href="#CMSY10-14"/>
     </g>
    </g>
   </g>
  </g>
 </g>
 <defs>
  <clipPath id="pf137677014">
   <rect height="277.2" width="446.4" x="51.299601" y="23.577725"/>
  </clipPath>
 </defs>
</svg>
